ISO-10303-21;
HEADER;
/* Generated by software containing ST-Developer
 * from STEP Tools, Inc. (www.steptools.com) 
 */

FILE_DESCRIPTION(
/* description */ ('STEP AP214'),
/* implementation_level */ '2;1');

FILE_NAME(
/* name */ 'Mower wheel 150mm.step',
/* time_stamp */ '2026-03-10T07:21:38+05:30',
/* author */ (''),
/* organization */ (''),
/* preprocessor_version */ 'ST-DEVELOPER v20.1',
/* originating_system */ 'Autodesk Translation Framework v14.21.0.0',
/* authorisation */ '');

FILE_SCHEMA (('AUTOMOTIVE_DESIGN { 1 0 10303 214 3 1 1 }'));
ENDSEC;

DATA;
#10=MECHANICAL_DESIGN_GEOMETRIC_PRESENTATION_REPRESENTATION('',(#41,#42),
#987);
#11=TOROIDAL_SURFACE('',#581,0.07600625,0.00180625);
#12=TOROIDAL_SURFACE('',#584,0.07600625,0.00180625);
#13=TOROIDAL_SURFACE('',#586,0.07600625,0.00180625);
#14=TOROIDAL_SURFACE('',#595,0.065,0.0505);
#15=TOROIDAL_SURFACE('',#600,0.065,0.0505);
#16=TOROIDAL_SURFACE('',#606,0.07600625,0.00180625);
#17=TOROIDAL_SURFACE('',#609,0.07600625,0.00180625);
#18=TOROIDAL_SURFACE('',#616,0.07600625,0.00180625);
#19=TOROIDAL_SURFACE('',#618,0.072,0.003);
#20=TOROIDAL_SURFACE('',#620,0.072,0.003);
#21=ITEM_DEFINED_TRANSFORMATION($,$,#535,#569);
#22=ITEM_DEFINED_TRANSFORMATION($,$,#571,#622);
#23=ITEM_DEFINED_TRANSFORMATION($,$,#534,#623);
#24=ITEM_DEFINED_TRANSFORMATION($,$,#570,#624);
#25=(
REPRESENTATION_RELATIONSHIP($,$,#1007,#1006)
REPRESENTATION_RELATIONSHIP_WITH_TRANSFORMATION(#21)
SHAPE_REPRESENTATION_RELATIONSHIP()
);
#26=(
REPRESENTATION_RELATIONSHIP($,$,#1009,#1008)
REPRESENTATION_RELATIONSHIP_WITH_TRANSFORMATION(#22)
SHAPE_REPRESENTATION_RELATIONSHIP()
);
#27=(
REPRESENTATION_RELATIONSHIP($,$,#1006,#1005)
REPRESENTATION_RELATIONSHIP_WITH_TRANSFORMATION(#23)
SHAPE_REPRESENTATION_RELATIONSHIP()
);
#28=(
REPRESENTATION_RELATIONSHIP($,$,#1008,#1005)
REPRESENTATION_RELATIONSHIP_WITH_TRANSFORMATION(#24)
SHAPE_REPRESENTATION_RELATIONSHIP()
);
#29=CONTEXT_DEPENDENT_SHAPE_REPRESENTATION(#25,#999);
#30=CONTEXT_DEPENDENT_SHAPE_REPRESENTATION(#26,#1002);
#31=CONTEXT_DEPENDENT_SHAPE_REPRESENTATION(#27,#1003);
#32=CONTEXT_DEPENDENT_SHAPE_REPRESENTATION(#28,#1004);
#33=NEXT_ASSEMBLY_USAGE_OCCURRENCE('Component3:1','Component3:1',
'Component3:1',#1012,#1013,'Component3:1');
#34=NEXT_ASSEMBLY_USAGE_OCCURRENCE('Component4:1','Component4:1',
'Component4:1',#1014,#1015,'Component4:1');
#35=NEXT_ASSEMBLY_USAGE_OCCURRENCE('Rim:1','Rim:1','Rim:1',#1011,#1012,
'Rim:1');
#36=NEXT_ASSEMBLY_USAGE_OCCURRENCE('Tyre:1','Tyre:1','Tyre:1',#1011,#1014,
'Tyre:1');
#37=SHAPE_REPRESENTATION_RELATIONSHIP('SRR','None',#1007,#39);
#38=SHAPE_REPRESENTATION_RELATIONSHIP('SRR','None',#1009,#40);
#39=ADVANCED_BREP_SHAPE_REPRESENTATION('',(#43),#984);
#40=ADVANCED_BREP_SHAPE_REPRESENTATION('',(#44),#986);
#41=STYLED_ITEM('',(#1035),#43);
#42=STYLED_ITEM('',(#1036),#44);
#43=MANIFOLD_SOLID_BREP('Body1',#508);
#44=MANIFOLD_SOLID_BREP('Body1',#509);
#45=CONICAL_SURFACE('',#557,0.053,1.28431655171607);
#46=CONICAL_SURFACE('',#560,0.0310160846996713,0.286479775078822);
#47=CONICAL_SURFACE('',#562,0.0235,1.0471975511966);
#48=FACE_BOUND('',#98,.T.);
#49=FACE_BOUND('',#100,.T.);
#50=FACE_BOUND('',#104,.T.);
#51=FACE_BOUND('',#106,.T.);
#52=FACE_BOUND('',#108,.T.);
#53=FACE_BOUND('',#114,.T.);
#54=PLANE('',#545);
#55=PLANE('',#546);
#56=PLANE('',#553);
#57=PLANE('',#554);
#58=PLANE('',#556);
#59=PLANE('',#566);
#60=FACE_OUTER_BOUND('',#94,.T.);
#61=FACE_OUTER_BOUND('',#95,.T.);
#62=FACE_OUTER_BOUND('',#96,.T.);
#63=FACE_OUTER_BOUND('',#97,.T.);
#64=FACE_OUTER_BOUND('',#99,.T.);
#65=FACE_OUTER_BOUND('',#101,.T.);
#66=FACE_OUTER_BOUND('',#102,.T.);
#67=FACE_OUTER_BOUND('',#103,.T.);
#68=FACE_OUTER_BOUND('',#105,.T.);
#69=FACE_OUTER_BOUND('',#107,.T.);
#70=FACE_OUTER_BOUND('',#109,.T.);
#71=FACE_OUTER_BOUND('',#110,.T.);
#72=FACE_OUTER_BOUND('',#111,.T.);
#73=FACE_OUTER_BOUND('',#112,.T.);
#74=FACE_OUTER_BOUND('',#113,.T.);
#75=FACE_OUTER_BOUND('',#115,.T.);
#76=FACE_OUTER_BOUND('',#116,.T.);
#77=FACE_OUTER_BOUND('',#117,.T.);
#78=FACE_OUTER_BOUND('',#118,.T.);
#79=FACE_OUTER_BOUND('',#119,.T.);
#80=FACE_OUTER_BOUND('',#120,.T.);
#81=FACE_OUTER_BOUND('',#121,.T.);
#82=FACE_OUTER_BOUND('',#122,.T.);
#83=FACE_OUTER_BOUND('',#123,.T.);
#84=FACE_OUTER_BOUND('',#124,.T.);
#85=FACE_OUTER_BOUND('',#125,.T.);
#86=FACE_OUTER_BOUND('',#126,.T.);
#87=FACE_OUTER_BOUND('',#127,.T.);
#88=FACE_OUTER_BOUND('',#128,.T.);
#89=FACE_OUTER_BOUND('',#129,.T.);
#90=FACE_OUTER_BOUND('',#130,.T.);
#91=FACE_OUTER_BOUND('',#131,.T.);
#92=FACE_OUTER_BOUND('',#132,.T.);
#93=FACE_OUTER_BOUND('',#133,.T.);
#94=EDGE_LOOP('',(#325,#326,#327,#328));
#95=EDGE_LOOP('',(#329,#330,#331,#332));
#96=EDGE_LOOP('',(#333,#334,#335,#336));
#97=EDGE_LOOP('',(#337));
#98=EDGE_LOOP('',(#338));
#99=EDGE_LOOP('',(#339));
#100=EDGE_LOOP('',(#340));
#101=EDGE_LOOP('',(#341,#342,#343,#344));
#102=EDGE_LOOP('',(#345,#346,#347,#348));
#103=EDGE_LOOP('',(#349));
#104=EDGE_LOOP('',(#350));
#105=EDGE_LOOP('',(#351));
#106=EDGE_LOOP('',(#352));
#107=EDGE_LOOP('',(#353));
#108=EDGE_LOOP('',(#354));
#109=EDGE_LOOP('',(#355,#356,#357,#358,#359));
#110=EDGE_LOOP('',(#360,#361,#362,#363,#364));
#111=EDGE_LOOP('',(#365,#366,#367,#368));
#112=EDGE_LOOP('',(#369,#370,#371,#372));
#113=EDGE_LOOP('',(#373));
#114=EDGE_LOOP('',(#374));
#115=EDGE_LOOP('',(#375,#376,#377,#378));
#116=EDGE_LOOP('',(#379,#380,#381,#382));
#117=EDGE_LOOP('',(#383,#384,#385,#386));
#118=EDGE_LOOP('',(#387,#388,#389,#390));
#119=EDGE_LOOP('',(#391,#392,#393,#394));
#120=EDGE_LOOP('',(#395,#396,#397,#398));
#121=EDGE_LOOP('',(#399,#400,#401,#402));
#122=EDGE_LOOP('',(#403,#404,#405,#406,#407));
#123=EDGE_LOOP('',(#408,#409,#410,#411,#412));
#124=EDGE_LOOP('',(#413,#414,#415,#416,#417));
#125=EDGE_LOOP('',(#418,#419,#420,#421,#422));
#126=EDGE_LOOP('',(#423,#424,#425,#426));
#127=EDGE_LOOP('',(#427,#428,#429,#430));
#128=EDGE_LOOP('',(#431,#432,#433,#434));
#129=EDGE_LOOP('',(#435,#436,#437,#438));
#130=EDGE_LOOP('',(#439,#440,#441,#442));
#131=EDGE_LOOP('',(#443,#444,#445,#446));
#132=EDGE_LOOP('',(#447,#448,#449,#450,#451,#452));
#133=EDGE_LOOP('',(#453,#454,#455,#456,#457,#458));
#134=LINE('',#834,#152);
#135=LINE('',#840,#153);
#136=LINE('',#846,#154);
#137=LINE('',#854,#155);
#138=LINE('',#860,#156);
#139=LINE('',#872,#157);
#140=LINE('',#875,#158);
#141=LINE('',#879,#159);
#142=LINE('',#883,#160);
#143=LINE('',#889,#161);
#144=LINE('',#897,#162);
#145=LINE('',#903,#163);
#146=LINE('',#909,#164);
#147=LINE('',#921,#165);
#148=LINE('',#931,#166);
#149=LINE('',#950,#167);
#150=LINE('',#961,#168);
#151=LINE('',#966,#169);
#152=VECTOR('',#635,0.053);
#153=VECTOR('',#642,0.053);
#154=VECTOR('',#649,0.055);
#155=VECTOR('',#660,0.0065);
#156=VECTOR('',#667,0.0175);
#157=VECTOR('',#684,0.053);
#158=VECTOR('',#687,0.0310160846996713);
#159=VECTOR('',#692,0.0235);
#160=VECTOR('',#697,0.0235);
#161=VECTOR('',#706,0.02);
#162=VECTOR('',#717,0.075);
#163=VECTOR('',#724,0.075);
#164=VECTOR('',#731,0.075);
#165=VECTOR('',#750,0.075);
#166=VECTOR('',#761,0.075);
#167=VECTOR('',#786,0.055);
#168=VECTOR('',#801,0.075);
#169=VECTOR('',#808,0.075);
#170=CIRCLE('',#537,0.053);
#171=CIRCLE('',#538,0.053);
#172=CIRCLE('',#540,0.053);
#173=CIRCLE('',#541,0.053);
#174=CIRCLE('',#543,0.055);
#175=CIRCLE('',#544,0.055);
#176=CIRCLE('',#548,0.0065);
#177=CIRCLE('',#549,0.0065);
#178=CIRCLE('',#551,0.0175);
#179=CIRCLE('',#552,0.0175);
#180=CIRCLE('',#555,0.02);
#181=CIRCLE('',#558,0.0310160846996713);
#182=CIRCLE('',#559,0.0310160846996713);
#183=CIRCLE('',#561,0.0315);
#184=CIRCLE('',#563,0.0235);
#185=CIRCLE('',#565,0.0235);
#186=CIRCLE('',#567,0.02);
#187=CIRCLE('',#573,0.075);
#188=CIRCLE('',#574,0.075);
#189=CIRCLE('',#576,0.075);
#190=CIRCLE('',#577,0.075);
#191=CIRCLE('',#579,0.075);
#192=CIRCLE('',#580,0.075);
#193=CIRCLE('',#582,0.075);
#194=CIRCLE('',#583,0.00180625);
#195=CIRCLE('',#585,0.00180625);
#196=CIRCLE('',#587,0.00180625);
#197=CIRCLE('',#589,0.075);
#198=CIRCLE('',#590,0.075);
#199=CIRCLE('',#592,0.075);
#200=CIRCLE('',#593,0.075);
#201=CIRCLE('',#594,0.075);
#202=CIRCLE('',#596,0.0724421052631579);
#203=CIRCLE('',#597,0.0505);
#204=CIRCLE('',#598,0.055);
#205=CIRCLE('',#599,0.0724421052631579);
#206=CIRCLE('',#601,0.055);
#207=CIRCLE('',#602,0.0505);
#208=CIRCLE('',#603,0.0724421052631579);
#209=CIRCLE('',#604,0.0724421052631579);
#210=CIRCLE('',#607,0.00180625);
#211=CIRCLE('',#608,0.075);
#212=CIRCLE('',#610,0.075);
#213=CIRCLE('',#611,0.00180625);
#214=CIRCLE('',#613,0.075);
#215=CIRCLE('',#615,0.075);
#216=CIRCLE('',#617,0.00180625);
#217=CIRCLE('',#619,0.003);
#218=CIRCLE('',#621,0.003);
#219=VERTEX_POINT('',#831);
#220=VERTEX_POINT('',#833);
#221=VERTEX_POINT('',#837);
#222=VERTEX_POINT('',#839);
#223=VERTEX_POINT('',#843);
#224=VERTEX_POINT('',#845);
#225=VERTEX_POINT('',#851);
#226=VERTEX_POINT('',#853);
#227=VERTEX_POINT('',#857);
#228=VERTEX_POINT('',#859);
#229=VERTEX_POINT('',#864);
#230=VERTEX_POINT('',#868);
#231=VERTEX_POINT('',#869);
#232=VERTEX_POINT('',#874);
#233=VERTEX_POINT('',#878);
#234=VERTEX_POINT('',#882);
#235=VERTEX_POINT('',#886);
#236=VERTEX_POINT('',#894);
#237=VERTEX_POINT('',#896);
#238=VERTEX_POINT('',#900);
#239=VERTEX_POINT('',#902);
#240=VERTEX_POINT('',#906);
#241=VERTEX_POINT('',#908);
#242=VERTEX_POINT('',#912);
#243=VERTEX_POINT('',#920);
#244=VERTEX_POINT('',#922);
#245=VERTEX_POINT('',#926);
#246=VERTEX_POINT('',#927);
#247=VERTEX_POINT('',#930);
#248=VERTEX_POINT('',#934);
#249=VERTEX_POINT('',#935);
#250=VERTEX_POINT('',#937);
#251=VERTEX_POINT('',#942);
#252=VERTEX_POINT('',#944);
#253=VERTEX_POINT('',#946);
#254=VERTEX_POINT('',#952);
#255=VERTEX_POINT('',#956);
#256=VERTEX_POINT('',#960);
#257=VERTEX_POINT('',#964);
#258=EDGE_CURVE('',#219,#219,#170,.T.);
#259=EDGE_CURVE('',#219,#220,#134,.T.);
#260=EDGE_CURVE('',#220,#220,#171,.F.);
#261=EDGE_CURVE('',#221,#221,#172,.T.);
#262=EDGE_CURVE('',#221,#222,#135,.T.);
#263=EDGE_CURVE('',#222,#222,#173,.T.);
#264=EDGE_CURVE('',#223,#223,#174,.T.);
#265=EDGE_CURVE('',#223,#224,#136,.T.);
#266=EDGE_CURVE('',#224,#224,#175,.T.);
#267=EDGE_CURVE('',#225,#225,#176,.T.);
#268=EDGE_CURVE('',#225,#226,#137,.T.);
#269=EDGE_CURVE('',#226,#226,#177,.T.);
#270=EDGE_CURVE('',#227,#227,#178,.F.);
#271=EDGE_CURVE('',#227,#228,#138,.T.);
#272=EDGE_CURVE('',#228,#228,#179,.T.);
#273=EDGE_CURVE('',#229,#229,#180,.T.);
#274=EDGE_CURVE('',#230,#231,#181,.T.);
#275=EDGE_CURVE('',#231,#230,#182,.T.);
#276=EDGE_CURVE('',#230,#221,#139,.T.);
#277=EDGE_CURVE('',#231,#232,#140,.T.);
#278=EDGE_CURVE('',#232,#232,#183,.T.);
#279=EDGE_CURVE('',#232,#233,#141,.T.);
#280=EDGE_CURVE('',#233,#233,#184,.T.);
#281=EDGE_CURVE('',#233,#234,#142,.T.);
#282=EDGE_CURVE('',#234,#234,#185,.T.);
#283=EDGE_CURVE('',#235,#235,#186,.T.);
#284=EDGE_CURVE('',#235,#229,#143,.T.);
#285=EDGE_CURVE('',#236,#236,#187,.T.);
#286=EDGE_CURVE('',#236,#237,#144,.T.);
#287=EDGE_CURVE('',#237,#237,#188,.T.);
#288=EDGE_CURVE('',#238,#238,#189,.T.);
#289=EDGE_CURVE('',#238,#239,#145,.T.);
#290=EDGE_CURVE('',#239,#239,#190,.T.);
#291=EDGE_CURVE('',#240,#240,#191,.T.);
#292=EDGE_CURVE('',#240,#241,#146,.T.);
#293=EDGE_CURVE('',#241,#241,#192,.T.);
#294=EDGE_CURVE('',#242,#242,#193,.T.);
#295=EDGE_CURVE('',#242,#237,#194,.T.);
#296=EDGE_CURVE('',#236,#239,#195,.T.);
#297=EDGE_CURVE('',#238,#241,#196,.T.);
#298=EDGE_CURVE('',#242,#243,#147,.T.);
#299=EDGE_CURVE('',#243,#244,#197,.F.);
#300=EDGE_CURVE('',#244,#243,#198,.F.);
#301=EDGE_CURVE('',#245,#246,#199,.T.);
#302=EDGE_CURVE('',#246,#245,#200,.T.);
#303=EDGE_CURVE('',#245,#247,#148,.T.);
#304=EDGE_CURVE('',#247,#247,#201,.T.);
#305=EDGE_CURVE('',#248,#249,#202,.F.);
#306=EDGE_CURVE('',#249,#250,#203,.T.);
#307=EDGE_CURVE('',#250,#250,#204,.T.);
#308=EDGE_CURVE('',#249,#248,#205,.F.);
#309=EDGE_CURVE('',#251,#251,#206,.T.);
#310=EDGE_CURVE('',#251,#252,#207,.T.);
#311=EDGE_CURVE('',#252,#253,#208,.F.);
#312=EDGE_CURVE('',#253,#252,#209,.F.);
#313=EDGE_CURVE('',#250,#251,#149,.T.);
#314=EDGE_CURVE('',#247,#254,#210,.T.);
#315=EDGE_CURVE('',#254,#254,#211,.T.);
#316=EDGE_CURVE('',#255,#255,#212,.T.);
#317=EDGE_CURVE('',#255,#240,#213,.T.);
#318=EDGE_CURVE('',#254,#256,#150,.T.);
#319=EDGE_CURVE('',#256,#256,#214,.T.);
#320=EDGE_CURVE('',#257,#257,#215,.T.);
#321=EDGE_CURVE('',#257,#255,#151,.T.);
#322=EDGE_CURVE('',#256,#257,#216,.T.);
#323=EDGE_CURVE('',#248,#244,#217,.T.);
#324=EDGE_CURVE('',#246,#253,#218,.T.);
#325=ORIENTED_EDGE('',*,*,#258,.T.);
#326=ORIENTED_EDGE('',*,*,#259,.T.);
#327=ORIENTED_EDGE('',*,*,#260,.F.);
#328=ORIENTED_EDGE('',*,*,#259,.F.);
#329=ORIENTED_EDGE('',*,*,#261,.F.);
#330=ORIENTED_EDGE('',*,*,#262,.T.);
#331=ORIENTED_EDGE('',*,*,#263,.F.);
#332=ORIENTED_EDGE('',*,*,#262,.F.);
#333=ORIENTED_EDGE('',*,*,#264,.T.);
#334=ORIENTED_EDGE('',*,*,#265,.T.);
#335=ORIENTED_EDGE('',*,*,#266,.F.);
#336=ORIENTED_EDGE('',*,*,#265,.F.);
#337=ORIENTED_EDGE('',*,*,#266,.T.);
#338=ORIENTED_EDGE('',*,*,#258,.F.);
#339=ORIENTED_EDGE('',*,*,#264,.F.);
#340=ORIENTED_EDGE('',*,*,#263,.T.);
#341=ORIENTED_EDGE('',*,*,#267,.T.);
#342=ORIENTED_EDGE('',*,*,#268,.T.);
#343=ORIENTED_EDGE('',*,*,#269,.F.);
#344=ORIENTED_EDGE('',*,*,#268,.F.);
#345=ORIENTED_EDGE('',*,*,#270,.T.);
#346=ORIENTED_EDGE('',*,*,#271,.T.);
#347=ORIENTED_EDGE('',*,*,#272,.F.);
#348=ORIENTED_EDGE('',*,*,#271,.F.);
#349=ORIENTED_EDGE('',*,*,#272,.T.);
#350=ORIENTED_EDGE('',*,*,#267,.F.);
#351=ORIENTED_EDGE('',*,*,#273,.F.);
#352=ORIENTED_EDGE('',*,*,#269,.T.);
#353=ORIENTED_EDGE('',*,*,#260,.T.);
#354=ORIENTED_EDGE('',*,*,#270,.F.);
#355=ORIENTED_EDGE('',*,*,#274,.T.);
#356=ORIENTED_EDGE('',*,*,#275,.T.);
#357=ORIENTED_EDGE('',*,*,#276,.T.);
#358=ORIENTED_EDGE('',*,*,#261,.T.);
#359=ORIENTED_EDGE('',*,*,#276,.F.);
#360=ORIENTED_EDGE('',*,*,#274,.F.);
#361=ORIENTED_EDGE('',*,*,#275,.F.);
#362=ORIENTED_EDGE('',*,*,#277,.T.);
#363=ORIENTED_EDGE('',*,*,#278,.T.);
#364=ORIENTED_EDGE('',*,*,#277,.F.);
#365=ORIENTED_EDGE('',*,*,#278,.F.);
#366=ORIENTED_EDGE('',*,*,#279,.T.);
#367=ORIENTED_EDGE('',*,*,#280,.T.);
#368=ORIENTED_EDGE('',*,*,#279,.F.);
#369=ORIENTED_EDGE('',*,*,#280,.F.);
#370=ORIENTED_EDGE('',*,*,#281,.T.);
#371=ORIENTED_EDGE('',*,*,#282,.T.);
#372=ORIENTED_EDGE('',*,*,#281,.F.);
#373=ORIENTED_EDGE('',*,*,#282,.F.);
#374=ORIENTED_EDGE('',*,*,#283,.T.);
#375=ORIENTED_EDGE('',*,*,#283,.F.);
#376=ORIENTED_EDGE('',*,*,#284,.T.);
#377=ORIENTED_EDGE('',*,*,#273,.T.);
#378=ORIENTED_EDGE('',*,*,#284,.F.);
#379=ORIENTED_EDGE('',*,*,#285,.F.);
#380=ORIENTED_EDGE('',*,*,#286,.T.);
#381=ORIENTED_EDGE('',*,*,#287,.T.);
#382=ORIENTED_EDGE('',*,*,#286,.F.);
#383=ORIENTED_EDGE('',*,*,#288,.F.);
#384=ORIENTED_EDGE('',*,*,#289,.T.);
#385=ORIENTED_EDGE('',*,*,#290,.T.);
#386=ORIENTED_EDGE('',*,*,#289,.F.);
#387=ORIENTED_EDGE('',*,*,#291,.F.);
#388=ORIENTED_EDGE('',*,*,#292,.T.);
#389=ORIENTED_EDGE('',*,*,#293,.T.);
#390=ORIENTED_EDGE('',*,*,#292,.F.);
#391=ORIENTED_EDGE('',*,*,#294,.T.);
#392=ORIENTED_EDGE('',*,*,#295,.T.);
#393=ORIENTED_EDGE('',*,*,#287,.F.);
#394=ORIENTED_EDGE('',*,*,#295,.F.);
#395=ORIENTED_EDGE('',*,*,#285,.T.);
#396=ORIENTED_EDGE('',*,*,#296,.T.);
#397=ORIENTED_EDGE('',*,*,#290,.F.);
#398=ORIENTED_EDGE('',*,*,#296,.F.);
#399=ORIENTED_EDGE('',*,*,#288,.T.);
#400=ORIENTED_EDGE('',*,*,#297,.T.);
#401=ORIENTED_EDGE('',*,*,#293,.F.);
#402=ORIENTED_EDGE('',*,*,#297,.F.);
#403=ORIENTED_EDGE('',*,*,#294,.F.);
#404=ORIENTED_EDGE('',*,*,#298,.T.);
#405=ORIENTED_EDGE('',*,*,#299,.T.);
#406=ORIENTED_EDGE('',*,*,#300,.T.);
#407=ORIENTED_EDGE('',*,*,#298,.F.);
#408=ORIENTED_EDGE('',*,*,#301,.T.);
#409=ORIENTED_EDGE('',*,*,#302,.T.);
#410=ORIENTED_EDGE('',*,*,#303,.T.);
#411=ORIENTED_EDGE('',*,*,#304,.T.);
#412=ORIENTED_EDGE('',*,*,#303,.F.);
#413=ORIENTED_EDGE('',*,*,#305,.T.);
#414=ORIENTED_EDGE('',*,*,#306,.T.);
#415=ORIENTED_EDGE('',*,*,#307,.T.);
#416=ORIENTED_EDGE('',*,*,#306,.F.);
#417=ORIENTED_EDGE('',*,*,#308,.T.);
#418=ORIENTED_EDGE('',*,*,#309,.F.);
#419=ORIENTED_EDGE('',*,*,#310,.T.);
#420=ORIENTED_EDGE('',*,*,#311,.T.);
#421=ORIENTED_EDGE('',*,*,#312,.T.);
#422=ORIENTED_EDGE('',*,*,#310,.F.);
#423=ORIENTED_EDGE('',*,*,#307,.F.);
#424=ORIENTED_EDGE('',*,*,#313,.T.);
#425=ORIENTED_EDGE('',*,*,#309,.T.);
#426=ORIENTED_EDGE('',*,*,#313,.F.);
#427=ORIENTED_EDGE('',*,*,#304,.F.);
#428=ORIENTED_EDGE('',*,*,#314,.T.);
#429=ORIENTED_EDGE('',*,*,#315,.T.);
#430=ORIENTED_EDGE('',*,*,#314,.F.);
#431=ORIENTED_EDGE('',*,*,#316,.F.);
#432=ORIENTED_EDGE('',*,*,#317,.T.);
#433=ORIENTED_EDGE('',*,*,#291,.T.);
#434=ORIENTED_EDGE('',*,*,#317,.F.);
#435=ORIENTED_EDGE('',*,*,#315,.F.);
#436=ORIENTED_EDGE('',*,*,#318,.T.);
#437=ORIENTED_EDGE('',*,*,#319,.T.);
#438=ORIENTED_EDGE('',*,*,#318,.F.);
#439=ORIENTED_EDGE('',*,*,#320,.F.);
#440=ORIENTED_EDGE('',*,*,#321,.T.);
#441=ORIENTED_EDGE('',*,*,#316,.T.);
#442=ORIENTED_EDGE('',*,*,#321,.F.);
#443=ORIENTED_EDGE('',*,*,#319,.F.);
#444=ORIENTED_EDGE('',*,*,#322,.T.);
#445=ORIENTED_EDGE('',*,*,#320,.T.);
#446=ORIENTED_EDGE('',*,*,#322,.F.);
#447=ORIENTED_EDGE('',*,*,#305,.F.);
#448=ORIENTED_EDGE('',*,*,#323,.T.);
#449=ORIENTED_EDGE('',*,*,#299,.F.);
#450=ORIENTED_EDGE('',*,*,#300,.F.);
#451=ORIENTED_EDGE('',*,*,#323,.F.);
#452=ORIENTED_EDGE('',*,*,#308,.F.);
#453=ORIENTED_EDGE('',*,*,#301,.F.);
#454=ORIENTED_EDGE('',*,*,#302,.F.);
#455=ORIENTED_EDGE('',*,*,#324,.T.);
#456=ORIENTED_EDGE('',*,*,#311,.F.);
#457=ORIENTED_EDGE('',*,*,#312,.F.);
#458=ORIENTED_EDGE('',*,*,#324,.F.);
#459=CYLINDRICAL_SURFACE('',#536,0.053);
#460=CYLINDRICAL_SURFACE('',#539,0.053);
#461=CYLINDRICAL_SURFACE('',#542,0.055);
#462=CYLINDRICAL_SURFACE('',#547,0.0065);
#463=CYLINDRICAL_SURFACE('',#550,0.0175);
#464=CYLINDRICAL_SURFACE('',#564,0.0235);
#465=CYLINDRICAL_SURFACE('',#568,0.02);
#466=CYLINDRICAL_SURFACE('',#572,0.075);
#467=CYLINDRICAL_SURFACE('',#575,0.075);
#468=CYLINDRICAL_SURFACE('',#578,0.075);
#469=CYLINDRICAL_SURFACE('',#588,0.075);
#470=CYLINDRICAL_SURFACE('',#591,0.075);
#471=CYLINDRICAL_SURFACE('',#605,0.055);
#472=CYLINDRICAL_SURFACE('',#612,0.075);
#473=CYLINDRICAL_SURFACE('',#614,0.075);
#474=ADVANCED_FACE('',(#60),#459,.F.);
#475=ADVANCED_FACE('',(#61),#460,.F.);
#476=ADVANCED_FACE('',(#62),#461,.T.);
#477=ADVANCED_FACE('',(#63,#48),#54,.T.);
#478=ADVANCED_FACE('',(#64,#49),#55,.F.);
#479=ADVANCED_FACE('',(#65),#462,.F.);
#480=ADVANCED_FACE('',(#66),#463,.T.);
#481=ADVANCED_FACE('',(#67,#50),#56,.T.);
#482=ADVANCED_FACE('',(#68,#51),#57,.F.);
#483=ADVANCED_FACE('',(#69,#52),#58,.F.);
#484=ADVANCED_FACE('',(#70),#45,.F.);
#485=ADVANCED_FACE('',(#71),#46,.F.);
#486=ADVANCED_FACE('',(#72),#47,.T.);
#487=ADVANCED_FACE('',(#73),#464,.T.);
#488=ADVANCED_FACE('',(#74,#53),#59,.F.);
#489=ADVANCED_FACE('',(#75),#465,.F.);
#490=ADVANCED_FACE('',(#76),#466,.T.);
#491=ADVANCED_FACE('',(#77),#467,.T.);
#492=ADVANCED_FACE('',(#78),#468,.T.);
#493=ADVANCED_FACE('',(#79),#11,.F.);
#494=ADVANCED_FACE('',(#80),#12,.F.);
#495=ADVANCED_FACE('',(#81),#13,.F.);
#496=ADVANCED_FACE('',(#82),#469,.T.);
#497=ADVANCED_FACE('',(#83),#470,.T.);
#498=ADVANCED_FACE('',(#84),#14,.T.);
#499=ADVANCED_FACE('',(#85),#15,.T.);
#500=ADVANCED_FACE('',(#86),#471,.F.);
#501=ADVANCED_FACE('',(#87),#16,.F.);
#502=ADVANCED_FACE('',(#88),#17,.F.);
#503=ADVANCED_FACE('',(#89),#472,.T.);
#504=ADVANCED_FACE('',(#90),#473,.T.);
#505=ADVANCED_FACE('',(#91),#18,.F.);
#506=ADVANCED_FACE('',(#92),#19,.T.);
#507=ADVANCED_FACE('',(#93),#20,.T.);
#508=CLOSED_SHELL('',(#474,#475,#476,#477,#478,#479,#480,#481,#482,#483,
#484,#485,#486,#487,#488,#489));
#509=CLOSED_SHELL('',(#490,#491,#492,#493,#494,#495,#496,#497,#498,#499,
#500,#501,#502,#503,#504,#505,#506,#507));
#510=DERIVED_UNIT_ELEMENT(#514,1.);
#511=DERIVED_UNIT_ELEMENT(#988,-3.);
#512=DERIVED_UNIT_ELEMENT(#514,1.);
#513=DERIVED_UNIT_ELEMENT(#988,-3.);
#514=(
MASS_UNIT()
NAMED_UNIT(*)
SI_UNIT(.KILO.,.GRAM.)
);
#515=DERIVED_UNIT((#510,#511));
#516=DERIVED_UNIT((#512,#513));
#517=MEASURE_REPRESENTATION_ITEM('density measure',
POSITIVE_RATIO_MEASURE(7850.),#515);
#518=MEASURE_REPRESENTATION_ITEM('density measure',
POSITIVE_RATIO_MEASURE(7850.),#516);
#519=PROPERTY_DEFINITION_REPRESENTATION(#529,#523);
#520=PROPERTY_DEFINITION_REPRESENTATION(#530,#524);
#521=PROPERTY_DEFINITION_REPRESENTATION(#531,#525);
#522=PROPERTY_DEFINITION_REPRESENTATION(#532,#526);
#523=REPRESENTATION('material name',(#527),#984);
#524=REPRESENTATION('density',(#517),#984);
#525=REPRESENTATION('material name',(#528),#986);
#526=REPRESENTATION('density',(#518),#986);
#527=DESCRIPTIVE_REPRESENTATION_ITEM('Steel','Steel');
#528=DESCRIPTIVE_REPRESENTATION_ITEM('Steel','Steel');
#529=PROPERTY_DEFINITION('material property','material name',#1013);
#530=PROPERTY_DEFINITION('material property','density of part',#1013);
#531=PROPERTY_DEFINITION('material property','material name',#1015);
#532=PROPERTY_DEFINITION('material property','density of part',#1015);
#533=AXIS2_PLACEMENT_3D('',#827,#625,#626);
#534=AXIS2_PLACEMENT_3D('',#828,#627,#628);
#535=AXIS2_PLACEMENT_3D('',#829,#629,#630);
#536=AXIS2_PLACEMENT_3D('',#830,#631,#632);
#537=AXIS2_PLACEMENT_3D('',#832,#633,#634);
#538=AXIS2_PLACEMENT_3D('',#835,#636,#637);
#539=AXIS2_PLACEMENT_3D('',#836,#638,#639);
#540=AXIS2_PLACEMENT_3D('',#838,#640,#641);
#541=AXIS2_PLACEMENT_3D('',#841,#643,#644);
#542=AXIS2_PLACEMENT_3D('',#842,#645,#646);
#543=AXIS2_PLACEMENT_3D('',#844,#647,#648);
#544=AXIS2_PLACEMENT_3D('',#847,#650,#651);
#545=AXIS2_PLACEMENT_3D('',#848,#652,#653);
#546=AXIS2_PLACEMENT_3D('',#849,#654,#655);
#547=AXIS2_PLACEMENT_3D('',#850,#656,#657);
#548=AXIS2_PLACEMENT_3D('',#852,#658,#659);
#549=AXIS2_PLACEMENT_3D('',#855,#661,#662);
#550=AXIS2_PLACEMENT_3D('',#856,#663,#664);
#551=AXIS2_PLACEMENT_3D('',#858,#665,#666);
#552=AXIS2_PLACEMENT_3D('',#861,#668,#669);
#553=AXIS2_PLACEMENT_3D('',#862,#670,#671);
#554=AXIS2_PLACEMENT_3D('',#863,#672,#673);
#555=AXIS2_PLACEMENT_3D('',#865,#674,#675);
#556=AXIS2_PLACEMENT_3D('',#866,#676,#677);
#557=AXIS2_PLACEMENT_3D('',#867,#678,#679);
#558=AXIS2_PLACEMENT_3D('',#870,#680,#681);
#559=AXIS2_PLACEMENT_3D('',#871,#682,#683);
#560=AXIS2_PLACEMENT_3D('',#873,#685,#686);
#561=AXIS2_PLACEMENT_3D('',#876,#688,#689);
#562=AXIS2_PLACEMENT_3D('',#877,#690,#691);
#563=AXIS2_PLACEMENT_3D('',#880,#693,#694);
#564=AXIS2_PLACEMENT_3D('',#881,#695,#696);
#565=AXIS2_PLACEMENT_3D('',#884,#698,#699);
#566=AXIS2_PLACEMENT_3D('',#885,#700,#701);
#567=AXIS2_PLACEMENT_3D('',#887,#702,#703);
#568=AXIS2_PLACEMENT_3D('',#888,#704,#705);
#569=AXIS2_PLACEMENT_3D('',#890,#707,#708);
#570=AXIS2_PLACEMENT_3D('',#891,#709,#710);
#571=AXIS2_PLACEMENT_3D('',#892,#711,#712);
#572=AXIS2_PLACEMENT_3D('',#893,#713,#714);
#573=AXIS2_PLACEMENT_3D('',#895,#715,#716);
#574=AXIS2_PLACEMENT_3D('',#898,#718,#719);
#575=AXIS2_PLACEMENT_3D('',#899,#720,#721);
#576=AXIS2_PLACEMENT_3D('',#901,#722,#723);
#577=AXIS2_PLACEMENT_3D('',#904,#725,#726);
#578=AXIS2_PLACEMENT_3D('',#905,#727,#728);
#579=AXIS2_PLACEMENT_3D('',#907,#729,#730);
#580=AXIS2_PLACEMENT_3D('',#910,#732,#733);
#581=AXIS2_PLACEMENT_3D('',#911,#734,#735);
#582=AXIS2_PLACEMENT_3D('',#913,#736,#737);
#583=AXIS2_PLACEMENT_3D('',#914,#738,#739);
#584=AXIS2_PLACEMENT_3D('',#915,#740,#741);
#585=AXIS2_PLACEMENT_3D('',#916,#742,#743);
#586=AXIS2_PLACEMENT_3D('',#917,#744,#745);
#587=AXIS2_PLACEMENT_3D('',#918,#746,#747);
#588=AXIS2_PLACEMENT_3D('',#919,#748,#749);
#589=AXIS2_PLACEMENT_3D('',#923,#751,#752);
#590=AXIS2_PLACEMENT_3D('',#924,#753,#754);
#591=AXIS2_PLACEMENT_3D('',#925,#755,#756);
#592=AXIS2_PLACEMENT_3D('',#928,#757,#758);
#593=AXIS2_PLACEMENT_3D('',#929,#759,#760);
#594=AXIS2_PLACEMENT_3D('',#932,#762,#763);
#595=AXIS2_PLACEMENT_3D('',#933,#764,#765);
#596=AXIS2_PLACEMENT_3D('',#936,#766,#767);
#597=AXIS2_PLACEMENT_3D('',#938,#768,#769);
#598=AXIS2_PLACEMENT_3D('',#939,#770,#771);
#599=AXIS2_PLACEMENT_3D('',#940,#772,#773);
#600=AXIS2_PLACEMENT_3D('',#941,#774,#775);
#601=AXIS2_PLACEMENT_3D('',#943,#776,#777);
#602=AXIS2_PLACEMENT_3D('',#945,#778,#779);
#603=AXIS2_PLACEMENT_3D('',#947,#780,#781);
#604=AXIS2_PLACEMENT_3D('',#948,#782,#783);
#605=AXIS2_PLACEMENT_3D('',#949,#784,#785);
#606=AXIS2_PLACEMENT_3D('',#951,#787,#788);
#607=AXIS2_PLACEMENT_3D('',#953,#789,#790);
#608=AXIS2_PLACEMENT_3D('',#954,#791,#792);
#609=AXIS2_PLACEMENT_3D('',#955,#793,#794);
#610=AXIS2_PLACEMENT_3D('',#957,#795,#796);
#611=AXIS2_PLACEMENT_3D('',#958,#797,#798);
#612=AXIS2_PLACEMENT_3D('',#959,#799,#800);
#613=AXIS2_PLACEMENT_3D('',#962,#802,#803);
#614=AXIS2_PLACEMENT_3D('',#963,#804,#805);
#615=AXIS2_PLACEMENT_3D('',#965,#806,#807);
#616=AXIS2_PLACEMENT_3D('',#967,#809,#810);
#617=AXIS2_PLACEMENT_3D('',#968,#811,#812);
#618=AXIS2_PLACEMENT_3D('',#969,#813,#814);
#619=AXIS2_PLACEMENT_3D('',#970,#815,#816);
#620=AXIS2_PLACEMENT_3D('',#971,#817,#818);
#621=AXIS2_PLACEMENT_3D('',#972,#819,#820);
#622=AXIS2_PLACEMENT_3D('',#973,#821,#822);
#623=AXIS2_PLACEMENT_3D('',#974,#823,#824);
#624=AXIS2_PLACEMENT_3D('',#975,#825,#826);
#625=DIRECTION('axis',(0.,0.,1.));
#626=DIRECTION('refdir',(1.,0.,0.));
#627=DIRECTION('axis',(0.,0.,1.));
#628=DIRECTION('refdir',(1.,0.,0.));
#629=DIRECTION('axis',(0.,0.,1.));
#630=DIRECTION('refdir',(1.,0.,0.));
#631=DIRECTION('center_axis',(-1.,0.,0.));
#632=DIRECTION('ref_axis',(0.,0.,1.));
#633=DIRECTION('center_axis',(1.,0.,0.));
#634=DIRECTION('ref_axis',(0.,0.,-1.));
#635=DIRECTION('',(-1.,0.,0.));
#636=DIRECTION('center_axis',(-1.,0.,0.));
#637=DIRECTION('ref_axis',(0.,0.,1.));
#638=DIRECTION('center_axis',(-1.,0.,0.));
#639=DIRECTION('ref_axis',(0.,0.,1.));
#640=DIRECTION('center_axis',(-1.,0.,0.));
#641=DIRECTION('ref_axis',(0.,0.,1.));
#642=DIRECTION('',(-1.,0.,0.));
#643=DIRECTION('center_axis',(1.,0.,0.));
#644=DIRECTION('ref_axis',(0.,0.,-1.));
#645=DIRECTION('center_axis',(-1.,0.,0.));
#646=DIRECTION('ref_axis',(0.,0.,1.));
#647=DIRECTION('center_axis',(1.,0.,0.));
#648=DIRECTION('ref_axis',(0.,0.,-1.));
#649=DIRECTION('',(1.,0.,0.));
#650=DIRECTION('center_axis',(1.,0.,0.));
#651=DIRECTION('ref_axis',(0.,0.,-1.));
#652=DIRECTION('center_axis',(1.,0.,0.));
#653=DIRECTION('ref_axis',(0.,1.,0.));
#654=DIRECTION('center_axis',(1.,0.,0.));
#655=DIRECTION('ref_axis',(0.,1.,0.));
#656=DIRECTION('center_axis',(-1.,0.,0.));
#657=DIRECTION('ref_axis',(0.,0.,1.));
#658=DIRECTION('center_axis',(1.,0.,0.));
#659=DIRECTION('ref_axis',(0.,0.,-1.));
#660=DIRECTION('',(-1.,0.,0.));
#661=DIRECTION('center_axis',(1.,0.,0.));
#662=DIRECTION('ref_axis',(0.,0.,-1.));
#663=DIRECTION('center_axis',(-1.,0.,0.));
#664=DIRECTION('ref_axis',(0.,0.,1.));
#665=DIRECTION('center_axis',(-1.,0.,0.));
#666=DIRECTION('ref_axis',(0.,0.,1.));
#667=DIRECTION('',(1.,0.,0.));
#668=DIRECTION('center_axis',(1.,0.,0.));
#669=DIRECTION('ref_axis',(0.,0.,-1.));
#670=DIRECTION('center_axis',(1.,0.,0.));
#671=DIRECTION('ref_axis',(0.,1.,0.));
#672=DIRECTION('center_axis',(1.,0.,0.));
#673=DIRECTION('ref_axis',(0.,0.,-1.));
#674=DIRECTION('center_axis',(1.,0.,0.));
#675=DIRECTION('ref_axis',(0.,0.,-1.));
#676=DIRECTION('center_axis',(-1.,0.,0.));
#677=DIRECTION('ref_axis',(0.,0.,1.));
#678=DIRECTION('center_axis',(-1.,0.,0.));
#679=DIRECTION('ref_axis',(0.,0.,1.));
#680=DIRECTION('center_axis',(1.,0.,0.));
#681=DIRECTION('ref_axis',(0.,0.,-1.));
#682=DIRECTION('center_axis',(1.,0.,0.));
#683=DIRECTION('ref_axis',(0.,0.,-1.));
#684=DIRECTION('',(-0.282577226344736,-1.17473577059549E-16,-0.959244552317769));
#685=DIRECTION('center_axis',(1.,0.,0.));
#686=DIRECTION('ref_axis',(0.,0.,-1.));
#687=DIRECTION('',(0.95924455231777,-3.46057295755012E-17,0.282577226344731));
#688=DIRECTION('center_axis',(1.,0.,0.));
#689=DIRECTION('ref_axis',(0.,0.,-1.));
#690=DIRECTION('center_axis',(1.,0.,0.));
#691=DIRECTION('ref_axis',(0.,0.,-1.));
#692=DIRECTION('',(-0.499999999999998,1.06057523872491E-16,-0.86602540378444));
#693=DIRECTION('center_axis',(1.,0.,0.));
#694=DIRECTION('ref_axis',(0.,0.,-1.));
#695=DIRECTION('center_axis',(1.,0.,0.));
#696=DIRECTION('ref_axis',(0.,0.,-1.));
#697=DIRECTION('',(-1.,0.,0.));
#698=DIRECTION('center_axis',(1.,0.,0.));
#699=DIRECTION('ref_axis',(0.,0.,-1.));
#700=DIRECTION('center_axis',(1.,0.,0.));
#701=DIRECTION('ref_axis',(0.,0.,-1.));
#702=DIRECTION('center_axis',(1.,0.,0.));
#703=DIRECTION('ref_axis',(0.,0.,-1.));
#704=DIRECTION('center_axis',(1.,0.,0.));
#705=DIRECTION('ref_axis',(0.,0.,-1.));
#706=DIRECTION('',(1.,0.,0.));
#707=DIRECTION('',(0.,0.,1.));
#708=DIRECTION('',(1.,0.,0.));
#709=DIRECTION('axis',(0.,0.,1.));
#710=DIRECTION('refdir',(1.,0.,0.));
#711=DIRECTION('axis',(0.,0.,1.));
#712=DIRECTION('refdir',(1.,0.,0.));
#713=DIRECTION('center_axis',(-1.,0.,0.));
#714=DIRECTION('ref_axis',(0.,0.,1.));
#715=DIRECTION('center_axis',(-1.,0.,0.));
#716=DIRECTION('ref_axis',(0.,0.,1.));
#717=DIRECTION('',(1.,0.,0.));
#718=DIRECTION('center_axis',(-1.,0.,0.));
#719=DIRECTION('ref_axis',(0.,0.,1.));
#720=DIRECTION('center_axis',(-1.,0.,0.));
#721=DIRECTION('ref_axis',(0.,0.,1.));
#722=DIRECTION('center_axis',(-1.,0.,0.));
#723=DIRECTION('ref_axis',(0.,0.,1.));
#724=DIRECTION('',(1.,0.,0.));
#725=DIRECTION('center_axis',(-1.,0.,0.));
#726=DIRECTION('ref_axis',(0.,0.,1.));
#727=DIRECTION('center_axis',(-1.,0.,0.));
#728=DIRECTION('ref_axis',(0.,0.,1.));
#729=DIRECTION('center_axis',(-1.,0.,0.));
#730=DIRECTION('ref_axis',(0.,0.,1.));
#731=DIRECTION('',(1.,0.,0.));
#732=DIRECTION('center_axis',(-1.,0.,0.));
#733=DIRECTION('ref_axis',(0.,0.,1.));
#734=DIRECTION('center_axis',(1.,0.,0.));
#735=DIRECTION('ref_axis',(0.,0.,1.));
#736=DIRECTION('center_axis',(-1.,0.,0.));
#737=DIRECTION('ref_axis',(0.,0.,1.));
#738=DIRECTION('center_axis',(0.,-1.,-1.22464679914735E-16));
#739=DIRECTION('ref_axis',(0.,1.22464679914735E-16,-1.));
#740=DIRECTION('center_axis',(1.,0.,0.));
#741=DIRECTION('ref_axis',(0.,0.,1.));
#742=DIRECTION('center_axis',(0.,-1.,-1.22464679914735E-16));
#743=DIRECTION('ref_axis',(0.,1.22464679914735E-16,-1.));
#744=DIRECTION('center_axis',(1.,0.,0.));
#745=DIRECTION('ref_axis',(0.,0.,1.));
#746=DIRECTION('center_axis',(0.,-1.,-1.22464679914735E-16));
#747=DIRECTION('ref_axis',(0.,1.22464679914735E-16,-1.));
#748=DIRECTION('center_axis',(-1.,0.,0.));
#749=DIRECTION('ref_axis',(0.,0.,1.));
#750=DIRECTION('',(1.,0.,0.));
#751=DIRECTION('center_axis',(1.,0.,0.));
#752=DIRECTION('ref_axis',(0.,0.,-1.));
#753=DIRECTION('center_axis',(1.,0.,0.));
#754=DIRECTION('ref_axis',(0.,0.,-1.));
#755=DIRECTION('center_axis',(-1.,0.,0.));
#756=DIRECTION('ref_axis',(0.,0.,1.));
#757=DIRECTION('center_axis',(1.,0.,0.));
#758=DIRECTION('ref_axis',(0.,0.,-1.));
#759=DIRECTION('center_axis',(1.,0.,0.));
#760=DIRECTION('ref_axis',(0.,0.,-1.));
#761=DIRECTION('',(1.,0.,0.));
#762=DIRECTION('center_axis',(-1.,0.,0.));
#763=DIRECTION('ref_axis',(0.,0.,1.));
#764=DIRECTION('center_axis',(-1.,0.,0.));
#765=DIRECTION('ref_axis',(0.,0.,1.));
#766=DIRECTION('center_axis',(-1.,0.,0.));
#767=DIRECTION('ref_axis',(0.,0.,1.));
#768=DIRECTION('center_axis',(0.,-1.,1.22464679914735E-16));
#769=DIRECTION('ref_axis',(0.,-1.22464679914735E-16,-1.));
#770=DIRECTION('center_axis',(-1.,0.,0.));
#771=DIRECTION('ref_axis',(0.,0.,1.));
#772=DIRECTION('center_axis',(-1.,0.,0.));
#773=DIRECTION('ref_axis',(0.,0.,1.));
#774=DIRECTION('center_axis',(-1.,0.,0.));
#775=DIRECTION('ref_axis',(0.,0.,1.));
#776=DIRECTION('center_axis',(-1.,0.,0.));
#777=DIRECTION('ref_axis',(0.,0.,1.));
#778=DIRECTION('center_axis',(0.,-1.,1.22464679914735E-16));
#779=DIRECTION('ref_axis',(0.,-1.22464679914735E-16,-1.));
#780=DIRECTION('center_axis',(1.,0.,0.));
#781=DIRECTION('ref_axis',(0.,0.,-1.));
#782=DIRECTION('center_axis',(1.,0.,0.));
#783=DIRECTION('ref_axis',(0.,0.,-1.));
#784=DIRECTION('center_axis',(-1.,0.,0.));
#785=DIRECTION('ref_axis',(0.,0.,1.));
#786=DIRECTION('',(-1.,0.,0.));
#787=DIRECTION('center_axis',(-1.,0.,0.));
#788=DIRECTION('ref_axis',(0.,0.,1.));
#789=DIRECTION('center_axis',(0.,1.,-1.22464679914735E-16));
#790=DIRECTION('ref_axis',(0.,-1.22464679914735E-16,-1.));
#791=DIRECTION('center_axis',(-1.,0.,0.));
#792=DIRECTION('ref_axis',(0.,0.,1.));
#793=DIRECTION('center_axis',(-1.,0.,0.));
#794=DIRECTION('ref_axis',(0.,0.,1.));
#795=DIRECTION('center_axis',(-1.,0.,0.));
#796=DIRECTION('ref_axis',(0.,0.,1.));
#797=DIRECTION('center_axis',(0.,1.,-1.22464679914735E-16));
#798=DIRECTION('ref_axis',(0.,-1.22464679914735E-16,-1.));
#799=DIRECTION('center_axis',(-1.,0.,0.));
#800=DIRECTION('ref_axis',(0.,0.,1.));
#801=DIRECTION('',(1.,0.,0.));
#802=DIRECTION('center_axis',(-1.,0.,0.));
#803=DIRECTION('ref_axis',(0.,0.,1.));
#804=DIRECTION('center_axis',(-1.,0.,0.));
#805=DIRECTION('ref_axis',(0.,0.,1.));
#806=DIRECTION('center_axis',(-1.,0.,0.));
#807=DIRECTION('ref_axis',(0.,0.,1.));
#808=DIRECTION('',(1.,0.,0.));
#809=DIRECTION('center_axis',(-1.,0.,0.));
#810=DIRECTION('ref_axis',(0.,0.,1.));
#811=DIRECTION('center_axis',(0.,1.,-1.22464679914735E-16));
#812=DIRECTION('ref_axis',(0.,-1.22464679914735E-16,-1.));
#813=DIRECTION('center_axis',(1.,0.,0.));
#814=DIRECTION('ref_axis',(0.,0.,-1.));
#815=DIRECTION('center_axis',(0.,-1.,-1.22464679914735E-16));
#816=DIRECTION('ref_axis',(0.,-1.22464679914735E-16,1.));
#817=DIRECTION('center_axis',(1.,0.,0.));
#818=DIRECTION('ref_axis',(0.,0.,-1.));
#819=DIRECTION('center_axis',(0.,-1.,-1.22464679914735E-16));
#820=DIRECTION('ref_axis',(0.,-1.22464679914735E-16,1.));
#821=DIRECTION('',(0.,0.,1.));
#822=DIRECTION('',(1.,0.,0.));
#823=DIRECTION('',(0.,0.,1.));
#824=DIRECTION('',(1.,0.,0.));
#825=DIRECTION('',(0.,0.,1.));
#826=DIRECTION('',(1.,0.,0.));
#827=CARTESIAN_POINT('',(0.,0.,0.));
#828=CARTESIAN_POINT('',(0.,0.,0.));
#829=CARTESIAN_POINT('',(0.,0.,0.));
#830=CARTESIAN_POINT('Origin',(0.021,0.,3.24531401774048E-18));
#831=CARTESIAN_POINT('',(0.021,0.,-0.053));
#832=CARTESIAN_POINT('Origin',(0.021,0.,3.24531401774048E-18));
#833=CARTESIAN_POINT('',(0.018,-6.49062803548097E-18,-0.053));
#834=CARTESIAN_POINT('',(0.021,-6.49062803548097E-18,-0.053));
#835=CARTESIAN_POINT('Origin',(0.018,0.,3.24531401774048E-18));
#836=CARTESIAN_POINT('Origin',(0.021,0.,3.24531401774048E-18));
#837=CARTESIAN_POINT('',(-0.02,-6.49062803548097E-18,-0.053));
#838=CARTESIAN_POINT('Origin',(-0.02,0.,1.07156594925393E-18));
#839=CARTESIAN_POINT('',(-0.021,0.,-0.053));
#840=CARTESIAN_POINT('',(0.021,-6.49062803548097E-18,-0.053));
#841=CARTESIAN_POINT('Origin',(-0.021,0.,3.24531401774048E-18));
#842=CARTESIAN_POINT('Origin',(0.021,0.,3.36777869765522E-18));
#843=CARTESIAN_POINT('',(-0.021,0.,-0.055));
#844=CARTESIAN_POINT('Origin',(-0.021,0.,3.36777869765522E-18));
#845=CARTESIAN_POINT('',(0.021,0.,-0.055));
#846=CARTESIAN_POINT('',(0.021,-6.73555739531044E-18,-0.055));
#847=CARTESIAN_POINT('Origin',(0.021,0.,3.36777869765522E-18));
#848=CARTESIAN_POINT('Origin',(0.021,0.,0.));
#849=CARTESIAN_POINT('Origin',(-0.021,0.,0.));
#850=CARTESIAN_POINT('Origin',(0.029,0.,3.9801020972289E-19));
#851=CARTESIAN_POINT('',(0.029,0.,-0.0065));
#852=CARTESIAN_POINT('Origin',(0.029,0.,3.9801020972289E-19));
#853=CARTESIAN_POINT('',(-0.01,0.,-0.0065));
#854=CARTESIAN_POINT('',(0.029,-7.9602041944578E-19,-0.0065));
#855=CARTESIAN_POINT('Origin',(-0.01,0.,1.07156594925393E-18));
#856=CARTESIAN_POINT('Origin',(0.029,0.,1.07156594925393E-18));
#857=CARTESIAN_POINT('',(0.018,-2.14313189850787E-18,-0.0175));
#858=CARTESIAN_POINT('Origin',(0.018,0.,1.07156594925393E-18));
#859=CARTESIAN_POINT('',(0.029,0.,-0.0175));
#860=CARTESIAN_POINT('',(0.029,-2.14313189850787E-18,-0.0175));
#861=CARTESIAN_POINT('Origin',(0.029,0.,1.07156594925393E-18));
#862=CARTESIAN_POINT('Origin',(0.029,0.,0.));
#863=CARTESIAN_POINT('Origin',(-0.01,0.,0.01325));
#864=CARTESIAN_POINT('',(-0.01,-2.44929359829471E-18,0.02));
#865=CARTESIAN_POINT('Origin',(-0.01,0.,1.07156594925393E-18));
#866=CARTESIAN_POINT('Origin',(0.018,0.,0.02975));
#867=CARTESIAN_POINT('Origin',(-0.02,0.,1.07156594925393E-18));
#868=CARTESIAN_POINT('',(-0.0135239102533818,0.,-0.0310160846996713));
#869=CARTESIAN_POINT('',(-0.0135239102533818,-3.79837488495357E-18,0.0310160846996713));
#870=CARTESIAN_POINT('Origin',(-0.0135239102533818,0.,1.07156594925393E-18));
#871=CARTESIAN_POINT('Origin',(-0.0135239102533818,0.,1.07156594925393E-18));
#872=CARTESIAN_POINT('',(-0.02,-6.49062803548097E-18,-0.053));
#873=CARTESIAN_POINT('Origin',(-0.0135239102533818,0.,1.07156594925393E-18));
#874=CARTESIAN_POINT('',(-0.011881197846483,-3.85763741731416E-18,0.0315));
#875=CARTESIAN_POINT('',(-0.0135239102533818,-3.79837488495357E-18,0.0310160846996713));
#876=CARTESIAN_POINT('Origin',(-0.011881197846483,0.,1.07156594925393E-18));
#877=CARTESIAN_POINT('Origin',(-0.0165,0.,1.07156594925393E-18));
#878=CARTESIAN_POINT('',(-0.0165,-2.87791997799628E-18,0.0235));
#879=CARTESIAN_POINT('',(-0.0165,-2.87791997799628E-18,0.0235));
#880=CARTESIAN_POINT('Origin',(-0.0165,0.,1.07156594925393E-18));
#881=CARTESIAN_POINT('Origin',(0.0145,0.,1.07156594925393E-18));
#882=CARTESIAN_POINT('',(-0.017,-2.87791997799628E-18,0.0235));
#883=CARTESIAN_POINT('',(0.0145,-2.87791997799628E-18,0.0235));
#884=CARTESIAN_POINT('Origin',(-0.017,0.,1.07156594925393E-18));
#885=CARTESIAN_POINT('Origin',(-0.017,0.,0.02175));
#886=CARTESIAN_POINT('',(-0.017,-2.44929359829471E-18,0.02));
#887=CARTESIAN_POINT('Origin',(-0.017,0.,1.07156594925393E-18));
#888=CARTESIAN_POINT('Origin',(0.0145,0.,1.07156594925393E-18));
#889=CARTESIAN_POINT('',(0.0145,-2.44929359829471E-18,0.02));
#890=CARTESIAN_POINT('',(0.,0.,0.));
#891=CARTESIAN_POINT('',(0.,0.,0.));
#892=CARTESIAN_POINT('',(0.,0.,0.));
#893=CARTESIAN_POINT('Origin',(0.00762629648670554,0.,0.));
#894=CARTESIAN_POINT('',(0.0105,-9.18485099360515E-18,-0.075));
#895=CARTESIAN_POINT('Origin',(0.0105,0.,0.));
#896=CARTESIAN_POINT('',(0.0135,-9.18485099360515E-18,-0.075));
#897=CARTESIAN_POINT('',(0.00762629648670554,-9.18485099360515E-18,-0.075));
#898=CARTESIAN_POINT('Origin',(0.0135,0.,0.));
#899=CARTESIAN_POINT('Origin',(0.00762629648670554,0.,0.));
#900=CARTESIAN_POINT('',(0.0045,-9.18485099360515E-18,-0.075));
#901=CARTESIAN_POINT('Origin',(0.0045,0.,0.));
#902=CARTESIAN_POINT('',(0.0075,-9.18485099360515E-18,-0.075));
#903=CARTESIAN_POINT('',(0.00762629648670554,-9.18485099360515E-18,-0.075));
#904=CARTESIAN_POINT('Origin',(0.0075,0.,0.));
#905=CARTESIAN_POINT('Origin',(0.00762629648670554,0.,0.));
#906=CARTESIAN_POINT('',(-0.0015,-9.18485099360515E-18,-0.075));
#907=CARTESIAN_POINT('Origin',(-0.0015,0.,0.));
#908=CARTESIAN_POINT('',(0.0015,-9.18485099360515E-18,-0.075));
#909=CARTESIAN_POINT('',(0.00762629648670554,-9.18485099360515E-18,-0.075));
#910=CARTESIAN_POINT('Origin',(0.0015,0.,0.));
#911=CARTESIAN_POINT('Origin',(0.015,0.,0.));
#912=CARTESIAN_POINT('',(0.0165,9.18485099360515E-18,-0.075));
#913=CARTESIAN_POINT('Origin',(0.0165,0.,0.));
#914=CARTESIAN_POINT('Origin',(0.015,9.30808107776935E-18,-0.07600625));
#915=CARTESIAN_POINT('Origin',(0.009,0.,0.));
#916=CARTESIAN_POINT('Origin',(0.009,9.30808107776935E-18,-0.07600625));
#917=CARTESIAN_POINT('Origin',(0.003,0.,0.));
#918=CARTESIAN_POINT('Origin',(0.003,9.30808107776935E-18,-0.07600625));
#919=CARTESIAN_POINT('Origin',(0.00762629648670554,0.,0.));
#920=CARTESIAN_POINT('',(0.0174813792900975,0.,-0.075));
#921=CARTESIAN_POINT('',(0.00762629648670554,-9.18485099360515E-18,-0.075));
#922=CARTESIAN_POINT('',(0.0174813792900975,-9.18485099360515E-18,0.075));
#923=CARTESIAN_POINT('Origin',(0.0174813792900975,0.,0.));
#924=CARTESIAN_POINT('Origin',(0.0174813792900975,0.,0.));
#925=CARTESIAN_POINT('Origin',(0.00762629648670554,0.,0.));
#926=CARTESIAN_POINT('',(-0.0174813792900975,0.,-0.075));
#927=CARTESIAN_POINT('',(-0.0174813792900975,-9.18485099360515E-18,0.075));
#928=CARTESIAN_POINT('Origin',(-0.0174813792900975,0.,0.));
#929=CARTESIAN_POINT('Origin',(-0.0174813792900975,0.,0.));
#930=CARTESIAN_POINT('',(-0.0165,-9.18485099360515E-18,-0.075));
#931=CARTESIAN_POINT('',(0.00762629648670554,-9.18485099360515E-18,-0.075));
#932=CARTESIAN_POINT('Origin',(-0.0165,0.,0.));
#933=CARTESIAN_POINT('Origin',(-0.0295,0.,0.));
#934=CARTESIAN_POINT('',(0.020448624297893,0.,0.0724421052631579));
#935=CARTESIAN_POINT('',(0.020448624297893,-8.8715992334022E-18,-0.0724421052631579));
#936=CARTESIAN_POINT('Origin',(0.020448624297893,0.,0.));
#937=CARTESIAN_POINT('',(0.02,-6.73555739531044E-18,-0.055));
#938=CARTESIAN_POINT('Origin',(-0.0295,-7.9602041944578E-18,-0.065));
#939=CARTESIAN_POINT('Origin',(0.02,0.,0.));
#940=CARTESIAN_POINT('Origin',(0.020448624297893,0.,0.));
#941=CARTESIAN_POINT('Origin',(0.0295,0.,0.));
#942=CARTESIAN_POINT('',(-0.02,-6.73555739531044E-18,-0.055));
#943=CARTESIAN_POINT('Origin',(-0.02,0.,0.));
#944=CARTESIAN_POINT('',(-0.020448624297893,0.,-0.0724421052631579));
#945=CARTESIAN_POINT('Origin',(0.0295,-7.9602041944578E-18,-0.065));
#946=CARTESIAN_POINT('',(-0.020448624297893,-8.8715992334022E-18,0.0724421052631579));
#947=CARTESIAN_POINT('Origin',(-0.020448624297893,0.,0.));
#948=CARTESIAN_POINT('Origin',(-0.020448624297893,0.,0.));
#949=CARTESIAN_POINT('Origin',(0.00762629648670554,0.,0.));
#950=CARTESIAN_POINT('',(0.00762629648670554,-6.73555739531044E-18,-0.055));
#951=CARTESIAN_POINT('Origin',(-0.015,0.,0.));
#952=CARTESIAN_POINT('',(-0.0135,-9.18485099360515E-18,-0.075));
#953=CARTESIAN_POINT('Origin',(-0.015,-9.30808107776935E-18,-0.07600625));
#954=CARTESIAN_POINT('Origin',(-0.0135,0.,0.));
#955=CARTESIAN_POINT('Origin',(-0.003,0.,0.));
#956=CARTESIAN_POINT('',(-0.0045,-9.18485099360515E-18,-0.075));
#957=CARTESIAN_POINT('Origin',(-0.0045,0.,0.));
#958=CARTESIAN_POINT('Origin',(-0.003,-9.30808107776935E-18,-0.07600625));
#959=CARTESIAN_POINT('Origin',(0.00762629648670554,0.,0.));
#960=CARTESIAN_POINT('',(-0.0105,-9.18485099360515E-18,-0.075));
#961=CARTESIAN_POINT('',(0.00762629648670554,-9.18485099360515E-18,-0.075));
#962=CARTESIAN_POINT('Origin',(-0.0105,0.,0.));
#963=CARTESIAN_POINT('Origin',(0.00762629648670554,0.,0.));
#964=CARTESIAN_POINT('',(-0.0075,-9.18485099360515E-18,-0.075));
#965=CARTESIAN_POINT('Origin',(-0.0075,0.,0.));
#966=CARTESIAN_POINT('',(0.00762629648670554,-9.18485099360515E-18,-0.075));
#967=CARTESIAN_POINT('Origin',(-0.009,0.,0.));
#968=CARTESIAN_POINT('Origin',(-0.009,-9.30808107776935E-18,-0.07600625));
#969=CARTESIAN_POINT('Origin',(0.0174813792900975,0.,0.));
#970=CARTESIAN_POINT('Origin',(0.0174813792900975,-8.81745695386094E-18,
0.072));
#971=CARTESIAN_POINT('Origin',(-0.0174813792900975,0.,0.));
#972=CARTESIAN_POINT('Origin',(-0.0174813792900975,-8.81745695386094E-18,
0.072));
#973=CARTESIAN_POINT('',(0.,0.,0.));
#974=CARTESIAN_POINT('',(0.,0.,0.));
#975=CARTESIAN_POINT('',(0.,0.,0.));
#976=UNCERTAINTY_MEASURE_WITH_UNIT(LENGTH_MEASURE(1.E-5),#988,
'DISTANCE_ACCURACY_VALUE',
'Maximum model space distance between geometric entities at asserted c
onnectivities');
#977=UNCERTAINTY_MEASURE_WITH_UNIT(LENGTH_MEASURE(1.E-5),#988,
'DISTANCE_ACCURACY_VALUE',
'Maximum model space distance between geometric entities at asserted c
onnectivities');
#978=UNCERTAINTY_MEASURE_WITH_UNIT(LENGTH_MEASURE(1.E-5),#988,
'DISTANCE_ACCURACY_VALUE',
'Maximum model space distance between geometric entities at asserted c
onnectivities');
#979=UNCERTAINTY_MEASURE_WITH_UNIT(LENGTH_MEASURE(1.E-5),#988,
'DISTANCE_ACCURACY_VALUE',
'Maximum model space distance between geometric entities at asserted c
onnectivities');
#980=UNCERTAINTY_MEASURE_WITH_UNIT(LENGTH_MEASURE(1.E-5),#988,
'DISTANCE_ACCURACY_VALUE',
'Maximum model space distance between geometric entities at asserted c
onnectivities');
#981=UNCERTAINTY_MEASURE_WITH_UNIT(LENGTH_MEASURE(1.E-5),#988,
'DISTANCE_ACCURACY_VALUE',
'Maximum model space distance between geometric entities at asserted c
onnectivities');
#982=(
GEOMETRIC_REPRESENTATION_CONTEXT(3)
GLOBAL_UNCERTAINTY_ASSIGNED_CONTEXT((#976))
GLOBAL_UNIT_ASSIGNED_CONTEXT((#988,#989,#990))
REPRESENTATION_CONTEXT('','3D')
);
#983=(
GEOMETRIC_REPRESENTATION_CONTEXT(3)
GLOBAL_UNCERTAINTY_ASSIGNED_CONTEXT((#977))
GLOBAL_UNIT_ASSIGNED_CONTEXT((#988,#989,#990))
REPRESENTATION_CONTEXT('','3D')
);
#984=(
GEOMETRIC_REPRESENTATION_CONTEXT(3)
GLOBAL_UNCERTAINTY_ASSIGNED_CONTEXT((#978))
GLOBAL_UNIT_ASSIGNED_CONTEXT((#988,#989,#990))
REPRESENTATION_CONTEXT('','3D')
);
#985=(
GEOMETRIC_REPRESENTATION_CONTEXT(3)
GLOBAL_UNCERTAINTY_ASSIGNED_CONTEXT((#979))
GLOBAL_UNIT_ASSIGNED_CONTEXT((#988,#989,#990))
REPRESENTATION_CONTEXT('','3D')
);
#986=(
GEOMETRIC_REPRESENTATION_CONTEXT(3)
GLOBAL_UNCERTAINTY_ASSIGNED_CONTEXT((#980))
GLOBAL_UNIT_ASSIGNED_CONTEXT((#988,#989,#990))
REPRESENTATION_CONTEXT('','3D')
);
#987=(
GEOMETRIC_REPRESENTATION_CONTEXT(3)
GLOBAL_UNCERTAINTY_ASSIGNED_CONTEXT((#981))
GLOBAL_UNIT_ASSIGNED_CONTEXT((#988,#989,#990))
REPRESENTATION_CONTEXT('','3D')
);
#988=(
LENGTH_UNIT()
NAMED_UNIT(*)
SI_UNIT($,.METRE.)
);
#989=(
NAMED_UNIT(*)
PLANE_ANGLE_UNIT()
SI_UNIT($,.RADIAN.)
);
#990=(
NAMED_UNIT(*)
SI_UNIT($,.STERADIAN.)
SOLID_ANGLE_UNIT()
);
#991=SHAPE_DEFINITION_REPRESENTATION(#996,#1005);
#992=SHAPE_DEFINITION_REPRESENTATION(#997,#1006);
#993=SHAPE_DEFINITION_REPRESENTATION(#998,#1007);
#994=SHAPE_DEFINITION_REPRESENTATION(#1000,#1008);
#995=SHAPE_DEFINITION_REPRESENTATION(#1001,#1009);
#996=PRODUCT_DEFINITION_SHAPE('',$,#1011);
#997=PRODUCT_DEFINITION_SHAPE('',$,#1012);
#998=PRODUCT_DEFINITION_SHAPE('',$,#1013);
#999=PRODUCT_DEFINITION_SHAPE($,$,#33);
#1000=PRODUCT_DEFINITION_SHAPE('',$,#1014);
#1001=PRODUCT_DEFINITION_SHAPE('',$,#1015);
#1002=PRODUCT_DEFINITION_SHAPE($,$,#34);
#1003=PRODUCT_DEFINITION_SHAPE($,$,#35);
#1004=PRODUCT_DEFINITION_SHAPE($,$,#36);
#1005=SHAPE_REPRESENTATION('',(#533,#623,#624),#982);
#1006=SHAPE_REPRESENTATION('',(#534,#569),#983);
#1007=SHAPE_REPRESENTATION('',(#535),#984);
#1008=SHAPE_REPRESENTATION('',(#570,#622),#985);
#1009=SHAPE_REPRESENTATION('',(#571),#986);
#1010=PRODUCT_DEFINITION_CONTEXT('part definition',#1027,'design');
#1011=PRODUCT_DEFINITION('Mower wheel 150mm','Mower wheel 150mm v1',#1016,
#1010);
#1012=PRODUCT_DEFINITION('Rim','Rim',#1017,#1010);
#1013=PRODUCT_DEFINITION('Component3','Component3',#1018,#1010);
#1014=PRODUCT_DEFINITION('Tyre','Tyre',#1019,#1010);
#1015=PRODUCT_DEFINITION('Component4','Component4',#1020,#1010);
#1016=PRODUCT_DEFINITION_FORMATION('',$,#1029);
#1017=PRODUCT_DEFINITION_FORMATION('',$,#1030);
#1018=PRODUCT_DEFINITION_FORMATION('',$,#1031);
#1019=PRODUCT_DEFINITION_FORMATION('',$,#1032);
#1020=PRODUCT_DEFINITION_FORMATION('',$,#1033);
#1021=PRODUCT_RELATED_PRODUCT_CATEGORY('Mower wheel 150mm v1',
'Mower wheel 150mm v1',(#1029));
#1022=PRODUCT_RELATED_PRODUCT_CATEGORY('Rim','Rim',(#1030));
#1023=PRODUCT_RELATED_PRODUCT_CATEGORY('Component3','Component3',(#1031));
#1024=PRODUCT_RELATED_PRODUCT_CATEGORY('Tyre','Tyre',(#1032));
#1025=PRODUCT_RELATED_PRODUCT_CATEGORY('Component4','Component4',(#1033));
#1026=APPLICATION_PROTOCOL_DEFINITION('international standard',
'automotive_design',2009,#1027);
#1027=APPLICATION_CONTEXT(
'Core Data for Automotive Mechanical Design Process');
#1028=PRODUCT_CONTEXT('part definition',#1027,'mechanical');
#1029=PRODUCT('Mower wheel 150mm','Mower wheel 150mm v1','STEP AP214',(#1028));
#1030=PRODUCT('Rim','Rim','Rim',(#1028));
#1031=PRODUCT('Component3','Component3',$,(#1028));
#1032=PRODUCT('Tyre','Tyre','Tyre',(#1028));
#1033=PRODUCT('Component4','Component4',$,(#1028));
#1034=PRESENTATION_STYLE_ASSIGNMENT((#1037));
#1035=PRESENTATION_STYLE_ASSIGNMENT((#1038));
#1036=PRESENTATION_STYLE_ASSIGNMENT((#1039));
#1037=SURFACE_STYLE_USAGE(.BOTH.,#1040);
#1038=SURFACE_STYLE_USAGE(.BOTH.,#1041);
#1039=SURFACE_STYLE_USAGE(.BOTH.,#1042);
#1040=SURFACE_SIDE_STYLE('',(#1043));
#1041=SURFACE_SIDE_STYLE('',(#1044));
#1042=SURFACE_SIDE_STYLE('',(#1045));
#1043=SURFACE_STYLE_FILL_AREA(#1046);
#1044=SURFACE_STYLE_FILL_AREA(#1047);
#1045=SURFACE_STYLE_FILL_AREA(#1048);
#1046=FILL_AREA_STYLE('Steel - Satin',(#1049));
#1047=FILL_AREA_STYLE('Opaque(234,234,234)',(#1050));
#1048=FILL_AREA_STYLE('Opaque(102,102,102)',(#1051));
#1049=FILL_AREA_STYLE_COLOUR('Steel - Satin',#1052);
#1050=FILL_AREA_STYLE_COLOUR('Opaque(234,234,234)',#1053);
#1051=FILL_AREA_STYLE_COLOUR('Opaque(102,102,102)',#1054);
#1052=COLOUR_RGB('Steel - Satin',0.627450980392157,0.627450980392157,0.627450980392157);
#1053=COLOUR_RGB('Opaque(234,234,234)',0.917647058823529,0.917647058823529,
0.917647058823529);
#1054=COLOUR_RGB('Opaque(102,102,102)',0.4,0.4,0.4);
ENDSEC;
END-ISO-10303-21;
