ISO-10303-21;
HEADER;
/* Generated by software containing ST-Developer
 * from STEP Tools, Inc. (www.steptools.com) 
 */

FILE_DESCRIPTION(
/* description */ (''),
/* implementation_level */ '2;1');

FILE_NAME(
/* name */ 'sprinkler.step',
/* time_stamp */ '2026-03-10T07:20:24+05:30',
/* author */ (''),
/* organization */ (''),
/* preprocessor_version */ 'ST-DEVELOPER v20.1',
/* originating_system */ 'Autodesk Translation Framework v14.21.0.0',
/* authorisation */ '');

FILE_SCHEMA (('AUTOMOTIVE_DESIGN { 1 0 10303 214 3 1 1 }'));
ENDSEC;

DATA;
#10=MECHANICAL_DESIGN_GEOMETRIC_PRESENTATION_REPRESENTATION('',(#13),#553);
#11=SHAPE_REPRESENTATION_RELATIONSHIP('SRR','None',#560,#12);
#12=ADVANCED_BREP_SHAPE_REPRESENTATION('',(#14),#552);
#13=STYLED_ITEM('',(#569),#14);
#14=MANIFOLD_SOLID_BREP('Body1',#272);
#15=FACE_BOUND('',#96,.T.);
#16=FACE_BOUND('',#97,.T.);
#17=FACE_BOUND('',#98,.T.);
#18=FACE_BOUND('',#99,.T.);
#19=FACE_BOUND('',#100,.T.);
#20=FACE_BOUND('',#101,.T.);
#21=FACE_BOUND('',#102,.T.);
#22=FACE_BOUND('',#103,.T.);
#23=FACE_BOUND('',#105,.T.);
#24=B_SPLINE_CURVE_WITH_KNOTS('',3,(#484,#485,#486,#487,#488,#489,#490,
#491,#492,#493,#494,#495,#496,#497,#498,#499,#500,#501,#502,#503,#504,#505,
#506,#507,#508,#509,#510,#511,#512,#513),.UNSPECIFIED.,.F.,.F.,(4,2,2,2,
2,2,2,2,2,2,2,2,2,2,4),(0.,0.324388645529333,0.648777291058665,0.973165936587998,
1.29755458211733,1.87486918772294,2.16352649052574,2.45218379332854,2.74084109613134,
3.02949839893415,3.60681300453975,3.93120165006908,4.25559029559842,4.57997894112775,
4.90436758665708),.UNSPECIFIED.);
#25=B_SPLINE_CURVE_WITH_KNOTS('',3,(#514,#515,#516,#517,#518,#519,#520,
#521,#522,#523,#524,#525,#526,#527,#528,#529,#530,#531,#532,#533,#534,#535,
#536,#537,#538,#539,#540,#541,#542,#543),.UNSPECIFIED.,.F.,.F.,(4,2,2,2,
2,2,2,2,2,2,2,2,2,2,4),(4.90436758665708,5.22875623218641,5.55314487771575,
5.87753352324508,6.20192216877441,6.77923677438002,7.06789407718282,7.35655137998562,
7.64520868278843,7.93386598559123,8.51118059119683,8.83556923672617,9.1599578822555,
9.48434652778483,9.80873517331416),.UNSPECIFIED.);
#26=LINE('',#426,#36);
#27=LINE('',#433,#37);
#28=LINE('',#440,#38);
#29=LINE('',#447,#39);
#30=LINE('',#454,#40);
#31=LINE('',#461,#41);
#32=LINE('',#468,#42);
#33=LINE('',#475,#43);
#34=LINE('',#482,#44);
#35=LINE('',#548,#45);
#36=VECTOR('',#336,2.00000002980232);
#37=VECTOR('',#345,2.82842716689304);
#38=VECTOR('',#354,2.82842716689304);
#39=VECTOR('',#363,2.2360680108198);
#40=VECTOR('',#372,2.2360680108198);
#41=VECTOR('',#381,2.00000002980232);
#42=VECTOR('',#390,2.2360680108198);
#43=VECTOR('',#399,2.73784230648414);
#44=VECTOR('',#408,14.142135623731);
#45=VECTOR('',#415,15.);
#46=CYLINDRICAL_SURFACE('',#288,2.00000002980232);
#47=CYLINDRICAL_SURFACE('',#292,2.82842716689304);
#48=CYLINDRICAL_SURFACE('',#296,2.82842716689304);
#49=CYLINDRICAL_SURFACE('',#300,2.2360680108198);
#50=CYLINDRICAL_SURFACE('',#304,2.2360680108198);
#51=CYLINDRICAL_SURFACE('',#308,2.00000002980232);
#52=CYLINDRICAL_SURFACE('',#312,2.2360680108198);
#53=CYLINDRICAL_SURFACE('',#316,2.73784230648414);
#54=CYLINDRICAL_SURFACE('',#320,14.142135623731);
#55=CYLINDRICAL_SURFACE('',#323,15.);
#56=FACE_OUTER_BOUND('',#77,.T.);
#57=FACE_OUTER_BOUND('',#78,.T.);
#58=FACE_OUTER_BOUND('',#79,.T.);
#59=FACE_OUTER_BOUND('',#80,.T.);
#60=FACE_OUTER_BOUND('',#81,.T.);
#61=FACE_OUTER_BOUND('',#82,.T.);
#62=FACE_OUTER_BOUND('',#83,.T.);
#63=FACE_OUTER_BOUND('',#84,.T.);
#64=FACE_OUTER_BOUND('',#85,.T.);
#65=FACE_OUTER_BOUND('',#86,.T.);
#66=FACE_OUTER_BOUND('',#87,.T.);
#67=FACE_OUTER_BOUND('',#88,.T.);
#68=FACE_OUTER_BOUND('',#89,.T.);
#69=FACE_OUTER_BOUND('',#90,.T.);
#70=FACE_OUTER_BOUND('',#91,.T.);
#71=FACE_OUTER_BOUND('',#92,.T.);
#72=FACE_OUTER_BOUND('',#93,.T.);
#73=FACE_OUTER_BOUND('',#94,.T.);
#74=FACE_OUTER_BOUND('',#95,.T.);
#75=FACE_OUTER_BOUND('',#104,.T.);
#76=FACE_OUTER_BOUND('',#106,.T.);
#77=EDGE_LOOP('',(#178));
#78=EDGE_LOOP('',(#179,#180,#181,#182));
#79=EDGE_LOOP('',(#183));
#80=EDGE_LOOP('',(#184,#185,#186,#187));
#81=EDGE_LOOP('',(#188));
#82=EDGE_LOOP('',(#189,#190,#191,#192));
#83=EDGE_LOOP('',(#193));
#84=EDGE_LOOP('',(#194,#195,#196,#197));
#85=EDGE_LOOP('',(#198));
#86=EDGE_LOOP('',(#199,#200,#201,#202));
#87=EDGE_LOOP('',(#203));
#88=EDGE_LOOP('',(#204,#205,#206,#207));
#89=EDGE_LOOP('',(#208));
#90=EDGE_LOOP('',(#209,#210,#211,#212));
#91=EDGE_LOOP('',(#213));
#92=EDGE_LOOP('',(#214,#215,#216,#217));
#93=EDGE_LOOP('',(#218));
#94=EDGE_LOOP('',(#219,#220,#221,#222,#223));
#95=EDGE_LOOP('',(#224));
#96=EDGE_LOOP('',(#225));
#97=EDGE_LOOP('',(#226));
#98=EDGE_LOOP('',(#227));
#99=EDGE_LOOP('',(#228));
#100=EDGE_LOOP('',(#229));
#101=EDGE_LOOP('',(#230));
#102=EDGE_LOOP('',(#231));
#103=EDGE_LOOP('',(#232));
#104=EDGE_LOOP('',(#233,#234,#235,#236));
#105=EDGE_LOOP('',(#237,#238));
#106=EDGE_LOOP('',(#239));
#107=CIRCLE('',#287,15.);
#108=CIRCLE('',#289,2.00000002980232);
#109=CIRCLE('',#290,2.00000002980232);
#110=CIRCLE('',#293,2.82842716689304);
#111=CIRCLE('',#294,2.82842716689304);
#112=CIRCLE('',#297,2.82842716689304);
#113=CIRCLE('',#298,2.82842716689304);
#114=CIRCLE('',#301,2.2360680108198);
#115=CIRCLE('',#302,2.2360680108198);
#116=CIRCLE('',#305,2.2360680108198);
#117=CIRCLE('',#306,2.2360680108198);
#118=CIRCLE('',#309,2.00000002980232);
#119=CIRCLE('',#310,2.00000002980232);
#120=CIRCLE('',#313,2.2360680108198);
#121=CIRCLE('',#314,2.2360680108198);
#122=CIRCLE('',#317,2.73784230648414);
#123=CIRCLE('',#318,2.73784230648414);
#124=CIRCLE('',#321,14.142135623731);
#125=CIRCLE('',#324,15.);
#126=VERTEX_POINT('',#420);
#127=VERTEX_POINT('',#423);
#128=VERTEX_POINT('',#425);
#129=VERTEX_POINT('',#430);
#130=VERTEX_POINT('',#432);
#131=VERTEX_POINT('',#437);
#132=VERTEX_POINT('',#439);
#133=VERTEX_POINT('',#444);
#134=VERTEX_POINT('',#446);
#135=VERTEX_POINT('',#451);
#136=VERTEX_POINT('',#453);
#137=VERTEX_POINT('',#458);
#138=VERTEX_POINT('',#460);
#139=VERTEX_POINT('',#465);
#140=VERTEX_POINT('',#467);
#141=VERTEX_POINT('',#472);
#142=VERTEX_POINT('',#474);
#143=VERTEX_POINT('',#479);
#144=VERTEX_POINT('',#481);
#145=VERTEX_POINT('',#483);
#146=VERTEX_POINT('',#546);
#147=EDGE_CURVE('',#126,#126,#107,.T.);
#148=EDGE_CURVE('',#127,#127,#108,.T.);
#149=EDGE_CURVE('',#127,#128,#26,.T.);
#150=EDGE_CURVE('',#128,#128,#109,.T.);
#151=EDGE_CURVE('',#129,#129,#110,.T.);
#152=EDGE_CURVE('',#129,#130,#27,.T.);
#153=EDGE_CURVE('',#130,#130,#111,.T.);
#154=EDGE_CURVE('',#131,#131,#112,.T.);
#155=EDGE_CURVE('',#131,#132,#28,.T.);
#156=EDGE_CURVE('',#132,#132,#113,.T.);
#157=EDGE_CURVE('',#133,#133,#114,.T.);
#158=EDGE_CURVE('',#133,#134,#29,.T.);
#159=EDGE_CURVE('',#134,#134,#115,.T.);
#160=EDGE_CURVE('',#135,#135,#116,.T.);
#161=EDGE_CURVE('',#135,#136,#30,.T.);
#162=EDGE_CURVE('',#136,#136,#117,.T.);
#163=EDGE_CURVE('',#137,#137,#118,.T.);
#164=EDGE_CURVE('',#137,#138,#31,.T.);
#165=EDGE_CURVE('',#138,#138,#119,.T.);
#166=EDGE_CURVE('',#139,#139,#120,.T.);
#167=EDGE_CURVE('',#139,#140,#32,.T.);
#168=EDGE_CURVE('',#140,#140,#121,.T.);
#169=EDGE_CURVE('',#141,#141,#122,.T.);
#170=EDGE_CURVE('',#141,#142,#33,.T.);
#171=EDGE_CURVE('',#142,#142,#123,.T.);
#172=EDGE_CURVE('',#143,#143,#124,.T.);
#173=EDGE_CURVE('',#143,#144,#34,.T.);
#174=EDGE_CURVE('',#145,#144,#24,.T.);
#175=EDGE_CURVE('',#144,#145,#25,.T.);
#176=EDGE_CURVE('',#146,#146,#125,.T.);
#177=EDGE_CURVE('',#146,#126,#35,.T.);
#178=ORIENTED_EDGE('',*,*,#147,.F.);
#179=ORIENTED_EDGE('',*,*,#148,.F.);
#180=ORIENTED_EDGE('',*,*,#149,.T.);
#181=ORIENTED_EDGE('',*,*,#150,.T.);
#182=ORIENTED_EDGE('',*,*,#149,.F.);
#183=ORIENTED_EDGE('',*,*,#150,.F.);
#184=ORIENTED_EDGE('',*,*,#151,.F.);
#185=ORIENTED_EDGE('',*,*,#152,.T.);
#186=ORIENTED_EDGE('',*,*,#153,.T.);
#187=ORIENTED_EDGE('',*,*,#152,.F.);
#188=ORIENTED_EDGE('',*,*,#153,.F.);
#189=ORIENTED_EDGE('',*,*,#154,.F.);
#190=ORIENTED_EDGE('',*,*,#155,.T.);
#191=ORIENTED_EDGE('',*,*,#156,.T.);
#192=ORIENTED_EDGE('',*,*,#155,.F.);
#193=ORIENTED_EDGE('',*,*,#156,.F.);
#194=ORIENTED_EDGE('',*,*,#157,.F.);
#195=ORIENTED_EDGE('',*,*,#158,.T.);
#196=ORIENTED_EDGE('',*,*,#159,.T.);
#197=ORIENTED_EDGE('',*,*,#158,.F.);
#198=ORIENTED_EDGE('',*,*,#159,.F.);
#199=ORIENTED_EDGE('',*,*,#160,.F.);
#200=ORIENTED_EDGE('',*,*,#161,.T.);
#201=ORIENTED_EDGE('',*,*,#162,.T.);
#202=ORIENTED_EDGE('',*,*,#161,.F.);
#203=ORIENTED_EDGE('',*,*,#162,.F.);
#204=ORIENTED_EDGE('',*,*,#163,.F.);
#205=ORIENTED_EDGE('',*,*,#164,.T.);
#206=ORIENTED_EDGE('',*,*,#165,.T.);
#207=ORIENTED_EDGE('',*,*,#164,.F.);
#208=ORIENTED_EDGE('',*,*,#165,.F.);
#209=ORIENTED_EDGE('',*,*,#166,.F.);
#210=ORIENTED_EDGE('',*,*,#167,.T.);
#211=ORIENTED_EDGE('',*,*,#168,.T.);
#212=ORIENTED_EDGE('',*,*,#167,.F.);
#213=ORIENTED_EDGE('',*,*,#168,.F.);
#214=ORIENTED_EDGE('',*,*,#169,.F.);
#215=ORIENTED_EDGE('',*,*,#170,.T.);
#216=ORIENTED_EDGE('',*,*,#171,.T.);
#217=ORIENTED_EDGE('',*,*,#170,.F.);
#218=ORIENTED_EDGE('',*,*,#171,.F.);
#219=ORIENTED_EDGE('',*,*,#172,.F.);
#220=ORIENTED_EDGE('',*,*,#173,.T.);
#221=ORIENTED_EDGE('',*,*,#174,.F.);
#222=ORIENTED_EDGE('',*,*,#175,.F.);
#223=ORIENTED_EDGE('',*,*,#173,.F.);
#224=ORIENTED_EDGE('',*,*,#172,.T.);
#225=ORIENTED_EDGE('',*,*,#148,.T.);
#226=ORIENTED_EDGE('',*,*,#151,.T.);
#227=ORIENTED_EDGE('',*,*,#154,.T.);
#228=ORIENTED_EDGE('',*,*,#157,.T.);
#229=ORIENTED_EDGE('',*,*,#160,.T.);
#230=ORIENTED_EDGE('',*,*,#163,.T.);
#231=ORIENTED_EDGE('',*,*,#166,.T.);
#232=ORIENTED_EDGE('',*,*,#169,.T.);
#233=ORIENTED_EDGE('',*,*,#176,.F.);
#234=ORIENTED_EDGE('',*,*,#177,.T.);
#235=ORIENTED_EDGE('',*,*,#147,.T.);
#236=ORIENTED_EDGE('',*,*,#177,.F.);
#237=ORIENTED_EDGE('',*,*,#174,.T.);
#238=ORIENTED_EDGE('',*,*,#175,.T.);
#239=ORIENTED_EDGE('',*,*,#176,.T.);
#240=PLANE('',#286);
#241=PLANE('',#291);
#242=PLANE('',#295);
#243=PLANE('',#299);
#244=PLANE('',#303);
#245=PLANE('',#307);
#246=PLANE('',#311);
#247=PLANE('',#315);
#248=PLANE('',#319);
#249=PLANE('',#322);
#250=PLANE('',#325);
#251=ADVANCED_FACE('',(#56),#240,.T.);
#252=ADVANCED_FACE('',(#57),#46,.F.);
#253=ADVANCED_FACE('',(#58),#241,.T.);
#254=ADVANCED_FACE('',(#59),#47,.F.);
#255=ADVANCED_FACE('',(#60),#242,.T.);
#256=ADVANCED_FACE('',(#61),#48,.F.);
#257=ADVANCED_FACE('',(#62),#243,.T.);
#258=ADVANCED_FACE('',(#63),#49,.F.);
#259=ADVANCED_FACE('',(#64),#244,.T.);
#260=ADVANCED_FACE('',(#65),#50,.F.);
#261=ADVANCED_FACE('',(#66),#245,.T.);
#262=ADVANCED_FACE('',(#67),#51,.F.);
#263=ADVANCED_FACE('',(#68),#246,.T.);
#264=ADVANCED_FACE('',(#69),#52,.F.);
#265=ADVANCED_FACE('',(#70),#247,.T.);
#266=ADVANCED_FACE('',(#71),#53,.F.);
#267=ADVANCED_FACE('',(#72),#248,.T.);
#268=ADVANCED_FACE('',(#73),#54,.T.);
#269=ADVANCED_FACE('',(#74,#15,#16,#17,#18,#19,#20,#21,#22),#249,.F.);
#270=ADVANCED_FACE('',(#75,#23),#55,.T.);
#271=ADVANCED_FACE('',(#76),#250,.T.);
#272=CLOSED_SHELL('',(#251,#252,#253,#254,#255,#256,#257,#258,#259,#260,
#261,#262,#263,#264,#265,#266,#267,#268,#269,#270,#271));
#273=DERIVED_UNIT_ELEMENT(#275,1.);
#274=DERIVED_UNIT_ELEMENT(#555,-3.);
#275=(
MASS_UNIT()
NAMED_UNIT(*)
SI_UNIT(.KILO.,.GRAM.)
);
#276=DERIVED_UNIT((#273,#274));
#277=MEASURE_REPRESENTATION_ITEM('density measure',
POSITIVE_RATIO_MEASURE(7850.),#276);
#278=PROPERTY_DEFINITION_REPRESENTATION(#283,#280);
#279=PROPERTY_DEFINITION_REPRESENTATION(#284,#281);
#280=REPRESENTATION('material name',(#282),#552);
#281=REPRESENTATION('density',(#277),#552);
#282=DESCRIPTIVE_REPRESENTATION_ITEM('Steel','Steel');
#283=PROPERTY_DEFINITION('material property','material name',#562);
#284=PROPERTY_DEFINITION('material property','density of part',#562);
#285=AXIS2_PLACEMENT_3D('',#418,#326,#327);
#286=AXIS2_PLACEMENT_3D('',#419,#328,#329);
#287=AXIS2_PLACEMENT_3D('',#421,#330,#331);
#288=AXIS2_PLACEMENT_3D('',#422,#332,#333);
#289=AXIS2_PLACEMENT_3D('',#424,#334,#335);
#290=AXIS2_PLACEMENT_3D('',#427,#337,#338);
#291=AXIS2_PLACEMENT_3D('',#428,#339,#340);
#292=AXIS2_PLACEMENT_3D('',#429,#341,#342);
#293=AXIS2_PLACEMENT_3D('',#431,#343,#344);
#294=AXIS2_PLACEMENT_3D('',#434,#346,#347);
#295=AXIS2_PLACEMENT_3D('',#435,#348,#349);
#296=AXIS2_PLACEMENT_3D('',#436,#350,#351);
#297=AXIS2_PLACEMENT_3D('',#438,#352,#353);
#298=AXIS2_PLACEMENT_3D('',#441,#355,#356);
#299=AXIS2_PLACEMENT_3D('',#442,#357,#358);
#300=AXIS2_PLACEMENT_3D('',#443,#359,#360);
#301=AXIS2_PLACEMENT_3D('',#445,#361,#362);
#302=AXIS2_PLACEMENT_3D('',#448,#364,#365);
#303=AXIS2_PLACEMENT_3D('',#449,#366,#367);
#304=AXIS2_PLACEMENT_3D('',#450,#368,#369);
#305=AXIS2_PLACEMENT_3D('',#452,#370,#371);
#306=AXIS2_PLACEMENT_3D('',#455,#373,#374);
#307=AXIS2_PLACEMENT_3D('',#456,#375,#376);
#308=AXIS2_PLACEMENT_3D('',#457,#377,#378);
#309=AXIS2_PLACEMENT_3D('',#459,#379,#380);
#310=AXIS2_PLACEMENT_3D('',#462,#382,#383);
#311=AXIS2_PLACEMENT_3D('',#463,#384,#385);
#312=AXIS2_PLACEMENT_3D('',#464,#386,#387);
#313=AXIS2_PLACEMENT_3D('',#466,#388,#389);
#314=AXIS2_PLACEMENT_3D('',#469,#391,#392);
#315=AXIS2_PLACEMENT_3D('',#470,#393,#394);
#316=AXIS2_PLACEMENT_3D('',#471,#395,#396);
#317=AXIS2_PLACEMENT_3D('',#473,#397,#398);
#318=AXIS2_PLACEMENT_3D('',#476,#400,#401);
#319=AXIS2_PLACEMENT_3D('',#477,#402,#403);
#320=AXIS2_PLACEMENT_3D('',#478,#404,#405);
#321=AXIS2_PLACEMENT_3D('',#480,#406,#407);
#322=AXIS2_PLACEMENT_3D('',#544,#409,#410);
#323=AXIS2_PLACEMENT_3D('',#545,#411,#412);
#324=AXIS2_PLACEMENT_3D('',#547,#413,#414);
#325=AXIS2_PLACEMENT_3D('',#549,#416,#417);
#326=DIRECTION('axis',(0.,0.,1.));
#327=DIRECTION('refdir',(1.,0.,0.));
#328=DIRECTION('center_axis',(0.,0.,-1.));
#329=DIRECTION('ref_axis',(1.,0.,0.));
#330=DIRECTION('center_axis',(0.,0.,1.));
#331=DIRECTION('ref_axis',(1.,0.,0.));
#332=DIRECTION('center_axis',(0.,1.,0.));
#333=DIRECTION('ref_axis',(1.,0.,0.));
#334=DIRECTION('center_axis',(0.,1.,0.));
#335=DIRECTION('ref_axis',(1.,0.,0.));
#336=DIRECTION('',(0.,1.,0.));
#337=DIRECTION('center_axis',(0.,1.,0.));
#338=DIRECTION('ref_axis',(1.,0.,0.));
#339=DIRECTION('center_axis',(0.,-1.,0.));
#340=DIRECTION('ref_axis',(1.,0.,0.));
#341=DIRECTION('center_axis',(0.,1.,0.));
#342=DIRECTION('ref_axis',(1.,0.,0.));
#343=DIRECTION('center_axis',(0.,1.,0.));
#344=DIRECTION('ref_axis',(1.,0.,0.));
#345=DIRECTION('',(0.,1.,0.));
#346=DIRECTION('center_axis',(0.,1.,0.));
#347=DIRECTION('ref_axis',(1.,0.,0.));
#348=DIRECTION('center_axis',(0.,-1.,0.));
#349=DIRECTION('ref_axis',(1.,0.,0.));
#350=DIRECTION('center_axis',(0.,1.,0.));
#351=DIRECTION('ref_axis',(1.,0.,0.));
#352=DIRECTION('center_axis',(0.,1.,0.));
#353=DIRECTION('ref_axis',(1.,0.,0.));
#354=DIRECTION('',(0.,1.,0.));
#355=DIRECTION('center_axis',(0.,1.,0.));
#356=DIRECTION('ref_axis',(1.,0.,0.));
#357=DIRECTION('center_axis',(0.,-1.,0.));
#358=DIRECTION('ref_axis',(1.,0.,0.));
#359=DIRECTION('center_axis',(0.,1.,0.));
#360=DIRECTION('ref_axis',(1.,0.,0.));
#361=DIRECTION('center_axis',(0.,1.,0.));
#362=DIRECTION('ref_axis',(1.,0.,0.));
#363=DIRECTION('',(0.,1.,0.));
#364=DIRECTION('center_axis',(0.,1.,0.));
#365=DIRECTION('ref_axis',(1.,0.,0.));
#366=DIRECTION('center_axis',(0.,-1.,0.));
#367=DIRECTION('ref_axis',(1.,0.,0.));
#368=DIRECTION('center_axis',(0.,1.,0.));
#369=DIRECTION('ref_axis',(1.,0.,0.));
#370=DIRECTION('center_axis',(0.,1.,0.));
#371=DIRECTION('ref_axis',(1.,0.,0.));
#372=DIRECTION('',(0.,1.,0.));
#373=DIRECTION('center_axis',(0.,1.,0.));
#374=DIRECTION('ref_axis',(1.,0.,0.));
#375=DIRECTION('center_axis',(0.,-1.,0.));
#376=DIRECTION('ref_axis',(1.,0.,0.));
#377=DIRECTION('center_axis',(0.,1.,0.));
#378=DIRECTION('ref_axis',(1.,0.,0.));
#379=DIRECTION('center_axis',(0.,1.,0.));
#380=DIRECTION('ref_axis',(1.,0.,0.));
#381=DIRECTION('',(0.,1.,0.));
#382=DIRECTION('center_axis',(0.,1.,0.));
#383=DIRECTION('ref_axis',(1.,0.,0.));
#384=DIRECTION('center_axis',(0.,-1.,0.));
#385=DIRECTION('ref_axis',(1.,0.,0.));
#386=DIRECTION('center_axis',(0.,1.,0.));
#387=DIRECTION('ref_axis',(1.,0.,0.));
#388=DIRECTION('center_axis',(0.,1.,0.));
#389=DIRECTION('ref_axis',(1.,0.,0.));
#390=DIRECTION('',(0.,1.,0.));
#391=DIRECTION('center_axis',(0.,1.,0.));
#392=DIRECTION('ref_axis',(1.,0.,0.));
#393=DIRECTION('center_axis',(0.,-1.,0.));
#394=DIRECTION('ref_axis',(1.,0.,0.));
#395=DIRECTION('center_axis',(0.,1.,0.));
#396=DIRECTION('ref_axis',(1.,0.,0.));
#397=DIRECTION('center_axis',(0.,1.,0.));
#398=DIRECTION('ref_axis',(1.,0.,0.));
#399=DIRECTION('',(0.,1.,0.));
#400=DIRECTION('center_axis',(0.,1.,0.));
#401=DIRECTION('ref_axis',(1.,0.,0.));
#402=DIRECTION('center_axis',(0.,-1.,0.));
#403=DIRECTION('ref_axis',(1.,0.,0.));
#404=DIRECTION('center_axis',(0.,-1.,0.));
#405=DIRECTION('ref_axis',(1.,0.,0.));
#406=DIRECTION('center_axis',(0.,-1.,0.));
#407=DIRECTION('ref_axis',(1.,0.,0.));
#408=DIRECTION('',(0.,1.,0.));
#409=DIRECTION('center_axis',(0.,1.,0.));
#410=DIRECTION('ref_axis',(1.,0.,0.));
#411=DIRECTION('center_axis',(0.,0.,1.));
#412=DIRECTION('ref_axis',(1.,0.,0.));
#413=DIRECTION('center_axis',(0.,0.,1.));
#414=DIRECTION('ref_axis',(1.,0.,0.));
#415=DIRECTION('',(0.,0.,-1.));
#416=DIRECTION('center_axis',(0.,0.,1.));
#417=DIRECTION('ref_axis',(1.,0.,0.));
#418=CARTESIAN_POINT('',(0.,0.,0.));
#419=CARTESIAN_POINT('Origin',(0.,0.,200.));
#420=CARTESIAN_POINT('',(-15.,1.83697019872103E-15,200.));
#421=CARTESIAN_POINT('Origin',(0.,0.,200.));
#422=CARTESIAN_POINT('Origin',(-7.00000010430813,-30.,331.000004932284));
#423=CARTESIAN_POINT('',(-9.00000013411045,-30.,331.000004932284));
#424=CARTESIAN_POINT('Origin',(-7.00000010430813,-30.,331.000004932284));
#425=CARTESIAN_POINT('',(-9.00000013411045,-25.,331.000004932284));
#426=CARTESIAN_POINT('',(-9.00000013411045,-30.,331.000004932284));
#427=CARTESIAN_POINT('Origin',(-7.00000010430813,-25.,331.000004932284));
#428=CARTESIAN_POINT('Origin',(-7.00000010430813,-25.,331.000004932284));
#429=CARTESIAN_POINT('Origin',(7.00000010430813,-30.,345.000005140901));
#430=CARTESIAN_POINT('',(4.17157293741509,-30.,345.000005140901));
#431=CARTESIAN_POINT('Origin',(7.00000010430813,-30.,345.000005140901));
#432=CARTESIAN_POINT('',(4.17157293741509,-25.,345.000005140901));
#433=CARTESIAN_POINT('',(4.17157293741509,-30.,345.000005140901));
#434=CARTESIAN_POINT('Origin',(7.00000010430813,-25.,345.000005140901));
#435=CARTESIAN_POINT('Origin',(7.00000010430813,-25.,345.000005140901));
#436=CARTESIAN_POINT('Origin',(-1.00000001490116,-30.,339.000005051494));
#437=CARTESIAN_POINT('',(-3.8284271817942,-30.,339.000005051494));
#438=CARTESIAN_POINT('Origin',(-1.00000001490116,-30.,339.000005051494));
#439=CARTESIAN_POINT('',(-3.8284271817942,-25.,339.000005051494));
#440=CARTESIAN_POINT('',(-3.8284271817942,-30.,339.000005051494));
#441=CARTESIAN_POINT('Origin',(-1.00000001490116,-25.,339.000005051494));
#442=CARTESIAN_POINT('Origin',(-1.00000001490116,-25.,339.000005051494));
#443=CARTESIAN_POINT('Origin',(-11.0000001639128,-30.,339.000005051494));
#444=CARTESIAN_POINT('',(-13.2360681747326,-30.,339.000005051494));
#445=CARTESIAN_POINT('Origin',(-11.0000001639128,-30.,339.000005051494));
#446=CARTESIAN_POINT('',(-13.2360681747326,-25.,339.000005051494));
#447=CARTESIAN_POINT('',(-13.2360681747326,-30.,339.000005051494));
#448=CARTESIAN_POINT('Origin',(-11.0000001639128,-25.,339.000005051494));
#449=CARTESIAN_POINT('Origin',(-11.0000001639128,-25.,339.000005051494));
#450=CARTESIAN_POINT('Origin',(10.0000001490116,-30.,338.000005036592));
#451=CARTESIAN_POINT('',(7.76393213819181,-30.,338.000005036592));
#452=CARTESIAN_POINT('Origin',(10.0000001490116,-30.,338.000005036592));
#453=CARTESIAN_POINT('',(7.76393213819181,-25.,338.000005036592));
#454=CARTESIAN_POINT('',(7.76393213819181,-30.,338.000005036592));
#455=CARTESIAN_POINT('Origin',(10.0000001490116,-25.,338.000005036592));
#456=CARTESIAN_POINT('Origin',(10.0000001490116,-25.,338.000005036592));
#457=CARTESIAN_POINT('Origin',(4.00000005960464,-30.,330.000004917383));
#458=CARTESIAN_POINT('',(2.00000002980232,-30.,330.000004917383));
#459=CARTESIAN_POINT('Origin',(4.00000005960464,-30.,330.000004917383));
#460=CARTESIAN_POINT('',(2.00000002980232,-25.,330.000004917383));
#461=CARTESIAN_POINT('',(2.00000002980232,-30.,330.000004917383));
#462=CARTESIAN_POINT('Origin',(4.00000005960464,-25.,330.000004917383));
#463=CARTESIAN_POINT('Origin',(4.00000005960464,-25.,330.000004917383));
#464=CARTESIAN_POINT('Origin',(-8.00000011920929,-30.,346.000005155802));
#465=CARTESIAN_POINT('',(-10.2360681300291,-30.,346.000005155802));
#466=CARTESIAN_POINT('Origin',(-8.00000011920929,-30.,346.000005155802));
#467=CARTESIAN_POINT('',(-10.2360681300291,-25.,346.000005155802));
#468=CARTESIAN_POINT('',(-10.2360681300291,-30.,346.000005155802));
#469=CARTESIAN_POINT('Origin',(-8.00000011920929,-25.,346.000005155802));
#470=CARTESIAN_POINT('Origin',(-8.00000011920929,-25.,346.000005155802));
#471=CARTESIAN_POINT('Origin',(0.,-30.,350.));
#472=CARTESIAN_POINT('',(-2.73784230648414,-30.,350.));
#473=CARTESIAN_POINT('Origin',(0.,-30.,350.));
#474=CARTESIAN_POINT('',(-2.73784230648414,-20.,350.));
#475=CARTESIAN_POINT('',(-2.73784230648414,-30.,350.));
#476=CARTESIAN_POINT('Origin',(0.,-20.,350.));
#477=CARTESIAN_POINT('Origin',(0.,-20.,350.));
#478=CARTESIAN_POINT('Origin',(0.,0.,340.));
#479=CARTESIAN_POINT('',(-14.142135623731,-30.,340.));
#480=CARTESIAN_POINT('Origin',(0.,-30.,340.));
#481=CARTESIAN_POINT('',(-14.142135623731,-4.99999999999999,340.));
#482=CARTESIAN_POINT('',(-14.142135623731,0.,340.));
#483=CARTESIAN_POINT('',(14.142135623731,-5.,340.));
#484=CARTESIAN_POINT('Ctrl Pts',(14.142135623731,-5.,340.));
#485=CARTESIAN_POINT('Ctrl Pts',(14.142135623731,-5.,338.918704514902));
#486=CARTESIAN_POINT('Ctrl Pts',(14.027428782457,-5.33574868807186,337.982766022155));
#487=CARTESIAN_POINT('Ctrl Pts',(13.6502952363648,-6.23765155351047,336.191120938874));
#488=CARTESIAN_POINT('Ctrl Pts',(13.3828821220818,-6.81164812540112,335.34042733603));
#489=CARTESIAN_POINT('Ctrl Pts',(12.6826865500192,-8.04049413758524,333.678401059811));
#490=CARTESIAN_POINT('Ctrl Pts',(12.2506368419126,-8.69430856735331,332.875678359638));
#491=CARTESIAN_POINT('Ctrl Pts',(11.2325568539877,-9.97490710553527,331.359182445264));
#492=CARTESIAN_POINT('Ctrl Pts',(10.6461976494665,-10.6023631390559,330.646197649467));
#493=CARTESIAN_POINT('Ctrl Pts',(8.8499617779893,-12.2089653439545,328.849961777989));
#494=CARTESIAN_POINT('Ctrl Pts',(7.34900107345216,-13.208902242967,327.771033070906));
#495=CARTESIAN_POINT('Ctrl Pts',(4.75341479515861,-14.257481750583,326.647325398753));
#496=CARTESIAN_POINT('Ctrl Pts',(3.83146592676311,-14.5345328923768,326.352394255299));
#497=CARTESIAN_POINT('Ctrl Pts',(1.93588814327427,-14.905875172574,325.957578171027));
#498=CARTESIAN_POINT('Ctrl Pts',(0.962191009342676,-15.,325.857864376269));
#499=CARTESIAN_POINT('Ctrl Pts',(-0.962191009342674,-15.,325.857864376269));
#500=CARTESIAN_POINT('Ctrl Pts',(-1.93588814327427,-14.905875172574,325.957578171027));
#501=CARTESIAN_POINT('Ctrl Pts',(-3.83146592676311,-14.5345328923768,326.352394255299));
#502=CARTESIAN_POINT('Ctrl Pts',(-4.7534147951586,-14.257481750583,326.647325398753));
#503=CARTESIAN_POINT('Ctrl Pts',(-7.34900107345216,-13.208902242967,327.771033070906));
#504=CARTESIAN_POINT('Ctrl Pts',(-8.8499617779893,-12.2089653439545,328.849961777989));
#505=CARTESIAN_POINT('Ctrl Pts',(-10.6461976494665,-10.6023631390559,330.646197649467));
#506=CARTESIAN_POINT('Ctrl Pts',(-11.2325568539877,-9.97490710553527,331.359182445264));
#507=CARTESIAN_POINT('Ctrl Pts',(-12.2506368419126,-8.69430856735331,332.875678359638));
#508=CARTESIAN_POINT('Ctrl Pts',(-12.6826865500192,-8.04049413758524,333.678401059811));
#509=CARTESIAN_POINT('Ctrl Pts',(-13.3828821220818,-6.81164812540112,335.34042733603));
#510=CARTESIAN_POINT('Ctrl Pts',(-13.6502952363648,-6.23765155351046,336.191120938874));
#511=CARTESIAN_POINT('Ctrl Pts',(-14.027428782457,-5.33574868807186,337.982766022155));
#512=CARTESIAN_POINT('Ctrl Pts',(-14.142135623731,-5.,338.918704514902));
#513=CARTESIAN_POINT('Ctrl Pts',(-14.142135623731,-5.,340.));
#514=CARTESIAN_POINT('Ctrl Pts',(-14.142135623731,-4.99999999999999,340.));
#515=CARTESIAN_POINT('Ctrl Pts',(-14.142135623731,-4.99999999999999,341.081295485098));
#516=CARTESIAN_POINT('Ctrl Pts',(-14.027428782457,-5.33574868807186,342.017233977845));
#517=CARTESIAN_POINT('Ctrl Pts',(-13.6502952363648,-6.23765155351046,343.808879061126));
#518=CARTESIAN_POINT('Ctrl Pts',(-13.3828821220818,-6.81164812540112,344.65957266397));
#519=CARTESIAN_POINT('Ctrl Pts',(-12.6826865500192,-8.04049413758524,346.321598940189));
#520=CARTESIAN_POINT('Ctrl Pts',(-12.2506368419126,-8.69430856735331,347.124321640362));
#521=CARTESIAN_POINT('Ctrl Pts',(-11.2325568539877,-9.97490710553527,348.640817554736));
#522=CARTESIAN_POINT('Ctrl Pts',(-10.6461976494665,-10.6023631390559,349.353802350533));
#523=CARTESIAN_POINT('Ctrl Pts',(-8.8499617779893,-12.2089653439545,351.150038222011));
#524=CARTESIAN_POINT('Ctrl Pts',(-7.34900107345216,-13.208902242967,352.228966929094));
#525=CARTESIAN_POINT('Ctrl Pts',(-4.75341479515861,-14.257481750583,353.352674601247));
#526=CARTESIAN_POINT('Ctrl Pts',(-3.83146592676312,-14.5345328923768,353.647605744701));
#527=CARTESIAN_POINT('Ctrl Pts',(-1.93588814327427,-14.905875172574,354.042421828973));
#528=CARTESIAN_POINT('Ctrl Pts',(-0.962191009342679,-15.,354.142135623731));
#529=CARTESIAN_POINT('Ctrl Pts',(0.962191009342674,-15.,354.142135623731));
#530=CARTESIAN_POINT('Ctrl Pts',(1.93588814327427,-14.905875172574,354.042421828973));
#531=CARTESIAN_POINT('Ctrl Pts',(3.83146592676311,-14.5345328923768,353.647605744701));
#532=CARTESIAN_POINT('Ctrl Pts',(4.7534147951586,-14.257481750583,353.352674601247));
#533=CARTESIAN_POINT('Ctrl Pts',(7.34900107345216,-13.208902242967,352.228966929094));
#534=CARTESIAN_POINT('Ctrl Pts',(8.8499617779893,-12.2089653439545,351.150038222011));
#535=CARTESIAN_POINT('Ctrl Pts',(10.6461976494665,-10.6023631390559,349.353802350533));
#536=CARTESIAN_POINT('Ctrl Pts',(11.2325568539877,-9.97490710553525,348.640817554736));
#537=CARTESIAN_POINT('Ctrl Pts',(12.2506368419126,-8.6943085673533,347.124321640362));
#538=CARTESIAN_POINT('Ctrl Pts',(12.6826865500192,-8.04049413758523,346.321598940189));
#539=CARTESIAN_POINT('Ctrl Pts',(13.3828821220819,-6.81164812540111,344.65957266397));
#540=CARTESIAN_POINT('Ctrl Pts',(13.6502952363648,-6.23765155351043,343.808879061125));
#541=CARTESIAN_POINT('Ctrl Pts',(14.0274287824571,-5.33574868807184,342.017233977845));
#542=CARTESIAN_POINT('Ctrl Pts',(14.142135623731,-5.,341.081295485098));
#543=CARTESIAN_POINT('Ctrl Pts',(14.142135623731,-5.,340.));
#544=CARTESIAN_POINT('Origin',(0.,-30.,340.));
#545=CARTESIAN_POINT('Origin',(0.,0.,0.));
#546=CARTESIAN_POINT('',(-15.,-1.83697019872103E-15,400.));
#547=CARTESIAN_POINT('Origin',(0.,0.,400.));
#548=CARTESIAN_POINT('',(-15.,-1.83697019872103E-15,0.));
#549=CARTESIAN_POINT('Origin',(0.,0.,400.));
#550=UNCERTAINTY_MEASURE_WITH_UNIT(LENGTH_MEASURE(0.01),#554,
'DISTANCE_ACCURACY_VALUE',
'Maximum model space distance between geometric entities at asserted c
onnectivities');
#551=UNCERTAINTY_MEASURE_WITH_UNIT(LENGTH_MEASURE(0.01),#554,
'DISTANCE_ACCURACY_VALUE',
'Maximum model space distance between geometric entities at asserted c
onnectivities');
#552=(
GEOMETRIC_REPRESENTATION_CONTEXT(3)
GLOBAL_UNCERTAINTY_ASSIGNED_CONTEXT((#550))
GLOBAL_UNIT_ASSIGNED_CONTEXT((#554,#556,#557))
REPRESENTATION_CONTEXT('','3D')
);
#553=(
GEOMETRIC_REPRESENTATION_CONTEXT(3)
GLOBAL_UNCERTAINTY_ASSIGNED_CONTEXT((#551))
GLOBAL_UNIT_ASSIGNED_CONTEXT((#554,#556,#557))
REPRESENTATION_CONTEXT('','3D')
);
#554=(
LENGTH_UNIT()
NAMED_UNIT(*)
SI_UNIT(.MILLI.,.METRE.)
);
#555=(
LENGTH_UNIT()
NAMED_UNIT(*)
SI_UNIT($,.METRE.)
);
#556=(
NAMED_UNIT(*)
PLANE_ANGLE_UNIT()
SI_UNIT($,.RADIAN.)
);
#557=(
NAMED_UNIT(*)
SI_UNIT($,.STERADIAN.)
SOLID_ANGLE_UNIT()
);
#558=SHAPE_DEFINITION_REPRESENTATION(#559,#560);
#559=PRODUCT_DEFINITION_SHAPE('',$,#562);
#560=SHAPE_REPRESENTATION('',(#285),#552);
#561=PRODUCT_DEFINITION_CONTEXT('part definition',#566,'design');
#562=PRODUCT_DEFINITION('sprinkler','sprinkler v2',#563,#561);
#563=PRODUCT_DEFINITION_FORMATION('',$,#568);
#564=PRODUCT_RELATED_PRODUCT_CATEGORY('sprinkler v2','sprinkler v2',(#568));
#565=APPLICATION_PROTOCOL_DEFINITION('international standard',
'automotive_design',2009,#566);
#566=APPLICATION_CONTEXT(
'Core Data for Automotive Mechanical Design Process');
#567=PRODUCT_CONTEXT('part definition',#566,'mechanical');
#568=PRODUCT('sprinkler','sprinkler v2',$,(#567));
#569=PRESENTATION_STYLE_ASSIGNMENT((#570));
#570=SURFACE_STYLE_USAGE(.BOTH.,#571);
#571=SURFACE_SIDE_STYLE('',(#572));
#572=SURFACE_STYLE_FILL_AREA(#573);
#573=FILL_AREA_STYLE('Steel - Satin',(#574));
#574=FILL_AREA_STYLE_COLOUR('Steel - Satin',#575);
#575=COLOUR_RGB('Steel - Satin',0.627450980392157,0.627450980392157,0.627450980392157);
ENDSEC;
END-ISO-10303-21;
