ISO-10303-21;
HEADER;
/* Generated by software containing ST-Developer
 * from STEP Tools, Inc. (www.steptools.com) 
 */

FILE_DESCRIPTION(
/* description */ (''),
/* implementation_level */ '2;1');

FILE_NAME(
/* name */ 'wheels.step',
/* time_stamp */ '2026-03-10T07:17:26+05:30',
/* author */ (''),
/* organization */ (''),
/* preprocessor_version */ 'ST-DEVELOPER v20.1',
/* originating_system */ 'Autodesk Translation Framework v14.21.0.0',
/* authorisation */ '');

FILE_SCHEMA (('AUTOMOTIVE_DESIGN { 1 0 10303 214 3 1 1 }'));
ENDSEC;

DATA;
#10=MECHANICAL_DESIGN_GEOMETRIC_PRESENTATION_REPRESENTATION('',(#65,#66,
#67,#68,#69,#70),#1630);
#11=ITEM_DEFINED_TRANSFORMATION($,$,#914,#999);
#12=ITEM_DEFINED_TRANSFORMATION($,$,#948,#1000);
#13=ITEM_DEFINED_TRANSFORMATION($,$,#1012,#1018);
#14=ITEM_DEFINED_TRANSFORMATION($,$,#1012,#1028);
#15=ITEM_DEFINED_TRANSFORMATION($,$,#913,#1043);
#16=ITEM_DEFINED_TRANSFORMATION($,$,#913,#1044);
#17=ITEM_DEFINED_TRANSFORMATION($,$,#1001,#1045);
#18=ITEM_DEFINED_TRANSFORMATION($,$,#1011,#1046);
#19=(
REPRESENTATION_RELATIONSHIP($,$,#1659,#1658)
REPRESENTATION_RELATIONSHIP_WITH_TRANSFORMATION(#11)
SHAPE_REPRESENTATION_RELATIONSHIP()
);
#20=(
REPRESENTATION_RELATIONSHIP($,$,#1660,#1658)
REPRESENTATION_RELATIONSHIP_WITH_TRANSFORMATION(#12)
SHAPE_REPRESENTATION_RELATIONSHIP()
);
#21=(
REPRESENTATION_RELATIONSHIP($,$,#1663,#1661)
REPRESENTATION_RELATIONSHIP_WITH_TRANSFORMATION(#13)
SHAPE_REPRESENTATION_RELATIONSHIP()
);
#22=(
REPRESENTATION_RELATIONSHIP($,$,#1663,#1662)
REPRESENTATION_RELATIONSHIP_WITH_TRANSFORMATION(#14)
SHAPE_REPRESENTATION_RELATIONSHIP()
);
#23=(
REPRESENTATION_RELATIONSHIP($,$,#1658,#1657)
REPRESENTATION_RELATIONSHIP_WITH_TRANSFORMATION(#15)
SHAPE_REPRESENTATION_RELATIONSHIP()
);
#24=(
REPRESENTATION_RELATIONSHIP($,$,#1658,#1657)
REPRESENTATION_RELATIONSHIP_WITH_TRANSFORMATION(#16)
SHAPE_REPRESENTATION_RELATIONSHIP()
);
#25=(
REPRESENTATION_RELATIONSHIP($,$,#1661,#1657)
REPRESENTATION_RELATIONSHIP_WITH_TRANSFORMATION(#17)
SHAPE_REPRESENTATION_RELATIONSHIP()
);
#26=(
REPRESENTATION_RELATIONSHIP($,$,#1662,#1657)
REPRESENTATION_RELATIONSHIP_WITH_TRANSFORMATION(#18)
SHAPE_REPRESENTATION_RELATIONSHIP()
);
#27=CONTEXT_DEPENDENT_SHAPE_REPRESENTATION(#19,#1646);
#28=CONTEXT_DEPENDENT_SHAPE_REPRESENTATION(#20,#1647);
#29=CONTEXT_DEPENDENT_SHAPE_REPRESENTATION(#21,#1651);
#30=CONTEXT_DEPENDENT_SHAPE_REPRESENTATION(#22,#1652);
#31=CONTEXT_DEPENDENT_SHAPE_REPRESENTATION(#23,#1653);
#32=CONTEXT_DEPENDENT_SHAPE_REPRESENTATION(#24,#1654);
#33=CONTEXT_DEPENDENT_SHAPE_REPRESENTATION(#25,#1655);
#34=CONTEXT_DEPENDENT_SHAPE_REPRESENTATION(#26,#1656);
#35=NEXT_ASSEMBLY_USAGE_OCCURRENCE('Rim:1','Rim:1','Rim:1',#1666,#1667,
'Rim:1');
#36=NEXT_ASSEMBLY_USAGE_OCCURRENCE('Tyre:1','Tyre:1','Tyre:1',#1666,#1668,
'Tyre:1');
#37=NEXT_ASSEMBLY_USAGE_OCCURRENCE('inner v3:1','inner v3:1',
'inner v3:1',#1669,#1671,'inner v3:1');
#38=NEXT_ASSEMBLY_USAGE_OCCURRENCE('inner v3:1','inner v3:1',
'inner v3:1',#1670,#1671,'inner v3:1');
#39=NEXT_ASSEMBLY_USAGE_OCCURRENCE('Mower wheel 150mm v1:1',
'Mower wheel 150mm v1:1','Mower wheel 150mm v1:1',#1665,#1666,
'Mower wheel 150mm v1:1');
#40=NEXT_ASSEMBLY_USAGE_OCCURRENCE('Mower wheel 150mm v1:2',
'Mower wheel 150mm v1:2','Mower wheel 150mm v1:2',#1665,#1666,
'Mower wheel 150mm v1:2');
#41=NEXT_ASSEMBLY_USAGE_OCCURRENCE('rod v4:1','rod v4:1','rod v4:1',#1665,
#1669,'rod v4:1');
#42=NEXT_ASSEMBLY_USAGE_OCCURRENCE('rod v4:2','rod v4:2','rod v4:2',#1665,
#1670,'rod v4:2');
#43=TOROIDAL_SURFACE('',#958,76.00625,1.80625);
#44=TOROIDAL_SURFACE('',#961,76.00625,1.80625);
#45=TOROIDAL_SURFACE('',#963,76.00625,1.80625);
#46=TOROIDAL_SURFACE('',#972,65.,50.5);
#47=TOROIDAL_SURFACE('',#977,65.,50.5);
#48=TOROIDAL_SURFACE('',#983,76.00625,1.80625);
#49=TOROIDAL_SURFACE('',#986,76.00625,1.80625);
#50=TOROIDAL_SURFACE('',#993,76.00625,1.80625);
#51=TOROIDAL_SURFACE('',#995,72.,3.);
#52=TOROIDAL_SURFACE('',#997,72.,3.);
#53=SHAPE_REPRESENTATION_RELATIONSHIP('SRR','None',#1659,#59);
#54=SHAPE_REPRESENTATION_RELATIONSHIP('SRR','None',#1660,#60);
#55=SHAPE_REPRESENTATION_RELATIONSHIP('SRR','None',#1663,#61);
#56=SHAPE_REPRESENTATION_RELATIONSHIP('SRR','None',#1661,#62);
#57=SHAPE_REPRESENTATION_RELATIONSHIP('SRR','None',#1662,#63);
#58=SHAPE_REPRESENTATION_RELATIONSHIP('SRR','None',#1657,#64);
#59=ADVANCED_BREP_SHAPE_REPRESENTATION('',(#71),#1625);
#60=ADVANCED_BREP_SHAPE_REPRESENTATION('',(#72),#1626);
#61=ADVANCED_BREP_SHAPE_REPRESENTATION('',(#74),#1629);
#62=ADVANCED_BREP_SHAPE_REPRESENTATION('',(#73),#1627);
#63=ADVANCED_BREP_SHAPE_REPRESENTATION('',(#75),#1628);
#64=ADVANCED_BREP_SHAPE_REPRESENTATION('',(#76),#1623);
#65=STYLED_ITEM('',(#1697),#71);
#66=STYLED_ITEM('',(#1698),#72);
#67=STYLED_ITEM('',(#1696),#73);
#68=STYLED_ITEM('',(#1696),#74);
#69=STYLED_ITEM('',(#1696),#75);
#70=STYLED_ITEM('',(#1696),#76);
#71=MANIFOLD_SOLID_BREP('Body1',#872);
#72=MANIFOLD_SOLID_BREP('Body1',#873);
#73=MANIFOLD_SOLID_BREP('Body1',#874);
#74=MANIFOLD_SOLID_BREP('Body1',#875);
#75=MANIFOLD_SOLID_BREP('Body1',#876);
#76=MANIFOLD_SOLID_BREP('Body1',#877);
#77=CONICAL_SURFACE('',#936,53.,1.28431655171607);
#78=CONICAL_SURFACE('',#939,31.0160846996713,0.286479775078822);
#79=CONICAL_SURFACE('',#941,23.5,1.0471975511966);
#80=FACE_BOUND('',#177,.T.);
#81=FACE_BOUND('',#179,.T.);
#82=FACE_BOUND('',#183,.T.);
#83=FACE_BOUND('',#185,.T.);
#84=FACE_BOUND('',#187,.T.);
#85=FACE_BOUND('',#193,.T.);
#86=FACE_BOUND('',#217,.T.);
#87=FACE_BOUND('',#226,.T.);
#88=FACE_BOUND('',#239,.T.);
#89=PLANE('',#924);
#90=PLANE('',#925);
#91=PLANE('',#932);
#92=PLANE('',#933);
#93=PLANE('',#935);
#94=PLANE('',#945);
#95=PLANE('',#1005);
#96=PLANE('',#1009);
#97=PLANE('',#1010);
#98=PLANE('',#1016);
#99=PLANE('',#1017);
#100=PLANE('',#1022);
#101=PLANE('',#1026);
#102=PLANE('',#1027);
#103=PLANE('',#1032);
#104=PLANE('',#1033);
#105=PLANE('',#1034);
#106=PLANE('',#1035);
#107=PLANE('',#1036);
#108=PLANE('',#1037);
#109=PLANE('',#1038);
#110=PLANE('',#1039);
#111=PLANE('',#1040);
#112=PLANE('',#1041);
#113=PLANE('',#1042);
#114=FACE_OUTER_BOUND('',#173,.T.);
#115=FACE_OUTER_BOUND('',#174,.T.);
#116=FACE_OUTER_BOUND('',#175,.T.);
#117=FACE_OUTER_BOUND('',#176,.T.);
#118=FACE_OUTER_BOUND('',#178,.T.);
#119=FACE_OUTER_BOUND('',#180,.T.);
#120=FACE_OUTER_BOUND('',#181,.T.);
#121=FACE_OUTER_BOUND('',#182,.T.);
#122=FACE_OUTER_BOUND('',#184,.T.);
#123=FACE_OUTER_BOUND('',#186,.T.);
#124=FACE_OUTER_BOUND('',#188,.T.);
#125=FACE_OUTER_BOUND('',#189,.T.);
#126=FACE_OUTER_BOUND('',#190,.T.);
#127=FACE_OUTER_BOUND('',#191,.T.);
#128=FACE_OUTER_BOUND('',#192,.T.);
#129=FACE_OUTER_BOUND('',#194,.T.);
#130=FACE_OUTER_BOUND('',#195,.T.);
#131=FACE_OUTER_BOUND('',#196,.T.);
#132=FACE_OUTER_BOUND('',#197,.T.);
#133=FACE_OUTER_BOUND('',#198,.T.);
#134=FACE_OUTER_BOUND('',#199,.T.);
#135=FACE_OUTER_BOUND('',#200,.T.);
#136=FACE_OUTER_BOUND('',#201,.T.);
#137=FACE_OUTER_BOUND('',#202,.T.);
#138=FACE_OUTER_BOUND('',#203,.T.);
#139=FACE_OUTER_BOUND('',#204,.T.);
#140=FACE_OUTER_BOUND('',#205,.T.);
#141=FACE_OUTER_BOUND('',#206,.T.);
#142=FACE_OUTER_BOUND('',#207,.T.);
#143=FACE_OUTER_BOUND('',#208,.T.);
#144=FACE_OUTER_BOUND('',#209,.T.);
#145=FACE_OUTER_BOUND('',#210,.T.);
#146=FACE_OUTER_BOUND('',#211,.T.);
#147=FACE_OUTER_BOUND('',#212,.T.);
#148=FACE_OUTER_BOUND('',#213,.T.);
#149=FACE_OUTER_BOUND('',#214,.T.);
#150=FACE_OUTER_BOUND('',#215,.T.);
#151=FACE_OUTER_BOUND('',#216,.T.);
#152=FACE_OUTER_BOUND('',#218,.T.);
#153=FACE_OUTER_BOUND('',#219,.T.);
#154=FACE_OUTER_BOUND('',#220,.T.);
#155=FACE_OUTER_BOUND('',#221,.T.);
#156=FACE_OUTER_BOUND('',#222,.T.);
#157=FACE_OUTER_BOUND('',#223,.T.);
#158=FACE_OUTER_BOUND('',#224,.T.);
#159=FACE_OUTER_BOUND('',#225,.T.);
#160=FACE_OUTER_BOUND('',#227,.T.);
#161=FACE_OUTER_BOUND('',#228,.T.);
#162=FACE_OUTER_BOUND('',#229,.T.);
#163=FACE_OUTER_BOUND('',#230,.T.);
#164=FACE_OUTER_BOUND('',#231,.T.);
#165=FACE_OUTER_BOUND('',#232,.T.);
#166=FACE_OUTER_BOUND('',#233,.T.);
#167=FACE_OUTER_BOUND('',#234,.T.);
#168=FACE_OUTER_BOUND('',#235,.T.);
#169=FACE_OUTER_BOUND('',#236,.T.);
#170=FACE_OUTER_BOUND('',#237,.T.);
#171=FACE_OUTER_BOUND('',#238,.T.);
#172=FACE_OUTER_BOUND('',#240,.T.);
#173=EDGE_LOOP('',(#574,#575,#576,#577));
#174=EDGE_LOOP('',(#578,#579,#580,#581));
#175=EDGE_LOOP('',(#582,#583,#584,#585));
#176=EDGE_LOOP('',(#586));
#177=EDGE_LOOP('',(#587));
#178=EDGE_LOOP('',(#588));
#179=EDGE_LOOP('',(#589));
#180=EDGE_LOOP('',(#590,#591,#592,#593));
#181=EDGE_LOOP('',(#594,#595,#596,#597));
#182=EDGE_LOOP('',(#598));
#183=EDGE_LOOP('',(#599));
#184=EDGE_LOOP('',(#600));
#185=EDGE_LOOP('',(#601));
#186=EDGE_LOOP('',(#602));
#187=EDGE_LOOP('',(#603));
#188=EDGE_LOOP('',(#604,#605,#606,#607,#608));
#189=EDGE_LOOP('',(#609,#610,#611,#612,#613));
#190=EDGE_LOOP('',(#614,#615,#616,#617));
#191=EDGE_LOOP('',(#618,#619,#620,#621));
#192=EDGE_LOOP('',(#622));
#193=EDGE_LOOP('',(#623));
#194=EDGE_LOOP('',(#624,#625,#626,#627));
#195=EDGE_LOOP('',(#628,#629,#630,#631));
#196=EDGE_LOOP('',(#632,#633,#634,#635));
#197=EDGE_LOOP('',(#636,#637,#638,#639));
#198=EDGE_LOOP('',(#640,#641,#642,#643));
#199=EDGE_LOOP('',(#644,#645,#646,#647));
#200=EDGE_LOOP('',(#648,#649,#650,#651));
#201=EDGE_LOOP('',(#652,#653,#654,#655,#656));
#202=EDGE_LOOP('',(#657,#658,#659,#660,#661));
#203=EDGE_LOOP('',(#662,#663,#664,#665,#666));
#204=EDGE_LOOP('',(#667,#668,#669,#670,#671));
#205=EDGE_LOOP('',(#672,#673,#674,#675));
#206=EDGE_LOOP('',(#676,#677,#678,#679));
#207=EDGE_LOOP('',(#680,#681,#682,#683));
#208=EDGE_LOOP('',(#684,#685,#686,#687));
#209=EDGE_LOOP('',(#688,#689,#690,#691));
#210=EDGE_LOOP('',(#692,#693,#694,#695));
#211=EDGE_LOOP('',(#696,#697,#698,#699,#700,#701));
#212=EDGE_LOOP('',(#702,#703,#704,#705,#706,#707));
#213=EDGE_LOOP('',(#708,#709,#710,#711));
#214=EDGE_LOOP('',(#712));
#215=EDGE_LOOP('',(#713,#714,#715,#716));
#216=EDGE_LOOP('',(#717));
#217=EDGE_LOOP('',(#718));
#218=EDGE_LOOP('',(#719));
#219=EDGE_LOOP('',(#720,#721,#722,#723));
#220=EDGE_LOOP('',(#724));
#221=EDGE_LOOP('',(#725));
#222=EDGE_LOOP('',(#726,#727,#728,#729));
#223=EDGE_LOOP('',(#730));
#224=EDGE_LOOP('',(#731,#732,#733,#734));
#225=EDGE_LOOP('',(#735));
#226=EDGE_LOOP('',(#736));
#227=EDGE_LOOP('',(#737));
#228=EDGE_LOOP('',(#738,#739,#740,#741));
#229=EDGE_LOOP('',(#742));
#230=EDGE_LOOP('',(#743,#744,#745,#746,#747,#748,#749,#750));
#231=EDGE_LOOP('',(#751,#752,#753,#754));
#232=EDGE_LOOP('',(#755,#756,#757,#758));
#233=EDGE_LOOP('',(#759,#760,#761,#762));
#234=EDGE_LOOP('',(#763,#764,#765,#766));
#235=EDGE_LOOP('',(#767,#768,#769,#770,#771,#772,#773,#774));
#236=EDGE_LOOP('',(#775,#776,#777,#778));
#237=EDGE_LOOP('',(#779,#780,#781,#782));
#238=EDGE_LOOP('',(#783,#784,#785,#786));
#239=EDGE_LOOP('',(#787));
#240=EDGE_LOOP('',(#788,#789,#790,#791));
#241=LINE('',#1372,#289);
#242=LINE('',#1378,#290);
#243=LINE('',#1384,#291);
#244=LINE('',#1392,#292);
#245=LINE('',#1398,#293);
#246=LINE('',#1410,#294);
#247=LINE('',#1413,#295);
#248=LINE('',#1417,#296);
#249=LINE('',#1421,#297);
#250=LINE('',#1427,#298);
#251=LINE('',#1433,#299);
#252=LINE('',#1439,#300);
#253=LINE('',#1445,#301);
#254=LINE('',#1457,#302);
#255=LINE('',#1467,#303);
#256=LINE('',#1486,#304);
#257=LINE('',#1497,#305);
#258=LINE('',#1502,#306);
#259=LINE('',#1516,#307);
#260=LINE('',#1523,#308);
#261=LINE('',#1533,#309);
#262=LINE('',#1542,#310);
#263=LINE('',#1549,#311);
#264=LINE('',#1558,#312);
#265=LINE('',#1564,#313);
#266=LINE('',#1566,#314);
#267=LINE('',#1568,#315);
#268=LINE('',#1570,#316);
#269=LINE('',#1572,#317);
#270=LINE('',#1574,#318);
#271=LINE('',#1576,#319);
#272=LINE('',#1577,#320);
#273=LINE('',#1580,#321);
#274=LINE('',#1582,#322);
#275=LINE('',#1583,#323);
#276=LINE('',#1586,#324);
#277=LINE('',#1588,#325);
#278=LINE('',#1589,#326);
#279=LINE('',#1592,#327);
#280=LINE('',#1593,#328);
#281=LINE('',#1596,#329);
#282=LINE('',#1597,#330);
#283=LINE('',#1600,#331);
#284=LINE('',#1601,#332);
#285=LINE('',#1603,#333);
#286=LINE('',#1604,#334);
#287=LINE('',#1606,#335);
#288=LINE('',#1608,#336);
#289=VECTOR('',#1057,53.);
#290=VECTOR('',#1064,53.);
#291=VECTOR('',#1071,55.);
#292=VECTOR('',#1082,6.5);
#293=VECTOR('',#1089,17.5);
#294=VECTOR('',#1106,53.);
#295=VECTOR('',#1109,31.0160846996713);
#296=VECTOR('',#1114,23.5);
#297=VECTOR('',#1119,23.5);
#298=VECTOR('',#1128,20.);
#299=VECTOR('',#1135,75.);
#300=VECTOR('',#1142,75.);
#301=VECTOR('',#1149,75.);
#302=VECTOR('',#1168,75.);
#303=VECTOR('',#1179,75.);
#304=VECTOR('',#1204,55.);
#305=VECTOR('',#1219,75.);
#306=VECTOR('',#1226,75.);
#307=VECTOR('',#1249,10.);
#308=VECTOR('',#1258,13.);
#309=VECTOR('',#1273,10.);
#310=VECTOR('',#1286,10.);
#311=VECTOR('',#1295,13.);
#312=VECTOR('',#1308,1.51444350940664);
#313=VECTOR('',#1315,10.);
#314=VECTOR('',#1316,10.);
#315=VECTOR('',#1317,10.);
#316=VECTOR('',#1318,10.);
#317=VECTOR('',#1319,10.);
#318=VECTOR('',#1320,10.);
#319=VECTOR('',#1321,10.);
#320=VECTOR('',#1322,10.);
#321=VECTOR('',#1325,10.);
#322=VECTOR('',#1326,10.);
#323=VECTOR('',#1327,10.);
#324=VECTOR('',#1330,10.);
#325=VECTOR('',#1331,10.);
#326=VECTOR('',#1332,10.);
#327=VECTOR('',#1335,10.);
#328=VECTOR('',#1336,10.);
#329=VECTOR('',#1339,10.);
#330=VECTOR('',#1340,10.);
#331=VECTOR('',#1343,10.);
#332=VECTOR('',#1344,10.);
#333=VECTOR('',#1345,10.);
#334=VECTOR('',#1346,10.);
#335=VECTOR('',#1349,10.);
#336=VECTOR('',#1352,10.);
#337=CIRCLE('',#916,53.);
#338=CIRCLE('',#917,53.);
#339=CIRCLE('',#919,53.);
#340=CIRCLE('',#920,53.);
#341=CIRCLE('',#922,55.);
#342=CIRCLE('',#923,55.);
#343=CIRCLE('',#927,6.5);
#344=CIRCLE('',#928,6.5);
#345=CIRCLE('',#930,17.5);
#346=CIRCLE('',#931,17.5);
#347=CIRCLE('',#934,20.);
#348=CIRCLE('',#937,31.0160846996713);
#349=CIRCLE('',#938,31.0160846996713);
#350=CIRCLE('',#940,31.5);
#351=CIRCLE('',#942,23.5);
#352=CIRCLE('',#944,23.5);
#353=CIRCLE('',#946,20.);
#354=CIRCLE('',#950,75.);
#355=CIRCLE('',#951,75.);
#356=CIRCLE('',#953,75.);
#357=CIRCLE('',#954,75.);
#358=CIRCLE('',#956,75.);
#359=CIRCLE('',#957,75.);
#360=CIRCLE('',#959,75.);
#361=CIRCLE('',#960,1.80625);
#362=CIRCLE('',#962,1.80625);
#363=CIRCLE('',#964,1.80625);
#364=CIRCLE('',#966,75.);
#365=CIRCLE('',#967,75.);
#366=CIRCLE('',#969,75.);
#367=CIRCLE('',#970,75.);
#368=CIRCLE('',#971,75.);
#369=CIRCLE('',#973,72.4421052631579);
#370=CIRCLE('',#974,50.5);
#371=CIRCLE('',#975,55.);
#372=CIRCLE('',#976,72.4421052631579);
#373=CIRCLE('',#978,55.);
#374=CIRCLE('',#979,50.5);
#375=CIRCLE('',#980,72.4421052631579);
#376=CIRCLE('',#981,72.4421052631579);
#377=CIRCLE('',#984,1.80625);
#378=CIRCLE('',#985,75.);
#379=CIRCLE('',#987,75.);
#380=CIRCLE('',#988,1.80625);
#381=CIRCLE('',#990,75.);
#382=CIRCLE('',#992,75.);
#383=CIRCLE('',#994,1.80625);
#384=CIRCLE('',#996,3.);
#385=CIRCLE('',#998,3.);
#386=CIRCLE('',#1003,10.);
#387=CIRCLE('',#1004,10.);
#388=CIRCLE('',#1007,13.);
#389=CIRCLE('',#1008,13.);
#390=CIRCLE('',#1014,10.);
#391=CIRCLE('',#1015,10.);
#392=CIRCLE('',#1020,10.);
#393=CIRCLE('',#1021,10.);
#394=CIRCLE('',#1024,13.);
#395=CIRCLE('',#1025,13.);
#396=CIRCLE('',#1030,1.51444350940664);
#397=CIRCLE('',#1031,1.51444350940664);
#398=VERTEX_POINT('',#1369);
#399=VERTEX_POINT('',#1371);
#400=VERTEX_POINT('',#1375);
#401=VERTEX_POINT('',#1377);
#402=VERTEX_POINT('',#1381);
#403=VERTEX_POINT('',#1383);
#404=VERTEX_POINT('',#1389);
#405=VERTEX_POINT('',#1391);
#406=VERTEX_POINT('',#1395);
#407=VERTEX_POINT('',#1397);
#408=VERTEX_POINT('',#1402);
#409=VERTEX_POINT('',#1406);
#410=VERTEX_POINT('',#1407);
#411=VERTEX_POINT('',#1412);
#412=VERTEX_POINT('',#1416);
#413=VERTEX_POINT('',#1420);
#414=VERTEX_POINT('',#1424);
#415=VERTEX_POINT('',#1430);
#416=VERTEX_POINT('',#1432);
#417=VERTEX_POINT('',#1436);
#418=VERTEX_POINT('',#1438);
#419=VERTEX_POINT('',#1442);
#420=VERTEX_POINT('',#1444);
#421=VERTEX_POINT('',#1448);
#422=VERTEX_POINT('',#1456);
#423=VERTEX_POINT('',#1458);
#424=VERTEX_POINT('',#1462);
#425=VERTEX_POINT('',#1463);
#426=VERTEX_POINT('',#1466);
#427=VERTEX_POINT('',#1470);
#428=VERTEX_POINT('',#1471);
#429=VERTEX_POINT('',#1473);
#430=VERTEX_POINT('',#1478);
#431=VERTEX_POINT('',#1480);
#432=VERTEX_POINT('',#1482);
#433=VERTEX_POINT('',#1488);
#434=VERTEX_POINT('',#1492);
#435=VERTEX_POINT('',#1496);
#436=VERTEX_POINT('',#1500);
#437=VERTEX_POINT('',#1513);
#438=VERTEX_POINT('',#1515);
#439=VERTEX_POINT('',#1520);
#440=VERTEX_POINT('',#1522);
#441=VERTEX_POINT('',#1530);
#442=VERTEX_POINT('',#1532);
#443=VERTEX_POINT('',#1539);
#444=VERTEX_POINT('',#1541);
#445=VERTEX_POINT('',#1546);
#446=VERTEX_POINT('',#1548);
#447=VERTEX_POINT('',#1555);
#448=VERTEX_POINT('',#1557);
#449=VERTEX_POINT('',#1562);
#450=VERTEX_POINT('',#1563);
#451=VERTEX_POINT('',#1565);
#452=VERTEX_POINT('',#1567);
#453=VERTEX_POINT('',#1569);
#454=VERTEX_POINT('',#1571);
#455=VERTEX_POINT('',#1573);
#456=VERTEX_POINT('',#1575);
#457=VERTEX_POINT('',#1579);
#458=VERTEX_POINT('',#1581);
#459=VERTEX_POINT('',#1585);
#460=VERTEX_POINT('',#1587);
#461=VERTEX_POINT('',#1591);
#462=VERTEX_POINT('',#1595);
#463=VERTEX_POINT('',#1599);
#464=VERTEX_POINT('',#1602);
#465=EDGE_CURVE('',#398,#398,#337,.T.);
#466=EDGE_CURVE('',#398,#399,#241,.T.);
#467=EDGE_CURVE('',#399,#399,#338,.F.);
#468=EDGE_CURVE('',#400,#400,#339,.T.);
#469=EDGE_CURVE('',#400,#401,#242,.T.);
#470=EDGE_CURVE('',#401,#401,#340,.T.);
#471=EDGE_CURVE('',#402,#402,#341,.T.);
#472=EDGE_CURVE('',#402,#403,#243,.T.);
#473=EDGE_CURVE('',#403,#403,#342,.T.);
#474=EDGE_CURVE('',#404,#404,#343,.T.);
#475=EDGE_CURVE('',#404,#405,#244,.T.);
#476=EDGE_CURVE('',#405,#405,#344,.T.);
#477=EDGE_CURVE('',#406,#406,#345,.F.);
#478=EDGE_CURVE('',#406,#407,#245,.T.);
#479=EDGE_CURVE('',#407,#407,#346,.T.);
#480=EDGE_CURVE('',#408,#408,#347,.T.);
#481=EDGE_CURVE('',#409,#410,#348,.T.);
#482=EDGE_CURVE('',#410,#409,#349,.T.);
#483=EDGE_CURVE('',#409,#400,#246,.T.);
#484=EDGE_CURVE('',#410,#411,#247,.T.);
#485=EDGE_CURVE('',#411,#411,#350,.T.);
#486=EDGE_CURVE('',#411,#412,#248,.T.);
#487=EDGE_CURVE('',#412,#412,#351,.T.);
#488=EDGE_CURVE('',#412,#413,#249,.T.);
#489=EDGE_CURVE('',#413,#413,#352,.T.);
#490=EDGE_CURVE('',#414,#414,#353,.T.);
#491=EDGE_CURVE('',#414,#408,#250,.T.);
#492=EDGE_CURVE('',#415,#415,#354,.T.);
#493=EDGE_CURVE('',#415,#416,#251,.T.);
#494=EDGE_CURVE('',#416,#416,#355,.T.);
#495=EDGE_CURVE('',#417,#417,#356,.T.);
#496=EDGE_CURVE('',#417,#418,#252,.T.);
#497=EDGE_CURVE('',#418,#418,#357,.T.);
#498=EDGE_CURVE('',#419,#419,#358,.T.);
#499=EDGE_CURVE('',#419,#420,#253,.T.);
#500=EDGE_CURVE('',#420,#420,#359,.T.);
#501=EDGE_CURVE('',#421,#421,#360,.T.);
#502=EDGE_CURVE('',#421,#416,#361,.T.);
#503=EDGE_CURVE('',#415,#418,#362,.T.);
#504=EDGE_CURVE('',#417,#420,#363,.T.);
#505=EDGE_CURVE('',#421,#422,#254,.T.);
#506=EDGE_CURVE('',#422,#423,#364,.F.);
#507=EDGE_CURVE('',#423,#422,#365,.F.);
#508=EDGE_CURVE('',#424,#425,#366,.T.);
#509=EDGE_CURVE('',#425,#424,#367,.T.);
#510=EDGE_CURVE('',#424,#426,#255,.T.);
#511=EDGE_CURVE('',#426,#426,#368,.T.);
#512=EDGE_CURVE('',#427,#428,#369,.F.);
#513=EDGE_CURVE('',#428,#429,#370,.T.);
#514=EDGE_CURVE('',#429,#429,#371,.T.);
#515=EDGE_CURVE('',#428,#427,#372,.F.);
#516=EDGE_CURVE('',#430,#430,#373,.T.);
#517=EDGE_CURVE('',#430,#431,#374,.T.);
#518=EDGE_CURVE('',#431,#432,#375,.F.);
#519=EDGE_CURVE('',#432,#431,#376,.F.);
#520=EDGE_CURVE('',#429,#430,#256,.T.);
#521=EDGE_CURVE('',#426,#433,#377,.T.);
#522=EDGE_CURVE('',#433,#433,#378,.T.);
#523=EDGE_CURVE('',#434,#434,#379,.T.);
#524=EDGE_CURVE('',#434,#419,#380,.T.);
#525=EDGE_CURVE('',#433,#435,#257,.T.);
#526=EDGE_CURVE('',#435,#435,#381,.T.);
#527=EDGE_CURVE('',#436,#436,#382,.T.);
#528=EDGE_CURVE('',#436,#434,#258,.T.);
#529=EDGE_CURVE('',#435,#436,#383,.T.);
#530=EDGE_CURVE('',#427,#423,#384,.T.);
#531=EDGE_CURVE('',#425,#432,#385,.T.);
#532=EDGE_CURVE('',#437,#437,#386,.T.);
#533=EDGE_CURVE('',#437,#438,#259,.T.);
#534=EDGE_CURVE('',#438,#438,#387,.T.);
#535=EDGE_CURVE('',#439,#439,#388,.T.);
#536=EDGE_CURVE('',#439,#440,#260,.T.);
#537=EDGE_CURVE('',#440,#440,#389,.T.);
#538=EDGE_CURVE('',#441,#441,#390,.T.);
#539=EDGE_CURVE('',#441,#442,#261,.T.);
#540=EDGE_CURVE('',#442,#442,#391,.T.);
#541=EDGE_CURVE('',#443,#443,#392,.T.);
#542=EDGE_CURVE('',#443,#444,#262,.T.);
#543=EDGE_CURVE('',#444,#444,#393,.T.);
#544=EDGE_CURVE('',#445,#445,#394,.T.);
#545=EDGE_CURVE('',#445,#446,#263,.T.);
#546=EDGE_CURVE('',#446,#446,#395,.T.);
#547=EDGE_CURVE('',#447,#447,#396,.T.);
#548=EDGE_CURVE('',#447,#448,#264,.T.);
#549=EDGE_CURVE('',#448,#448,#397,.T.);
#550=EDGE_CURVE('',#449,#450,#265,.F.);
#551=EDGE_CURVE('',#449,#451,#266,.T.);
#552=EDGE_CURVE('',#451,#452,#267,.F.);
#553=EDGE_CURVE('',#453,#452,#268,.T.);
#554=EDGE_CURVE('',#454,#453,#269,.T.);
#555=EDGE_CURVE('',#455,#454,#270,.T.);
#556=EDGE_CURVE('',#456,#455,#271,.T.);
#557=EDGE_CURVE('',#450,#456,#272,.T.);
#558=EDGE_CURVE('',#452,#457,#273,.T.);
#559=EDGE_CURVE('',#457,#458,#274,.T.);
#560=EDGE_CURVE('',#458,#453,#275,.T.);
#561=EDGE_CURVE('',#456,#459,#276,.T.);
#562=EDGE_CURVE('',#459,#460,#277,.T.);
#563=EDGE_CURVE('',#460,#450,#278,.T.);
#564=EDGE_CURVE('',#461,#455,#279,.T.);
#565=EDGE_CURVE('',#461,#459,#280,.T.);
#566=EDGE_CURVE('',#454,#462,#281,.T.);
#567=EDGE_CURVE('',#462,#461,#282,.T.);
#568=EDGE_CURVE('',#463,#460,#283,.F.);
#569=EDGE_CURVE('',#458,#462,#284,.T.);
#570=EDGE_CURVE('',#464,#457,#285,.T.);
#571=EDGE_CURVE('',#464,#463,#286,.T.);
#572=EDGE_CURVE('',#463,#449,#287,.T.);
#573=EDGE_CURVE('',#451,#464,#288,.T.);
#574=ORIENTED_EDGE('',*,*,#465,.T.);
#575=ORIENTED_EDGE('',*,*,#466,.T.);
#576=ORIENTED_EDGE('',*,*,#467,.F.);
#577=ORIENTED_EDGE('',*,*,#466,.F.);
#578=ORIENTED_EDGE('',*,*,#468,.F.);
#579=ORIENTED_EDGE('',*,*,#469,.T.);
#580=ORIENTED_EDGE('',*,*,#470,.F.);
#581=ORIENTED_EDGE('',*,*,#469,.F.);
#582=ORIENTED_EDGE('',*,*,#471,.T.);
#583=ORIENTED_EDGE('',*,*,#472,.T.);
#584=ORIENTED_EDGE('',*,*,#473,.F.);
#585=ORIENTED_EDGE('',*,*,#472,.F.);
#586=ORIENTED_EDGE('',*,*,#473,.T.);
#587=ORIENTED_EDGE('',*,*,#465,.F.);
#588=ORIENTED_EDGE('',*,*,#471,.F.);
#589=ORIENTED_EDGE('',*,*,#470,.T.);
#590=ORIENTED_EDGE('',*,*,#474,.T.);
#591=ORIENTED_EDGE('',*,*,#475,.T.);
#592=ORIENTED_EDGE('',*,*,#476,.F.);
#593=ORIENTED_EDGE('',*,*,#475,.F.);
#594=ORIENTED_EDGE('',*,*,#477,.T.);
#595=ORIENTED_EDGE('',*,*,#478,.T.);
#596=ORIENTED_EDGE('',*,*,#479,.F.);
#597=ORIENTED_EDGE('',*,*,#478,.F.);
#598=ORIENTED_EDGE('',*,*,#479,.T.);
#599=ORIENTED_EDGE('',*,*,#474,.F.);
#600=ORIENTED_EDGE('',*,*,#480,.F.);
#601=ORIENTED_EDGE('',*,*,#476,.T.);
#602=ORIENTED_EDGE('',*,*,#467,.T.);
#603=ORIENTED_EDGE('',*,*,#477,.F.);
#604=ORIENTED_EDGE('',*,*,#481,.T.);
#605=ORIENTED_EDGE('',*,*,#482,.T.);
#606=ORIENTED_EDGE('',*,*,#483,.T.);
#607=ORIENTED_EDGE('',*,*,#468,.T.);
#608=ORIENTED_EDGE('',*,*,#483,.F.);
#609=ORIENTED_EDGE('',*,*,#481,.F.);
#610=ORIENTED_EDGE('',*,*,#482,.F.);
#611=ORIENTED_EDGE('',*,*,#484,.T.);
#612=ORIENTED_EDGE('',*,*,#485,.T.);
#613=ORIENTED_EDGE('',*,*,#484,.F.);
#614=ORIENTED_EDGE('',*,*,#485,.F.);
#615=ORIENTED_EDGE('',*,*,#486,.T.);
#616=ORIENTED_EDGE('',*,*,#487,.T.);
#617=ORIENTED_EDGE('',*,*,#486,.F.);
#618=ORIENTED_EDGE('',*,*,#487,.F.);
#619=ORIENTED_EDGE('',*,*,#488,.T.);
#620=ORIENTED_EDGE('',*,*,#489,.T.);
#621=ORIENTED_EDGE('',*,*,#488,.F.);
#622=ORIENTED_EDGE('',*,*,#489,.F.);
#623=ORIENTED_EDGE('',*,*,#490,.T.);
#624=ORIENTED_EDGE('',*,*,#490,.F.);
#625=ORIENTED_EDGE('',*,*,#491,.T.);
#626=ORIENTED_EDGE('',*,*,#480,.T.);
#627=ORIENTED_EDGE('',*,*,#491,.F.);
#628=ORIENTED_EDGE('',*,*,#492,.F.);
#629=ORIENTED_EDGE('',*,*,#493,.T.);
#630=ORIENTED_EDGE('',*,*,#494,.T.);
#631=ORIENTED_EDGE('',*,*,#493,.F.);
#632=ORIENTED_EDGE('',*,*,#495,.F.);
#633=ORIENTED_EDGE('',*,*,#496,.T.);
#634=ORIENTED_EDGE('',*,*,#497,.T.);
#635=ORIENTED_EDGE('',*,*,#496,.F.);
#636=ORIENTED_EDGE('',*,*,#498,.F.);
#637=ORIENTED_EDGE('',*,*,#499,.T.);
#638=ORIENTED_EDGE('',*,*,#500,.T.);
#639=ORIENTED_EDGE('',*,*,#499,.F.);
#640=ORIENTED_EDGE('',*,*,#501,.T.);
#641=ORIENTED_EDGE('',*,*,#502,.T.);
#642=ORIENTED_EDGE('',*,*,#494,.F.);
#643=ORIENTED_EDGE('',*,*,#502,.F.);
#644=ORIENTED_EDGE('',*,*,#492,.T.);
#645=ORIENTED_EDGE('',*,*,#503,.T.);
#646=ORIENTED_EDGE('',*,*,#497,.F.);
#647=ORIENTED_EDGE('',*,*,#503,.F.);
#648=ORIENTED_EDGE('',*,*,#495,.T.);
#649=ORIENTED_EDGE('',*,*,#504,.T.);
#650=ORIENTED_EDGE('',*,*,#500,.F.);
#651=ORIENTED_EDGE('',*,*,#504,.F.);
#652=ORIENTED_EDGE('',*,*,#501,.F.);
#653=ORIENTED_EDGE('',*,*,#505,.T.);
#654=ORIENTED_EDGE('',*,*,#506,.T.);
#655=ORIENTED_EDGE('',*,*,#507,.T.);
#656=ORIENTED_EDGE('',*,*,#505,.F.);
#657=ORIENTED_EDGE('',*,*,#508,.T.);
#658=ORIENTED_EDGE('',*,*,#509,.T.);
#659=ORIENTED_EDGE('',*,*,#510,.T.);
#660=ORIENTED_EDGE('',*,*,#511,.T.);
#661=ORIENTED_EDGE('',*,*,#510,.F.);
#662=ORIENTED_EDGE('',*,*,#512,.T.);
#663=ORIENTED_EDGE('',*,*,#513,.T.);
#664=ORIENTED_EDGE('',*,*,#514,.T.);
#665=ORIENTED_EDGE('',*,*,#513,.F.);
#666=ORIENTED_EDGE('',*,*,#515,.T.);
#667=ORIENTED_EDGE('',*,*,#516,.F.);
#668=ORIENTED_EDGE('',*,*,#517,.T.);
#669=ORIENTED_EDGE('',*,*,#518,.T.);
#670=ORIENTED_EDGE('',*,*,#519,.T.);
#671=ORIENTED_EDGE('',*,*,#517,.F.);
#672=ORIENTED_EDGE('',*,*,#514,.F.);
#673=ORIENTED_EDGE('',*,*,#520,.T.);
#674=ORIENTED_EDGE('',*,*,#516,.T.);
#675=ORIENTED_EDGE('',*,*,#520,.F.);
#676=ORIENTED_EDGE('',*,*,#511,.F.);
#677=ORIENTED_EDGE('',*,*,#521,.T.);
#678=ORIENTED_EDGE('',*,*,#522,.T.);
#679=ORIENTED_EDGE('',*,*,#521,.F.);
#680=ORIENTED_EDGE('',*,*,#523,.F.);
#681=ORIENTED_EDGE('',*,*,#524,.T.);
#682=ORIENTED_EDGE('',*,*,#498,.T.);
#683=ORIENTED_EDGE('',*,*,#524,.F.);
#684=ORIENTED_EDGE('',*,*,#522,.F.);
#685=ORIENTED_EDGE('',*,*,#525,.T.);
#686=ORIENTED_EDGE('',*,*,#526,.T.);
#687=ORIENTED_EDGE('',*,*,#525,.F.);
#688=ORIENTED_EDGE('',*,*,#527,.F.);
#689=ORIENTED_EDGE('',*,*,#528,.T.);
#690=ORIENTED_EDGE('',*,*,#523,.T.);
#691=ORIENTED_EDGE('',*,*,#528,.F.);
#692=ORIENTED_EDGE('',*,*,#526,.F.);
#693=ORIENTED_EDGE('',*,*,#529,.T.);
#694=ORIENTED_EDGE('',*,*,#527,.T.);
#695=ORIENTED_EDGE('',*,*,#529,.F.);
#696=ORIENTED_EDGE('',*,*,#512,.F.);
#697=ORIENTED_EDGE('',*,*,#530,.T.);
#698=ORIENTED_EDGE('',*,*,#506,.F.);
#699=ORIENTED_EDGE('',*,*,#507,.F.);
#700=ORIENTED_EDGE('',*,*,#530,.F.);
#701=ORIENTED_EDGE('',*,*,#515,.F.);
#702=ORIENTED_EDGE('',*,*,#508,.F.);
#703=ORIENTED_EDGE('',*,*,#509,.F.);
#704=ORIENTED_EDGE('',*,*,#531,.T.);
#705=ORIENTED_EDGE('',*,*,#518,.F.);
#706=ORIENTED_EDGE('',*,*,#519,.F.);
#707=ORIENTED_EDGE('',*,*,#531,.F.);
#708=ORIENTED_EDGE('',*,*,#532,.F.);
#709=ORIENTED_EDGE('',*,*,#533,.T.);
#710=ORIENTED_EDGE('',*,*,#534,.T.);
#711=ORIENTED_EDGE('',*,*,#533,.F.);
#712=ORIENTED_EDGE('',*,*,#534,.F.);
#713=ORIENTED_EDGE('',*,*,#535,.F.);
#714=ORIENTED_EDGE('',*,*,#536,.T.);
#715=ORIENTED_EDGE('',*,*,#537,.T.);
#716=ORIENTED_EDGE('',*,*,#536,.F.);
#717=ORIENTED_EDGE('',*,*,#535,.T.);
#718=ORIENTED_EDGE('',*,*,#532,.T.);
#719=ORIENTED_EDGE('',*,*,#537,.F.);
#720=ORIENTED_EDGE('',*,*,#538,.F.);
#721=ORIENTED_EDGE('',*,*,#539,.T.);
#722=ORIENTED_EDGE('',*,*,#540,.T.);
#723=ORIENTED_EDGE('',*,*,#539,.F.);
#724=ORIENTED_EDGE('',*,*,#538,.T.);
#725=ORIENTED_EDGE('',*,*,#540,.F.);
#726=ORIENTED_EDGE('',*,*,#541,.F.);
#727=ORIENTED_EDGE('',*,*,#542,.T.);
#728=ORIENTED_EDGE('',*,*,#543,.T.);
#729=ORIENTED_EDGE('',*,*,#542,.F.);
#730=ORIENTED_EDGE('',*,*,#543,.F.);
#731=ORIENTED_EDGE('',*,*,#544,.F.);
#732=ORIENTED_EDGE('',*,*,#545,.T.);
#733=ORIENTED_EDGE('',*,*,#546,.T.);
#734=ORIENTED_EDGE('',*,*,#545,.F.);
#735=ORIENTED_EDGE('',*,*,#544,.T.);
#736=ORIENTED_EDGE('',*,*,#541,.T.);
#737=ORIENTED_EDGE('',*,*,#546,.F.);
#738=ORIENTED_EDGE('',*,*,#547,.F.);
#739=ORIENTED_EDGE('',*,*,#548,.T.);
#740=ORIENTED_EDGE('',*,*,#549,.F.);
#741=ORIENTED_EDGE('',*,*,#548,.F.);
#742=ORIENTED_EDGE('',*,*,#547,.T.);
#743=ORIENTED_EDGE('',*,*,#550,.F.);
#744=ORIENTED_EDGE('',*,*,#551,.T.);
#745=ORIENTED_EDGE('',*,*,#552,.T.);
#746=ORIENTED_EDGE('',*,*,#553,.F.);
#747=ORIENTED_EDGE('',*,*,#554,.F.);
#748=ORIENTED_EDGE('',*,*,#555,.F.);
#749=ORIENTED_EDGE('',*,*,#556,.F.);
#750=ORIENTED_EDGE('',*,*,#557,.F.);
#751=ORIENTED_EDGE('',*,*,#553,.T.);
#752=ORIENTED_EDGE('',*,*,#558,.T.);
#753=ORIENTED_EDGE('',*,*,#559,.T.);
#754=ORIENTED_EDGE('',*,*,#560,.T.);
#755=ORIENTED_EDGE('',*,*,#557,.T.);
#756=ORIENTED_EDGE('',*,*,#561,.T.);
#757=ORIENTED_EDGE('',*,*,#562,.T.);
#758=ORIENTED_EDGE('',*,*,#563,.T.);
#759=ORIENTED_EDGE('',*,*,#556,.T.);
#760=ORIENTED_EDGE('',*,*,#564,.F.);
#761=ORIENTED_EDGE('',*,*,#565,.T.);
#762=ORIENTED_EDGE('',*,*,#561,.F.);
#763=ORIENTED_EDGE('',*,*,#555,.T.);
#764=ORIENTED_EDGE('',*,*,#566,.T.);
#765=ORIENTED_EDGE('',*,*,#567,.T.);
#766=ORIENTED_EDGE('',*,*,#564,.T.);
#767=ORIENTED_EDGE('',*,*,#568,.T.);
#768=ORIENTED_EDGE('',*,*,#562,.F.);
#769=ORIENTED_EDGE('',*,*,#565,.F.);
#770=ORIENTED_EDGE('',*,*,#567,.F.);
#771=ORIENTED_EDGE('',*,*,#569,.F.);
#772=ORIENTED_EDGE('',*,*,#559,.F.);
#773=ORIENTED_EDGE('',*,*,#570,.F.);
#774=ORIENTED_EDGE('',*,*,#571,.T.);
#775=ORIENTED_EDGE('',*,*,#572,.T.);
#776=ORIENTED_EDGE('',*,*,#550,.T.);
#777=ORIENTED_EDGE('',*,*,#563,.F.);
#778=ORIENTED_EDGE('',*,*,#568,.F.);
#779=ORIENTED_EDGE('',*,*,#573,.T.);
#780=ORIENTED_EDGE('',*,*,#570,.T.);
#781=ORIENTED_EDGE('',*,*,#558,.F.);
#782=ORIENTED_EDGE('',*,*,#552,.F.);
#783=ORIENTED_EDGE('',*,*,#573,.F.);
#784=ORIENTED_EDGE('',*,*,#551,.F.);
#785=ORIENTED_EDGE('',*,*,#572,.F.);
#786=ORIENTED_EDGE('',*,*,#571,.F.);
#787=ORIENTED_EDGE('',*,*,#549,.T.);
#788=ORIENTED_EDGE('',*,*,#554,.T.);
#789=ORIENTED_EDGE('',*,*,#560,.F.);
#790=ORIENTED_EDGE('',*,*,#569,.T.);
#791=ORIENTED_EDGE('',*,*,#566,.F.);
#792=CYLINDRICAL_SURFACE('',#915,53.);
#793=CYLINDRICAL_SURFACE('',#918,53.);
#794=CYLINDRICAL_SURFACE('',#921,55.);
#795=CYLINDRICAL_SURFACE('',#926,6.5);
#796=CYLINDRICAL_SURFACE('',#929,17.5);
#797=CYLINDRICAL_SURFACE('',#943,23.5);
#798=CYLINDRICAL_SURFACE('',#947,20.);
#799=CYLINDRICAL_SURFACE('',#949,75.);
#800=CYLINDRICAL_SURFACE('',#952,75.);
#801=CYLINDRICAL_SURFACE('',#955,75.);
#802=CYLINDRICAL_SURFACE('',#965,75.);
#803=CYLINDRICAL_SURFACE('',#968,75.);
#804=CYLINDRICAL_SURFACE('',#982,55.);
#805=CYLINDRICAL_SURFACE('',#989,75.);
#806=CYLINDRICAL_SURFACE('',#991,75.);
#807=CYLINDRICAL_SURFACE('',#1002,10.);
#808=CYLINDRICAL_SURFACE('',#1006,13.);
#809=CYLINDRICAL_SURFACE('',#1013,10.);
#810=CYLINDRICAL_SURFACE('',#1019,10.);
#811=CYLINDRICAL_SURFACE('',#1023,13.);
#812=CYLINDRICAL_SURFACE('',#1029,1.51444350940664);
#813=ADVANCED_FACE('',(#114),#792,.F.);
#814=ADVANCED_FACE('',(#115),#793,.F.);
#815=ADVANCED_FACE('',(#116),#794,.T.);
#816=ADVANCED_FACE('',(#117,#80),#89,.T.);
#817=ADVANCED_FACE('',(#118,#81),#90,.F.);
#818=ADVANCED_FACE('',(#119),#795,.F.);
#819=ADVANCED_FACE('',(#120),#796,.T.);
#820=ADVANCED_FACE('',(#121,#82),#91,.T.);
#821=ADVANCED_FACE('',(#122,#83),#92,.F.);
#822=ADVANCED_FACE('',(#123,#84),#93,.F.);
#823=ADVANCED_FACE('',(#124),#77,.F.);
#824=ADVANCED_FACE('',(#125),#78,.F.);
#825=ADVANCED_FACE('',(#126),#79,.T.);
#826=ADVANCED_FACE('',(#127),#797,.T.);
#827=ADVANCED_FACE('',(#128,#85),#94,.F.);
#828=ADVANCED_FACE('',(#129),#798,.F.);
#829=ADVANCED_FACE('',(#130),#799,.T.);
#830=ADVANCED_FACE('',(#131),#800,.T.);
#831=ADVANCED_FACE('',(#132),#801,.T.);
#832=ADVANCED_FACE('',(#133),#43,.F.);
#833=ADVANCED_FACE('',(#134),#44,.F.);
#834=ADVANCED_FACE('',(#135),#45,.F.);
#835=ADVANCED_FACE('',(#136),#802,.T.);
#836=ADVANCED_FACE('',(#137),#803,.T.);
#837=ADVANCED_FACE('',(#138),#46,.T.);
#838=ADVANCED_FACE('',(#139),#47,.T.);
#839=ADVANCED_FACE('',(#140),#804,.F.);
#840=ADVANCED_FACE('',(#141),#48,.F.);
#841=ADVANCED_FACE('',(#142),#49,.F.);
#842=ADVANCED_FACE('',(#143),#805,.T.);
#843=ADVANCED_FACE('',(#144),#806,.T.);
#844=ADVANCED_FACE('',(#145),#50,.F.);
#845=ADVANCED_FACE('',(#146),#51,.T.);
#846=ADVANCED_FACE('',(#147),#52,.T.);
#847=ADVANCED_FACE('',(#148),#807,.F.);
#848=ADVANCED_FACE('',(#149),#95,.T.);
#849=ADVANCED_FACE('',(#150),#808,.T.);
#850=ADVANCED_FACE('',(#151,#86),#96,.T.);
#851=ADVANCED_FACE('',(#152),#97,.F.);
#852=ADVANCED_FACE('',(#153),#809,.T.);
#853=ADVANCED_FACE('',(#154),#98,.T.);
#854=ADVANCED_FACE('',(#155),#99,.F.);
#855=ADVANCED_FACE('',(#156),#810,.F.);
#856=ADVANCED_FACE('',(#157),#100,.T.);
#857=ADVANCED_FACE('',(#158),#811,.T.);
#858=ADVANCED_FACE('',(#159,#87),#101,.T.);
#859=ADVANCED_FACE('',(#160),#102,.F.);
#860=ADVANCED_FACE('',(#161),#812,.T.);
#861=ADVANCED_FACE('',(#162),#103,.T.);
#862=ADVANCED_FACE('',(#163),#104,.F.);
#863=ADVANCED_FACE('',(#164),#105,.T.);
#864=ADVANCED_FACE('',(#165),#106,.T.);
#865=ADVANCED_FACE('',(#166),#107,.T.);
#866=ADVANCED_FACE('',(#167),#108,.F.);
#867=ADVANCED_FACE('',(#168),#109,.F.);
#868=ADVANCED_FACE('',(#169),#110,.F.);
#869=ADVANCED_FACE('',(#170),#111,.F.);
#870=ADVANCED_FACE('',(#171,#88),#112,.T.);
#871=ADVANCED_FACE('',(#172),#113,.T.);
#872=CLOSED_SHELL('',(#813,#814,#815,#816,#817,#818,#819,#820,#821,#822,
#823,#824,#825,#826,#827,#828));
#873=CLOSED_SHELL('',(#829,#830,#831,#832,#833,#834,#835,#836,#837,#838,
#839,#840,#841,#842,#843,#844,#845,#846));
#874=CLOSED_SHELL('',(#847,#848,#849,#850,#851));
#875=CLOSED_SHELL('',(#852,#853,#854));
#876=CLOSED_SHELL('',(#855,#856,#857,#858,#859));
#877=CLOSED_SHELL('',(#860,#861,#862,#863,#864,#865,#866,#867,#868,#869,
#870,#871));
#878=DERIVED_UNIT_ELEMENT(#884,1.);
#879=DERIVED_UNIT_ELEMENT(#1632,-3.);
#880=DERIVED_UNIT_ELEMENT(#884,1.);
#881=DERIVED_UNIT_ELEMENT(#1632,-3.);
#882=DERIVED_UNIT_ELEMENT(#884,1.);
#883=DERIVED_UNIT_ELEMENT(#1632,-3.);
#884=(
MASS_UNIT()
NAMED_UNIT(*)
SI_UNIT(.KILO.,.GRAM.)
);
#885=DERIVED_UNIT((#878,#879));
#886=DERIVED_UNIT((#880,#881));
#887=DERIVED_UNIT((#882,#883));
#888=MEASURE_REPRESENTATION_ITEM('density measure',
POSITIVE_RATIO_MEASURE(7850.),#885);
#889=MEASURE_REPRESENTATION_ITEM('density measure',
POSITIVE_RATIO_MEASURE(7850.),#886);
#890=MEASURE_REPRESENTATION_ITEM('density measure',
POSITIVE_RATIO_MEASURE(7850.),#887);
#891=PROPERTY_DEFINITION_REPRESENTATION(#906,#897);
#892=PROPERTY_DEFINITION_REPRESENTATION(#907,#898);
#893=PROPERTY_DEFINITION_REPRESENTATION(#908,#899);
#894=PROPERTY_DEFINITION_REPRESENTATION(#909,#900);
#895=PROPERTY_DEFINITION_REPRESENTATION(#910,#901);
#896=PROPERTY_DEFINITION_REPRESENTATION(#911,#902);
#897=REPRESENTATION('material name',(#903),#1625);
#898=REPRESENTATION('density',(#888),#1625);
#899=REPRESENTATION('material name',(#904),#1626);
#900=REPRESENTATION('density',(#889),#1626);
#901=REPRESENTATION('material name',(#905),#1629);
#902=REPRESENTATION('density',(#890),#1629);
#903=DESCRIPTIVE_REPRESENTATION_ITEM('Steel','Steel');
#904=DESCRIPTIVE_REPRESENTATION_ITEM('Steel','Steel');
#905=DESCRIPTIVE_REPRESENTATION_ITEM('Steel','Steel');
#906=PROPERTY_DEFINITION('material property','material name',#1667);
#907=PROPERTY_DEFINITION('material property','density of part',#1667);
#908=PROPERTY_DEFINITION('material property','material name',#1668);
#909=PROPERTY_DEFINITION('material property','density of part',#1668);
#910=PROPERTY_DEFINITION('material property','material name',#1671);
#911=PROPERTY_DEFINITION('material property','density of part',#1671);
#912=AXIS2_PLACEMENT_3D('',#1365,#1047,#1048);
#913=AXIS2_PLACEMENT_3D('',#1366,#1049,#1050);
#914=AXIS2_PLACEMENT_3D('',#1367,#1051,#1052);
#915=AXIS2_PLACEMENT_3D('',#1368,#1053,#1054);
#916=AXIS2_PLACEMENT_3D('',#1370,#1055,#1056);
#917=AXIS2_PLACEMENT_3D('',#1373,#1058,#1059);
#918=AXIS2_PLACEMENT_3D('',#1374,#1060,#1061);
#919=AXIS2_PLACEMENT_3D('',#1376,#1062,#1063);
#920=AXIS2_PLACEMENT_3D('',#1379,#1065,#1066);
#921=AXIS2_PLACEMENT_3D('',#1380,#1067,#1068);
#922=AXIS2_PLACEMENT_3D('',#1382,#1069,#1070);
#923=AXIS2_PLACEMENT_3D('',#1385,#1072,#1073);
#924=AXIS2_PLACEMENT_3D('',#1386,#1074,#1075);
#925=AXIS2_PLACEMENT_3D('',#1387,#1076,#1077);
#926=AXIS2_PLACEMENT_3D('',#1388,#1078,#1079);
#927=AXIS2_PLACEMENT_3D('',#1390,#1080,#1081);
#928=AXIS2_PLACEMENT_3D('',#1393,#1083,#1084);
#929=AXIS2_PLACEMENT_3D('',#1394,#1085,#1086);
#930=AXIS2_PLACEMENT_3D('',#1396,#1087,#1088);
#931=AXIS2_PLACEMENT_3D('',#1399,#1090,#1091);
#932=AXIS2_PLACEMENT_3D('',#1400,#1092,#1093);
#933=AXIS2_PLACEMENT_3D('',#1401,#1094,#1095);
#934=AXIS2_PLACEMENT_3D('',#1403,#1096,#1097);
#935=AXIS2_PLACEMENT_3D('',#1404,#1098,#1099);
#936=AXIS2_PLACEMENT_3D('',#1405,#1100,#1101);
#937=AXIS2_PLACEMENT_3D('',#1408,#1102,#1103);
#938=AXIS2_PLACEMENT_3D('',#1409,#1104,#1105);
#939=AXIS2_PLACEMENT_3D('',#1411,#1107,#1108);
#940=AXIS2_PLACEMENT_3D('',#1414,#1110,#1111);
#941=AXIS2_PLACEMENT_3D('',#1415,#1112,#1113);
#942=AXIS2_PLACEMENT_3D('',#1418,#1115,#1116);
#943=AXIS2_PLACEMENT_3D('',#1419,#1117,#1118);
#944=AXIS2_PLACEMENT_3D('',#1422,#1120,#1121);
#945=AXIS2_PLACEMENT_3D('',#1423,#1122,#1123);
#946=AXIS2_PLACEMENT_3D('',#1425,#1124,#1125);
#947=AXIS2_PLACEMENT_3D('',#1426,#1126,#1127);
#948=AXIS2_PLACEMENT_3D('',#1428,#1129,#1130);
#949=AXIS2_PLACEMENT_3D('',#1429,#1131,#1132);
#950=AXIS2_PLACEMENT_3D('',#1431,#1133,#1134);
#951=AXIS2_PLACEMENT_3D('',#1434,#1136,#1137);
#952=AXIS2_PLACEMENT_3D('',#1435,#1138,#1139);
#953=AXIS2_PLACEMENT_3D('',#1437,#1140,#1141);
#954=AXIS2_PLACEMENT_3D('',#1440,#1143,#1144);
#955=AXIS2_PLACEMENT_3D('',#1441,#1145,#1146);
#956=AXIS2_PLACEMENT_3D('',#1443,#1147,#1148);
#957=AXIS2_PLACEMENT_3D('',#1446,#1150,#1151);
#958=AXIS2_PLACEMENT_3D('',#1447,#1152,#1153);
#959=AXIS2_PLACEMENT_3D('',#1449,#1154,#1155);
#960=AXIS2_PLACEMENT_3D('',#1450,#1156,#1157);
#961=AXIS2_PLACEMENT_3D('',#1451,#1158,#1159);
#962=AXIS2_PLACEMENT_3D('',#1452,#1160,#1161);
#963=AXIS2_PLACEMENT_3D('',#1453,#1162,#1163);
#964=AXIS2_PLACEMENT_3D('',#1454,#1164,#1165);
#965=AXIS2_PLACEMENT_3D('',#1455,#1166,#1167);
#966=AXIS2_PLACEMENT_3D('',#1459,#1169,#1170);
#967=AXIS2_PLACEMENT_3D('',#1460,#1171,#1172);
#968=AXIS2_PLACEMENT_3D('',#1461,#1173,#1174);
#969=AXIS2_PLACEMENT_3D('',#1464,#1175,#1176);
#970=AXIS2_PLACEMENT_3D('',#1465,#1177,#1178);
#971=AXIS2_PLACEMENT_3D('',#1468,#1180,#1181);
#972=AXIS2_PLACEMENT_3D('',#1469,#1182,#1183);
#973=AXIS2_PLACEMENT_3D('',#1472,#1184,#1185);
#974=AXIS2_PLACEMENT_3D('',#1474,#1186,#1187);
#975=AXIS2_PLACEMENT_3D('',#1475,#1188,#1189);
#976=AXIS2_PLACEMENT_3D('',#1476,#1190,#1191);
#977=AXIS2_PLACEMENT_3D('',#1477,#1192,#1193);
#978=AXIS2_PLACEMENT_3D('',#1479,#1194,#1195);
#979=AXIS2_PLACEMENT_3D('',#1481,#1196,#1197);
#980=AXIS2_PLACEMENT_3D('',#1483,#1198,#1199);
#981=AXIS2_PLACEMENT_3D('',#1484,#1200,#1201);
#982=AXIS2_PLACEMENT_3D('',#1485,#1202,#1203);
#983=AXIS2_PLACEMENT_3D('',#1487,#1205,#1206);
#984=AXIS2_PLACEMENT_3D('',#1489,#1207,#1208);
#985=AXIS2_PLACEMENT_3D('',#1490,#1209,#1210);
#986=AXIS2_PLACEMENT_3D('',#1491,#1211,#1212);
#987=AXIS2_PLACEMENT_3D('',#1493,#1213,#1214);
#988=AXIS2_PLACEMENT_3D('',#1494,#1215,#1216);
#989=AXIS2_PLACEMENT_3D('',#1495,#1217,#1218);
#990=AXIS2_PLACEMENT_3D('',#1498,#1220,#1221);
#991=AXIS2_PLACEMENT_3D('',#1499,#1222,#1223);
#992=AXIS2_PLACEMENT_3D('',#1501,#1224,#1225);
#993=AXIS2_PLACEMENT_3D('',#1503,#1227,#1228);
#994=AXIS2_PLACEMENT_3D('',#1504,#1229,#1230);
#995=AXIS2_PLACEMENT_3D('',#1505,#1231,#1232);
#996=AXIS2_PLACEMENT_3D('',#1506,#1233,#1234);
#997=AXIS2_PLACEMENT_3D('',#1507,#1235,#1236);
#998=AXIS2_PLACEMENT_3D('',#1508,#1237,#1238);
#999=AXIS2_PLACEMENT_3D('',#1509,#1239,#1240);
#1000=AXIS2_PLACEMENT_3D('',#1510,#1241,#1242);
#1001=AXIS2_PLACEMENT_3D('',#1511,#1243,#1244);
#1002=AXIS2_PLACEMENT_3D('',#1512,#1245,#1246);
#1003=AXIS2_PLACEMENT_3D('',#1514,#1247,#1248);
#1004=AXIS2_PLACEMENT_3D('',#1517,#1250,#1251);
#1005=AXIS2_PLACEMENT_3D('',#1518,#1252,#1253);
#1006=AXIS2_PLACEMENT_3D('',#1519,#1254,#1255);
#1007=AXIS2_PLACEMENT_3D('',#1521,#1256,#1257);
#1008=AXIS2_PLACEMENT_3D('',#1524,#1259,#1260);
#1009=AXIS2_PLACEMENT_3D('',#1525,#1261,#1262);
#1010=AXIS2_PLACEMENT_3D('',#1526,#1263,#1264);
#1011=AXIS2_PLACEMENT_3D('',#1527,#1265,#1266);
#1012=AXIS2_PLACEMENT_3D('',#1528,#1267,#1268);
#1013=AXIS2_PLACEMENT_3D('',#1529,#1269,#1270);
#1014=AXIS2_PLACEMENT_3D('',#1531,#1271,#1272);
#1015=AXIS2_PLACEMENT_3D('',#1534,#1274,#1275);
#1016=AXIS2_PLACEMENT_3D('',#1535,#1276,#1277);
#1017=AXIS2_PLACEMENT_3D('',#1536,#1278,#1279);
#1018=AXIS2_PLACEMENT_3D('',#1537,#1280,#1281);
#1019=AXIS2_PLACEMENT_3D('',#1538,#1282,#1283);
#1020=AXIS2_PLACEMENT_3D('',#1540,#1284,#1285);
#1021=AXIS2_PLACEMENT_3D('',#1543,#1287,#1288);
#1022=AXIS2_PLACEMENT_3D('',#1544,#1289,#1290);
#1023=AXIS2_PLACEMENT_3D('',#1545,#1291,#1292);
#1024=AXIS2_PLACEMENT_3D('',#1547,#1293,#1294);
#1025=AXIS2_PLACEMENT_3D('',#1550,#1296,#1297);
#1026=AXIS2_PLACEMENT_3D('',#1551,#1298,#1299);
#1027=AXIS2_PLACEMENT_3D('',#1552,#1300,#1301);
#1028=AXIS2_PLACEMENT_3D('',#1553,#1302,#1303);
#1029=AXIS2_PLACEMENT_3D('',#1554,#1304,#1305);
#1030=AXIS2_PLACEMENT_3D('',#1556,#1306,#1307);
#1031=AXIS2_PLACEMENT_3D('',#1559,#1309,#1310);
#1032=AXIS2_PLACEMENT_3D('',#1560,#1311,#1312);
#1033=AXIS2_PLACEMENT_3D('',#1561,#1313,#1314);
#1034=AXIS2_PLACEMENT_3D('',#1578,#1323,#1324);
#1035=AXIS2_PLACEMENT_3D('',#1584,#1328,#1329);
#1036=AXIS2_PLACEMENT_3D('',#1590,#1333,#1334);
#1037=AXIS2_PLACEMENT_3D('',#1594,#1337,#1338);
#1038=AXIS2_PLACEMENT_3D('',#1598,#1341,#1342);
#1039=AXIS2_PLACEMENT_3D('',#1605,#1347,#1348);
#1040=AXIS2_PLACEMENT_3D('',#1607,#1350,#1351);
#1041=AXIS2_PLACEMENT_3D('',#1609,#1353,#1354);
#1042=AXIS2_PLACEMENT_3D('',#1610,#1355,#1356);
#1043=AXIS2_PLACEMENT_3D('',#1611,#1357,#1358);
#1044=AXIS2_PLACEMENT_3D('',#1612,#1359,#1360);
#1045=AXIS2_PLACEMENT_3D('',#1613,#1361,#1362);
#1046=AXIS2_PLACEMENT_3D('',#1614,#1363,#1364);
#1047=DIRECTION('axis',(0.,0.,1.));
#1048=DIRECTION('refdir',(1.,0.,0.));
#1049=DIRECTION('axis',(0.,0.,1.));
#1050=DIRECTION('refdir',(1.,0.,0.));
#1051=DIRECTION('axis',(0.,0.,1.));
#1052=DIRECTION('refdir',(1.,0.,0.));
#1053=DIRECTION('center_axis',(-1.,0.,0.));
#1054=DIRECTION('ref_axis',(0.,0.,1.));
#1055=DIRECTION('center_axis',(1.,0.,0.));
#1056=DIRECTION('ref_axis',(0.,0.,-1.));
#1057=DIRECTION('',(-1.,0.,0.));
#1058=DIRECTION('center_axis',(-1.,0.,0.));
#1059=DIRECTION('ref_axis',(0.,0.,1.));
#1060=DIRECTION('center_axis',(-1.,0.,0.));
#1061=DIRECTION('ref_axis',(0.,0.,1.));
#1062=DIRECTION('center_axis',(-1.,0.,0.));
#1063=DIRECTION('ref_axis',(0.,0.,1.));
#1064=DIRECTION('',(-1.,0.,0.));
#1065=DIRECTION('center_axis',(1.,0.,0.));
#1066=DIRECTION('ref_axis',(0.,0.,-1.));
#1067=DIRECTION('center_axis',(-1.,0.,0.));
#1068=DIRECTION('ref_axis',(0.,0.,1.));
#1069=DIRECTION('center_axis',(1.,0.,0.));
#1070=DIRECTION('ref_axis',(0.,0.,-1.));
#1071=DIRECTION('',(1.,0.,0.));
#1072=DIRECTION('center_axis',(1.,0.,0.));
#1073=DIRECTION('ref_axis',(0.,0.,-1.));
#1074=DIRECTION('center_axis',(1.,0.,0.));
#1075=DIRECTION('ref_axis',(0.,1.,0.));
#1076=DIRECTION('center_axis',(1.,0.,0.));
#1077=DIRECTION('ref_axis',(0.,1.,0.));
#1078=DIRECTION('center_axis',(-1.,0.,0.));
#1079=DIRECTION('ref_axis',(0.,0.,1.));
#1080=DIRECTION('center_axis',(1.,0.,0.));
#1081=DIRECTION('ref_axis',(0.,0.,-1.));
#1082=DIRECTION('',(-1.,0.,0.));
#1083=DIRECTION('center_axis',(1.,0.,0.));
#1084=DIRECTION('ref_axis',(0.,0.,-1.));
#1085=DIRECTION('center_axis',(-1.,0.,0.));
#1086=DIRECTION('ref_axis',(0.,0.,1.));
#1087=DIRECTION('center_axis',(-1.,0.,0.));
#1088=DIRECTION('ref_axis',(0.,0.,1.));
#1089=DIRECTION('',(1.,0.,0.));
#1090=DIRECTION('center_axis',(1.,0.,0.));
#1091=DIRECTION('ref_axis',(0.,0.,-1.));
#1092=DIRECTION('center_axis',(1.,0.,0.));
#1093=DIRECTION('ref_axis',(0.,1.,0.));
#1094=DIRECTION('center_axis',(1.,0.,0.));
#1095=DIRECTION('ref_axis',(0.,0.,-1.));
#1096=DIRECTION('center_axis',(1.,0.,0.));
#1097=DIRECTION('ref_axis',(0.,0.,-1.));
#1098=DIRECTION('center_axis',(-1.,0.,0.));
#1099=DIRECTION('ref_axis',(0.,0.,1.));
#1100=DIRECTION('center_axis',(-1.,0.,0.));
#1101=DIRECTION('ref_axis',(0.,0.,1.));
#1102=DIRECTION('center_axis',(1.,0.,0.));
#1103=DIRECTION('ref_axis',(0.,0.,-1.));
#1104=DIRECTION('center_axis',(1.,0.,0.));
#1105=DIRECTION('ref_axis',(0.,0.,-1.));
#1106=DIRECTION('',(-0.282577226344736,-1.17473577059549E-16,-0.959244552317768));
#1107=DIRECTION('center_axis',(1.,0.,0.));
#1108=DIRECTION('ref_axis',(0.,0.,-1.));
#1109=DIRECTION('',(0.95924455231777,-3.46057295755012E-17,0.282577226344731));
#1110=DIRECTION('center_axis',(1.,0.,0.));
#1111=DIRECTION('ref_axis',(0.,0.,-1.));
#1112=DIRECTION('center_axis',(1.,0.,0.));
#1113=DIRECTION('ref_axis',(0.,0.,-1.));
#1114=DIRECTION('',(-0.499999999999998,1.06057523872491E-16,-0.86602540378444));
#1115=DIRECTION('center_axis',(1.,0.,0.));
#1116=DIRECTION('ref_axis',(0.,0.,-1.));
#1117=DIRECTION('center_axis',(1.,0.,0.));
#1118=DIRECTION('ref_axis',(0.,0.,-1.));
#1119=DIRECTION('',(-1.,0.,0.));
#1120=DIRECTION('center_axis',(1.,0.,0.));
#1121=DIRECTION('ref_axis',(0.,0.,-1.));
#1122=DIRECTION('center_axis',(1.,0.,0.));
#1123=DIRECTION('ref_axis',(0.,0.,-1.));
#1124=DIRECTION('center_axis',(1.,0.,0.));
#1125=DIRECTION('ref_axis',(0.,0.,-1.));
#1126=DIRECTION('center_axis',(1.,0.,0.));
#1127=DIRECTION('ref_axis',(0.,0.,-1.));
#1128=DIRECTION('',(1.,0.,0.));
#1129=DIRECTION('axis',(0.,0.,1.));
#1130=DIRECTION('refdir',(1.,0.,0.));
#1131=DIRECTION('center_axis',(-1.,0.,0.));
#1132=DIRECTION('ref_axis',(0.,0.,1.));
#1133=DIRECTION('center_axis',(-1.,0.,0.));
#1134=DIRECTION('ref_axis',(0.,0.,1.));
#1135=DIRECTION('',(1.,0.,0.));
#1136=DIRECTION('center_axis',(-1.,0.,0.));
#1137=DIRECTION('ref_axis',(0.,0.,1.));
#1138=DIRECTION('center_axis',(-1.,0.,0.));
#1139=DIRECTION('ref_axis',(0.,0.,1.));
#1140=DIRECTION('center_axis',(-1.,0.,0.));
#1141=DIRECTION('ref_axis',(0.,0.,1.));
#1142=DIRECTION('',(1.,0.,0.));
#1143=DIRECTION('center_axis',(-1.,0.,0.));
#1144=DIRECTION('ref_axis',(0.,0.,1.));
#1145=DIRECTION('center_axis',(-1.,0.,0.));
#1146=DIRECTION('ref_axis',(0.,0.,1.));
#1147=DIRECTION('center_axis',(-1.,0.,0.));
#1148=DIRECTION('ref_axis',(0.,0.,1.));
#1149=DIRECTION('',(1.,0.,0.));
#1150=DIRECTION('center_axis',(-1.,0.,0.));
#1151=DIRECTION('ref_axis',(0.,0.,1.));
#1152=DIRECTION('center_axis',(1.,0.,0.));
#1153=DIRECTION('ref_axis',(0.,0.,1.));
#1154=DIRECTION('center_axis',(-1.,0.,0.));
#1155=DIRECTION('ref_axis',(0.,0.,1.));
#1156=DIRECTION('center_axis',(0.,-1.,-1.22464679914735E-16));
#1157=DIRECTION('ref_axis',(0.,1.22464679914735E-16,-1.));
#1158=DIRECTION('center_axis',(1.,0.,0.));
#1159=DIRECTION('ref_axis',(0.,0.,1.));
#1160=DIRECTION('center_axis',(0.,-1.,-1.22464679914735E-16));
#1161=DIRECTION('ref_axis',(0.,1.22464679914735E-16,-1.));
#1162=DIRECTION('center_axis',(1.,0.,0.));
#1163=DIRECTION('ref_axis',(0.,0.,1.));
#1164=DIRECTION('center_axis',(0.,-1.,-1.22464679914735E-16));
#1165=DIRECTION('ref_axis',(0.,1.22464679914735E-16,-1.));
#1166=DIRECTION('center_axis',(-1.,0.,0.));
#1167=DIRECTION('ref_axis',(0.,0.,1.));
#1168=DIRECTION('',(1.,0.,0.));
#1169=DIRECTION('center_axis',(1.,0.,0.));
#1170=DIRECTION('ref_axis',(0.,0.,-1.));
#1171=DIRECTION('center_axis',(1.,0.,0.));
#1172=DIRECTION('ref_axis',(0.,0.,-1.));
#1173=DIRECTION('center_axis',(-1.,0.,0.));
#1174=DIRECTION('ref_axis',(0.,0.,1.));
#1175=DIRECTION('center_axis',(1.,0.,0.));
#1176=DIRECTION('ref_axis',(0.,0.,-1.));
#1177=DIRECTION('center_axis',(1.,0.,0.));
#1178=DIRECTION('ref_axis',(0.,0.,-1.));
#1179=DIRECTION('',(1.,0.,0.));
#1180=DIRECTION('center_axis',(-1.,0.,0.));
#1181=DIRECTION('ref_axis',(0.,0.,1.));
#1182=DIRECTION('center_axis',(-1.,0.,0.));
#1183=DIRECTION('ref_axis',(0.,0.,1.));
#1184=DIRECTION('center_axis',(-1.,0.,0.));
#1185=DIRECTION('ref_axis',(0.,0.,1.));
#1186=DIRECTION('center_axis',(0.,-1.,1.22464679914735E-16));
#1187=DIRECTION('ref_axis',(0.,-1.22464679914735E-16,-1.));
#1188=DIRECTION('center_axis',(-1.,0.,0.));
#1189=DIRECTION('ref_axis',(0.,0.,1.));
#1190=DIRECTION('center_axis',(-1.,0.,0.));
#1191=DIRECTION('ref_axis',(0.,0.,1.));
#1192=DIRECTION('center_axis',(-1.,0.,0.));
#1193=DIRECTION('ref_axis',(0.,0.,1.));
#1194=DIRECTION('center_axis',(-1.,0.,0.));
#1195=DIRECTION('ref_axis',(0.,0.,1.));
#1196=DIRECTION('center_axis',(0.,-1.,1.22464679914735E-16));
#1197=DIRECTION('ref_axis',(0.,-1.22464679914735E-16,-1.));
#1198=DIRECTION('center_axis',(1.,0.,0.));
#1199=DIRECTION('ref_axis',(0.,0.,-1.));
#1200=DIRECTION('center_axis',(1.,0.,0.));
#1201=DIRECTION('ref_axis',(0.,0.,-1.));
#1202=DIRECTION('center_axis',(-1.,0.,0.));
#1203=DIRECTION('ref_axis',(0.,0.,1.));
#1204=DIRECTION('',(-1.,0.,0.));
#1205=DIRECTION('center_axis',(-1.,0.,0.));
#1206=DIRECTION('ref_axis',(0.,0.,1.));
#1207=DIRECTION('center_axis',(0.,1.,-1.22464679914735E-16));
#1208=DIRECTION('ref_axis',(0.,-1.22464679914735E-16,-1.));
#1209=DIRECTION('center_axis',(-1.,0.,0.));
#1210=DIRECTION('ref_axis',(0.,0.,1.));
#1211=DIRECTION('center_axis',(-1.,0.,0.));
#1212=DIRECTION('ref_axis',(0.,0.,1.));
#1213=DIRECTION('center_axis',(-1.,0.,0.));
#1214=DIRECTION('ref_axis',(0.,0.,1.));
#1215=DIRECTION('center_axis',(0.,1.,-1.22464679914735E-16));
#1216=DIRECTION('ref_axis',(0.,-1.22464679914735E-16,-1.));
#1217=DIRECTION('center_axis',(-1.,0.,0.));
#1218=DIRECTION('ref_axis',(0.,0.,1.));
#1219=DIRECTION('',(1.,0.,0.));
#1220=DIRECTION('center_axis',(-1.,0.,0.));
#1221=DIRECTION('ref_axis',(0.,0.,1.));
#1222=DIRECTION('center_axis',(-1.,0.,0.));
#1223=DIRECTION('ref_axis',(0.,0.,1.));
#1224=DIRECTION('center_axis',(-1.,0.,0.));
#1225=DIRECTION('ref_axis',(0.,0.,1.));
#1226=DIRECTION('',(1.,0.,0.));
#1227=DIRECTION('center_axis',(-1.,0.,0.));
#1228=DIRECTION('ref_axis',(0.,0.,1.));
#1229=DIRECTION('center_axis',(0.,1.,-1.22464679914735E-16));
#1230=DIRECTION('ref_axis',(0.,-1.22464679914735E-16,-1.));
#1231=DIRECTION('center_axis',(1.,0.,0.));
#1232=DIRECTION('ref_axis',(0.,0.,-1.));
#1233=DIRECTION('center_axis',(0.,-1.,-1.22464679914735E-16));
#1234=DIRECTION('ref_axis',(0.,-1.22464679914735E-16,1.));
#1235=DIRECTION('center_axis',(1.,0.,0.));
#1236=DIRECTION('ref_axis',(0.,0.,-1.));
#1237=DIRECTION('center_axis',(0.,-1.,-1.22464679914735E-16));
#1238=DIRECTION('ref_axis',(0.,-1.22464679914735E-16,1.));
#1239=DIRECTION('',(0.,0.,1.));
#1240=DIRECTION('',(1.,0.,0.));
#1241=DIRECTION('',(0.,0.,1.));
#1242=DIRECTION('',(1.,0.,0.));
#1243=DIRECTION('axis',(0.,0.,1.));
#1244=DIRECTION('refdir',(1.,0.,0.));
#1245=DIRECTION('center_axis',(0.,-1.,0.));
#1246=DIRECTION('ref_axis',(-1.,0.,0.));
#1247=DIRECTION('center_axis',(0.,-1.,0.));
#1248=DIRECTION('ref_axis',(-1.,0.,0.));
#1249=DIRECTION('',(0.,-1.,0.));
#1250=DIRECTION('center_axis',(0.,-1.,0.));
#1251=DIRECTION('ref_axis',(-1.,0.,0.));
#1252=DIRECTION('center_axis',(0.,1.,0.));
#1253=DIRECTION('ref_axis',(-1.,0.,0.));
#1254=DIRECTION('center_axis',(0.,1.,0.));
#1255=DIRECTION('ref_axis',(1.,0.,0.));
#1256=DIRECTION('center_axis',(0.,1.,0.));
#1257=DIRECTION('ref_axis',(1.,0.,0.));
#1258=DIRECTION('',(0.,-1.,0.));
#1259=DIRECTION('center_axis',(0.,1.,0.));
#1260=DIRECTION('ref_axis',(1.,0.,0.));
#1261=DIRECTION('center_axis',(0.,1.,0.));
#1262=DIRECTION('ref_axis',(1.,0.,0.));
#1263=DIRECTION('center_axis',(0.,1.,0.));
#1264=DIRECTION('ref_axis',(1.,0.,0.));
#1265=DIRECTION('axis',(0.,0.,1.));
#1266=DIRECTION('refdir',(1.,0.,0.));
#1267=DIRECTION('axis',(0.,0.,1.));
#1268=DIRECTION('refdir',(1.,0.,0.));
#1269=DIRECTION('center_axis',(0.,1.,0.));
#1270=DIRECTION('ref_axis',(1.,0.,0.));
#1271=DIRECTION('center_axis',(0.,1.,0.));
#1272=DIRECTION('ref_axis',(1.,0.,0.));
#1273=DIRECTION('',(0.,-1.,0.));
#1274=DIRECTION('center_axis',(0.,1.,0.));
#1275=DIRECTION('ref_axis',(1.,0.,0.));
#1276=DIRECTION('center_axis',(0.,1.,0.));
#1277=DIRECTION('ref_axis',(1.,0.,0.));
#1278=DIRECTION('center_axis',(0.,1.,0.));
#1279=DIRECTION('ref_axis',(1.,0.,0.));
#1280=DIRECTION('',(1.28696131492285E-16,7.51944459381663E-18,1.00000000000001));
#1281=DIRECTION('',(0.999999999999999,3.87360353441008E-16,-1.89100739708011E-34));
#1282=DIRECTION('center_axis',(0.,-1.,0.));
#1283=DIRECTION('ref_axis',(-1.,0.,0.));
#1284=DIRECTION('center_axis',(0.,-1.,0.));
#1285=DIRECTION('ref_axis',(-1.,0.,0.));
#1286=DIRECTION('',(0.,-1.,0.));
#1287=DIRECTION('center_axis',(0.,-1.,0.));
#1288=DIRECTION('ref_axis',(-1.,0.,0.));
#1289=DIRECTION('center_axis',(0.,1.,0.));
#1290=DIRECTION('ref_axis',(-1.,0.,0.));
#1291=DIRECTION('center_axis',(0.,1.,0.));
#1292=DIRECTION('ref_axis',(1.,0.,0.));
#1293=DIRECTION('center_axis',(0.,1.,0.));
#1294=DIRECTION('ref_axis',(1.,0.,0.));
#1295=DIRECTION('',(0.,-1.,0.));
#1296=DIRECTION('center_axis',(0.,1.,0.));
#1297=DIRECTION('ref_axis',(1.,0.,0.));
#1298=DIRECTION('center_axis',(0.,1.,0.));
#1299=DIRECTION('ref_axis',(1.,0.,0.));
#1300=DIRECTION('center_axis',(0.,1.,0.));
#1301=DIRECTION('ref_axis',(1.,0.,0.));
#1302=DIRECTION('',(1.28696131492285E-16,7.51944459381722E-18,1.00000000000001));
#1303=DIRECTION('',(0.999999999999999,3.87360353441008E-16,-1.89100739708011E-34));
#1304=DIRECTION('center_axis',(0.,1.,0.));
#1305=DIRECTION('ref_axis',(-1.,0.,0.));
#1306=DIRECTION('center_axis',(0.,1.,0.));
#1307=DIRECTION('ref_axis',(-1.,0.,0.));
#1308=DIRECTION('',(0.,-1.,0.));
#1309=DIRECTION('center_axis',(0.,-1.,0.));
#1310=DIRECTION('ref_axis',(-1.,0.,0.));
#1311=DIRECTION('center_axis',(0.,1.,0.));
#1312=DIRECTION('ref_axis',(-1.,0.,0.));
#1313=DIRECTION('center_axis',(-1.,0.,0.));
#1314=DIRECTION('ref_axis',(0.,0.,1.));
#1315=DIRECTION('',(0.,-1.,0.));
#1316=DIRECTION('',(0.,0.,1.));
#1317=DIRECTION('',(0.,-1.,0.));
#1318=DIRECTION('',(0.,0.,-1.));
#1319=DIRECTION('',(0.,1.,0.));
#1320=DIRECTION('',(0.,0.,1.));
#1321=DIRECTION('',(0.,-1.,0.));
#1322=DIRECTION('',(0.,0.,-1.));
#1323=DIRECTION('center_axis',(0.,1.,0.));
#1324=DIRECTION('ref_axis',(0.,0.,1.));
#1325=DIRECTION('',(-1.,0.,0.));
#1326=DIRECTION('',(0.,0.,1.));
#1327=DIRECTION('',(1.,0.,0.));
#1328=DIRECTION('center_axis',(0.,1.,0.));
#1329=DIRECTION('ref_axis',(0.,0.,1.));
#1330=DIRECTION('',(-1.,0.,0.));
#1331=DIRECTION('',(0.,0.,1.));
#1332=DIRECTION('',(1.,0.,0.));
#1333=DIRECTION('center_axis',(0.,0.,-1.));
#1334=DIRECTION('ref_axis',(-1.,0.,0.));
#1335=DIRECTION('',(1.,0.,0.));
#1336=DIRECTION('',(0.,1.,0.));
#1337=DIRECTION('center_axis',(0.,1.,0.));
#1338=DIRECTION('ref_axis',(1.,0.,0.));
#1339=DIRECTION('',(-1.,0.,0.));
#1340=DIRECTION('',(0.,0.,-1.));
#1341=DIRECTION('center_axis',(1.,0.,0.));
#1342=DIRECTION('ref_axis',(0.,0.,-1.));
#1343=DIRECTION('',(0.,-1.,0.));
#1344=DIRECTION('',(0.,-1.,0.));
#1345=DIRECTION('',(0.,1.,0.));
#1346=DIRECTION('',(0.,0.,-1.));
#1347=DIRECTION('center_axis',(0.,0.,-1.));
#1348=DIRECTION('ref_axis',(-1.,0.,0.));
#1349=DIRECTION('',(1.,0.,0.));
#1350=DIRECTION('center_axis',(0.,0.,1.));
#1351=DIRECTION('ref_axis',(1.,0.,0.));
#1352=DIRECTION('',(-1.,0.,0.));
#1353=DIRECTION('center_axis',(0.,1.,0.));
#1354=DIRECTION('ref_axis',(1.,0.,0.));
#1355=DIRECTION('center_axis',(0.,0.,1.));
#1356=DIRECTION('ref_axis',(1.,0.,0.));
#1357=DIRECTION('',(0.,0.,1.));
#1358=DIRECTION('',(-8.05883137999785E-14,1.,0.));
#1359=DIRECTION('',(0.,0.,1.));
#1360=DIRECTION('',(-8.05883137999785E-14,1.,0.));
#1361=DIRECTION('',(-9.86076131526265E-32,3.19189119579733E-16,-1.));
#1362=DIRECTION('',(0.999999999999999,5.12324082008695E-32,-2.46519032881566E-32));
#1363=DIRECTION('',(-9.86076131526265E-32,3.19189119579733E-16,-1.));
#1364=DIRECTION('',(0.999999999999999,5.12324082008695E-32,-2.46519032881566E-32));
#1365=CARTESIAN_POINT('',(0.,0.,0.));
#1366=CARTESIAN_POINT('',(0.,0.,0.));
#1367=CARTESIAN_POINT('',(0.,0.,0.));
#1368=CARTESIAN_POINT('Origin',(21.,0.,3.24531401774048E-15));
#1369=CARTESIAN_POINT('',(21.,0.,-53.));
#1370=CARTESIAN_POINT('Origin',(21.,0.,3.24531401774048E-15));
#1371=CARTESIAN_POINT('',(18.,-6.49062803548097E-15,-53.));
#1372=CARTESIAN_POINT('',(21.,-6.49062803548097E-15,-53.));
#1373=CARTESIAN_POINT('Origin',(18.,0.,3.24531401774048E-15));
#1374=CARTESIAN_POINT('Origin',(21.,0.,3.24531401774048E-15));
#1375=CARTESIAN_POINT('',(-20.,-6.49062803548097E-15,-53.));
#1376=CARTESIAN_POINT('Origin',(-20.,0.,1.07156594925393E-15));
#1377=CARTESIAN_POINT('',(-21.,0.,-53.));
#1378=CARTESIAN_POINT('',(21.,-6.49062803548097E-15,-53.));
#1379=CARTESIAN_POINT('Origin',(-21.,0.,3.24531401774048E-15));
#1380=CARTESIAN_POINT('Origin',(21.,0.,3.36777869765522E-15));
#1381=CARTESIAN_POINT('',(-21.,0.,-55.));
#1382=CARTESIAN_POINT('Origin',(-21.,0.,3.36777869765522E-15));
#1383=CARTESIAN_POINT('',(21.,0.,-55.));
#1384=CARTESIAN_POINT('',(21.,-6.73555739531044E-15,-55.));
#1385=CARTESIAN_POINT('Origin',(21.,0.,3.36777869765522E-15));
#1386=CARTESIAN_POINT('Origin',(21.,0.,0.));
#1387=CARTESIAN_POINT('Origin',(-21.,0.,0.));
#1388=CARTESIAN_POINT('Origin',(29.,0.,3.9801020972289E-16));
#1389=CARTESIAN_POINT('',(29.,0.,-6.5));
#1390=CARTESIAN_POINT('Origin',(29.,0.,3.9801020972289E-16));
#1391=CARTESIAN_POINT('',(-10.,0.,-6.5));
#1392=CARTESIAN_POINT('',(29.,-7.9602041944578E-16,-6.5));
#1393=CARTESIAN_POINT('Origin',(-10.,0.,1.07156594925393E-15));
#1394=CARTESIAN_POINT('Origin',(29.,0.,1.07156594925393E-15));
#1395=CARTESIAN_POINT('',(18.,-2.14313189850787E-15,-17.5));
#1396=CARTESIAN_POINT('Origin',(18.,0.,1.07156594925393E-15));
#1397=CARTESIAN_POINT('',(29.,0.,-17.5));
#1398=CARTESIAN_POINT('',(29.,-2.14313189850787E-15,-17.5));
#1399=CARTESIAN_POINT('Origin',(29.,0.,1.07156594925393E-15));
#1400=CARTESIAN_POINT('Origin',(29.,0.,0.));
#1401=CARTESIAN_POINT('Origin',(-10.,0.,13.25));
#1402=CARTESIAN_POINT('',(-10.,-2.44929359829471E-15,20.));
#1403=CARTESIAN_POINT('Origin',(-10.,0.,1.07156594925393E-15));
#1404=CARTESIAN_POINT('Origin',(18.,0.,29.75));
#1405=CARTESIAN_POINT('Origin',(-20.,0.,1.07156594925393E-15));
#1406=CARTESIAN_POINT('',(-13.5239102533818,0.,-31.0160846996713));
#1407=CARTESIAN_POINT('',(-13.5239102533818,-3.79837488495357E-15,31.0160846996713));
#1408=CARTESIAN_POINT('Origin',(-13.5239102533818,0.,1.07156594925393E-15));
#1409=CARTESIAN_POINT('Origin',(-13.5239102533818,0.,1.07156594925393E-15));
#1410=CARTESIAN_POINT('',(-20.,-6.49062803548097E-15,-53.));
#1411=CARTESIAN_POINT('Origin',(-13.5239102533818,0.,1.07156594925393E-15));
#1412=CARTESIAN_POINT('',(-11.881197846483,-3.85763741731417E-15,31.5));
#1413=CARTESIAN_POINT('',(-13.5239102533818,-3.79837488495357E-15,31.0160846996713));
#1414=CARTESIAN_POINT('Origin',(-11.881197846483,0.,1.07156594925393E-15));
#1415=CARTESIAN_POINT('Origin',(-16.5,0.,1.07156594925393E-15));
#1416=CARTESIAN_POINT('',(-16.5,-2.87791997799628E-15,23.5));
#1417=CARTESIAN_POINT('',(-16.5,-2.87791997799628E-15,23.5));
#1418=CARTESIAN_POINT('Origin',(-16.5,0.,1.07156594925393E-15));
#1419=CARTESIAN_POINT('Origin',(14.5,0.,1.07156594925393E-15));
#1420=CARTESIAN_POINT('',(-17.,-2.87791997799628E-15,23.5));
#1421=CARTESIAN_POINT('',(14.5,-2.87791997799628E-15,23.5));
#1422=CARTESIAN_POINT('Origin',(-17.,0.,1.07156594925393E-15));
#1423=CARTESIAN_POINT('Origin',(-17.,0.,21.75));
#1424=CARTESIAN_POINT('',(-17.,-2.44929359829471E-15,20.));
#1425=CARTESIAN_POINT('Origin',(-17.,0.,1.07156594925393E-15));
#1426=CARTESIAN_POINT('Origin',(14.5,0.,1.07156594925393E-15));
#1427=CARTESIAN_POINT('',(14.5,-2.44929359829471E-15,20.));
#1428=CARTESIAN_POINT('',(0.,0.,0.));
#1429=CARTESIAN_POINT('Origin',(7.62629648670554,0.,0.));
#1430=CARTESIAN_POINT('',(10.5,-9.18485099360515E-15,-75.));
#1431=CARTESIAN_POINT('Origin',(10.5,0.,0.));
#1432=CARTESIAN_POINT('',(13.5,-9.18485099360515E-15,-75.));
#1433=CARTESIAN_POINT('',(7.62629648670554,-9.18485099360515E-15,-75.));
#1434=CARTESIAN_POINT('Origin',(13.5,0.,0.));
#1435=CARTESIAN_POINT('Origin',(7.62629648670554,0.,0.));
#1436=CARTESIAN_POINT('',(4.5,-9.18485099360515E-15,-75.));
#1437=CARTESIAN_POINT('Origin',(4.5,0.,0.));
#1438=CARTESIAN_POINT('',(7.5,-9.18485099360515E-15,-75.));
#1439=CARTESIAN_POINT('',(7.62629648670554,-9.18485099360515E-15,-75.));
#1440=CARTESIAN_POINT('Origin',(7.5,0.,0.));
#1441=CARTESIAN_POINT('Origin',(7.62629648670554,0.,0.));
#1442=CARTESIAN_POINT('',(-1.5,-9.18485099360515E-15,-75.));
#1443=CARTESIAN_POINT('Origin',(-1.5,0.,0.));
#1444=CARTESIAN_POINT('',(1.5,-9.18485099360515E-15,-75.));
#1445=CARTESIAN_POINT('',(7.62629648670554,-9.18485099360515E-15,-75.));
#1446=CARTESIAN_POINT('Origin',(1.5,0.,0.));
#1447=CARTESIAN_POINT('Origin',(15.,0.,0.));
#1448=CARTESIAN_POINT('',(16.5,9.18485099360515E-15,-75.));
#1449=CARTESIAN_POINT('Origin',(16.5,0.,0.));
#1450=CARTESIAN_POINT('Origin',(15.,9.30808107776935E-15,-76.00625));
#1451=CARTESIAN_POINT('Origin',(9.,0.,0.));
#1452=CARTESIAN_POINT('Origin',(9.,9.30808107776935E-15,-76.00625));
#1453=CARTESIAN_POINT('Origin',(3.,0.,0.));
#1454=CARTESIAN_POINT('Origin',(3.,9.30808107776935E-15,-76.00625));
#1455=CARTESIAN_POINT('Origin',(7.62629648670554,0.,0.));
#1456=CARTESIAN_POINT('',(17.4813792900975,0.,-75.));
#1457=CARTESIAN_POINT('',(7.62629648670554,-9.18485099360515E-15,-75.));
#1458=CARTESIAN_POINT('',(17.4813792900975,-9.18485099360515E-15,75.));
#1459=CARTESIAN_POINT('Origin',(17.4813792900975,0.,0.));
#1460=CARTESIAN_POINT('Origin',(17.4813792900975,0.,0.));
#1461=CARTESIAN_POINT('Origin',(7.62629648670554,0.,0.));
#1462=CARTESIAN_POINT('',(-17.4813792900975,0.,-75.));
#1463=CARTESIAN_POINT('',(-17.4813792900975,-9.18485099360515E-15,75.));
#1464=CARTESIAN_POINT('Origin',(-17.4813792900975,0.,0.));
#1465=CARTESIAN_POINT('Origin',(-17.4813792900975,0.,0.));
#1466=CARTESIAN_POINT('',(-16.5,-9.18485099360515E-15,-75.));
#1467=CARTESIAN_POINT('',(7.62629648670554,-9.18485099360515E-15,-75.));
#1468=CARTESIAN_POINT('Origin',(-16.5,0.,0.));
#1469=CARTESIAN_POINT('Origin',(-29.5,0.,0.));
#1470=CARTESIAN_POINT('',(20.448624297893,0.,72.4421052631579));
#1471=CARTESIAN_POINT('',(20.448624297893,-8.8715992334022E-15,-72.4421052631579));
#1472=CARTESIAN_POINT('Origin',(20.448624297893,0.,0.));
#1473=CARTESIAN_POINT('',(20.,-6.73555739531044E-15,-55.));
#1474=CARTESIAN_POINT('Origin',(-29.5,-7.9602041944578E-15,-65.));
#1475=CARTESIAN_POINT('Origin',(20.,0.,0.));
#1476=CARTESIAN_POINT('Origin',(20.448624297893,0.,0.));
#1477=CARTESIAN_POINT('Origin',(29.5,0.,0.));
#1478=CARTESIAN_POINT('',(-20.,-6.73555739531044E-15,-55.));
#1479=CARTESIAN_POINT('Origin',(-20.,0.,0.));
#1480=CARTESIAN_POINT('',(-20.448624297893,0.,-72.4421052631579));
#1481=CARTESIAN_POINT('Origin',(29.5,-7.9602041944578E-15,-65.));
#1482=CARTESIAN_POINT('',(-20.448624297893,-8.8715992334022E-15,72.4421052631579));
#1483=CARTESIAN_POINT('Origin',(-20.448624297893,0.,0.));
#1484=CARTESIAN_POINT('Origin',(-20.448624297893,0.,0.));
#1485=CARTESIAN_POINT('Origin',(7.62629648670554,0.,0.));
#1486=CARTESIAN_POINT('',(7.62629648670554,-6.73555739531044E-15,-55.));
#1487=CARTESIAN_POINT('Origin',(-15.,0.,0.));
#1488=CARTESIAN_POINT('',(-13.5,-9.18485099360515E-15,-75.));
#1489=CARTESIAN_POINT('Origin',(-15.,-9.30808107776935E-15,-76.00625));
#1490=CARTESIAN_POINT('Origin',(-13.5,0.,0.));
#1491=CARTESIAN_POINT('Origin',(-3.,0.,0.));
#1492=CARTESIAN_POINT('',(-4.5,-9.18485099360515E-15,-75.));
#1493=CARTESIAN_POINT('Origin',(-4.5,0.,0.));
#1494=CARTESIAN_POINT('Origin',(-3.,-9.30808107776935E-15,-76.00625));
#1495=CARTESIAN_POINT('Origin',(7.62629648670554,0.,0.));
#1496=CARTESIAN_POINT('',(-10.5,-9.18485099360515E-15,-75.));
#1497=CARTESIAN_POINT('',(7.62629648670554,-9.18485099360515E-15,-75.));
#1498=CARTESIAN_POINT('Origin',(-10.5,0.,0.));
#1499=CARTESIAN_POINT('Origin',(7.62629648670554,0.,0.));
#1500=CARTESIAN_POINT('',(-7.5,-9.18485099360515E-15,-75.));
#1501=CARTESIAN_POINT('Origin',(-7.5,0.,0.));
#1502=CARTESIAN_POINT('',(7.62629648670554,-9.18485099360515E-15,-75.));
#1503=CARTESIAN_POINT('Origin',(-9.,0.,0.));
#1504=CARTESIAN_POINT('Origin',(-9.,-9.30808107776935E-15,-76.00625));
#1505=CARTESIAN_POINT('Origin',(17.4813792900975,0.,0.));
#1506=CARTESIAN_POINT('Origin',(17.4813792900975,-8.81745695386094E-15,
72.));
#1507=CARTESIAN_POINT('Origin',(-17.4813792900975,0.,0.));
#1508=CARTESIAN_POINT('Origin',(-17.4813792900975,-8.81745695386094E-15,
72.));
#1509=CARTESIAN_POINT('',(0.,0.,0.));
#1510=CARTESIAN_POINT('',(0.,0.,0.));
#1511=CARTESIAN_POINT('',(0.,0.,0.));
#1512=CARTESIAN_POINT('Origin',(0.,100.,0.));
#1513=CARTESIAN_POINT('',(10.,100.,-1.22464679914735E-15));
#1514=CARTESIAN_POINT('Origin',(0.,100.,0.));
#1515=CARTESIAN_POINT('',(10.,5.,-1.22464679914735E-15));
#1516=CARTESIAN_POINT('',(10.,100.,1.22464679914735E-15));
#1517=CARTESIAN_POINT('Origin',(0.,5.,0.));
#1518=CARTESIAN_POINT('Origin',(0.,5.,0.));
#1519=CARTESIAN_POINT('Origin',(0.,0.,0.));
#1520=CARTESIAN_POINT('',(-13.,100.,1.59204083889156E-15));
#1521=CARTESIAN_POINT('Origin',(0.,100.,0.));
#1522=CARTESIAN_POINT('',(-13.,0.,1.59204083889156E-15));
#1523=CARTESIAN_POINT('',(-13.,0.,1.59204083889156E-15));
#1524=CARTESIAN_POINT('Origin',(0.,0.,0.));
#1525=CARTESIAN_POINT('Origin',(0.,100.,0.));
#1526=CARTESIAN_POINT('Origin',(0.,0.,0.));
#1527=CARTESIAN_POINT('',(0.,0.,0.));
#1528=CARTESIAN_POINT('',(0.,0.,0.));
#1529=CARTESIAN_POINT('Origin',(0.,0.,0.));
#1530=CARTESIAN_POINT('',(-10.,95.,1.22464679914735E-15));
#1531=CARTESIAN_POINT('Origin',(0.,95.,0.));
#1532=CARTESIAN_POINT('',(-10.,0.,1.22464679914735E-15));
#1533=CARTESIAN_POINT('',(-10.,0.,1.22464679914735E-15));
#1534=CARTESIAN_POINT('Origin',(0.,0.,0.));
#1535=CARTESIAN_POINT('Origin',(0.,95.,0.));
#1536=CARTESIAN_POINT('Origin',(0.,0.,0.));
#1537=CARTESIAN_POINT('',(-2.1316282072803E-13,4.99999999999966,6.66133814775094E-15));
#1538=CARTESIAN_POINT('Origin',(0.,100.,0.));
#1539=CARTESIAN_POINT('',(10.,100.,-1.22464679914735E-15));
#1540=CARTESIAN_POINT('Origin',(0.,100.,0.));
#1541=CARTESIAN_POINT('',(10.,5.,-1.22464679914735E-15));
#1542=CARTESIAN_POINT('',(10.,100.,1.22464679914735E-15));
#1543=CARTESIAN_POINT('Origin',(0.,5.,0.));
#1544=CARTESIAN_POINT('Origin',(0.,5.,0.));
#1545=CARTESIAN_POINT('Origin',(0.,0.,0.));
#1546=CARTESIAN_POINT('',(-13.,100.,1.59204083889156E-15));
#1547=CARTESIAN_POINT('Origin',(0.,100.,0.));
#1548=CARTESIAN_POINT('',(-13.,0.,1.59204083889156E-15));
#1549=CARTESIAN_POINT('',(-13.,0.,1.59204083889156E-15));
#1550=CARTESIAN_POINT('Origin',(0.,0.,0.));
#1551=CARTESIAN_POINT('Origin',(0.,100.,0.));
#1552=CARTESIAN_POINT('Origin',(0.,0.,0.));
#1553=CARTESIAN_POINT('',(-3.10862446895044E-13,4.99999999999945,3.33066907387547E-14));
#1554=CARTESIAN_POINT('Origin',(75.,2.,15.));
#1555=CARTESIAN_POINT('',(76.5144435094066,4.,15.));
#1556=CARTESIAN_POINT('Origin',(75.,4.,15.));
#1557=CARTESIAN_POINT('',(76.5144435094066,2.,15.));
#1558=CARTESIAN_POINT('',(76.5144435094066,2.,15.));
#1559=CARTESIAN_POINT('Origin',(75.,2.,15.));
#1560=CARTESIAN_POINT('Origin',(75.,4.,15.));
#1561=CARTESIAN_POINT('Origin',(448.,20.,15.));
#1562=CARTESIAN_POINT('',(448.,2.,2.));
#1563=CARTESIAN_POINT('',(448.,40.,2.));
#1564=CARTESIAN_POINT('',(448.,0.,2.));
#1565=CARTESIAN_POINT('',(448.,2.,28.));
#1566=CARTESIAN_POINT('',(448.,2.,22.5));
#1567=CARTESIAN_POINT('',(448.,40.,28.));
#1568=CARTESIAN_POINT('',(448.,0.,28.));
#1569=CARTESIAN_POINT('',(448.,40.,30.));
#1570=CARTESIAN_POINT('',(448.,40.,15.));
#1571=CARTESIAN_POINT('',(448.,0.,30.));
#1572=CARTESIAN_POINT('',(448.,10.,30.));
#1573=CARTESIAN_POINT('',(448.,0.,0.));
#1574=CARTESIAN_POINT('',(448.,0.,15.));
#1575=CARTESIAN_POINT('',(448.,40.,0.));
#1576=CARTESIAN_POINT('',(448.,10.,0.));
#1577=CARTESIAN_POINT('',(448.,40.,15.));
#1578=CARTESIAN_POINT('Origin',(225.,40.,15.));
#1579=CARTESIAN_POINT('',(2.,40.,28.));
#1580=CARTESIAN_POINT('',(112.5,40.,28.));
#1581=CARTESIAN_POINT('',(2.,40.,30.));
#1582=CARTESIAN_POINT('',(1.99999999999999,40.,15.));
#1583=CARTESIAN_POINT('',(450.,40.,30.));
#1584=CARTESIAN_POINT('Origin',(225.,40.,15.));
#1585=CARTESIAN_POINT('',(2.,40.,0.));
#1586=CARTESIAN_POINT('',(0.,40.,0.));
#1587=CARTESIAN_POINT('',(2.00000000000001,40.,2.));
#1588=CARTESIAN_POINT('',(1.99999999999999,40.,15.));
#1589=CARTESIAN_POINT('',(337.5,40.,2.));
#1590=CARTESIAN_POINT('Origin',(450.,0.,0.));
#1591=CARTESIAN_POINT('',(2.,0.,0.));
#1592=CARTESIAN_POINT('',(0.,0.,0.));
#1593=CARTESIAN_POINT('',(2.00000000000003,10.,0.));
#1594=CARTESIAN_POINT('Origin',(225.,0.,15.));
#1595=CARTESIAN_POINT('',(2.,0.,30.));
#1596=CARTESIAN_POINT('',(450.,0.,30.));
#1597=CARTESIAN_POINT('',(1.99999999999999,0.,15.));
#1598=CARTESIAN_POINT('Origin',(2.,20.,15.));
#1599=CARTESIAN_POINT('',(2.00000000000001,2.,2.));
#1600=CARTESIAN_POINT('',(2.00000000000003,0.,2.));
#1601=CARTESIAN_POINT('',(2.,10.,30.));
#1602=CARTESIAN_POINT('',(2.,2.,28.));
#1603=CARTESIAN_POINT('',(2.,0.,28.));
#1604=CARTESIAN_POINT('',(1.99999999999999,2.,7.5));
#1605=CARTESIAN_POINT('Origin',(450.,0.,2.));
#1606=CARTESIAN_POINT('',(337.5,2.,2.));
#1607=CARTESIAN_POINT('Origin',(0.,0.,28.));
#1608=CARTESIAN_POINT('',(112.5,2.,28.));
#1609=CARTESIAN_POINT('Origin',(225.,2.,15.));
#1610=CARTESIAN_POINT('Origin',(0.,0.,30.));
#1611=CARTESIAN_POINT('',(369.999999999997,-28.9999999999993,15.));
#1612=CARTESIAN_POINT('',(69.9999999999972,-29.0000000000234,15.));
#1613=CARTESIAN_POINT('',(370.,100.,15.));
#1614=CARTESIAN_POINT('',(70.0000000000003,100.,15.));
#1615=UNCERTAINTY_MEASURE_WITH_UNIT(LENGTH_MEASURE(0.01),#1631,
'DISTANCE_ACCURACY_VALUE',
'Maximum model space distance between geometric entities at asserted c
onnectivities');
#1616=UNCERTAINTY_MEASURE_WITH_UNIT(LENGTH_MEASURE(0.01),#1631,
'DISTANCE_ACCURACY_VALUE',
'Maximum model space distance between geometric entities at asserted c
onnectivities');
#1617=UNCERTAINTY_MEASURE_WITH_UNIT(LENGTH_MEASURE(0.01),#1631,
'DISTANCE_ACCURACY_VALUE',
'Maximum model space distance between geometric entities at asserted c
onnectivities');
#1618=UNCERTAINTY_MEASURE_WITH_UNIT(LENGTH_MEASURE(0.01),#1631,
'DISTANCE_ACCURACY_VALUE',
'Maximum model space distance between geometric entities at asserted c
onnectivities');
#1619=UNCERTAINTY_MEASURE_WITH_UNIT(LENGTH_MEASURE(0.01),#1631,
'DISTANCE_ACCURACY_VALUE',
'Maximum model space distance between geometric entities at asserted c
onnectivities');
#1620=UNCERTAINTY_MEASURE_WITH_UNIT(LENGTH_MEASURE(0.01),#1631,
'DISTANCE_ACCURACY_VALUE',
'Maximum model space distance between geometric entities at asserted c
onnectivities');
#1621=UNCERTAINTY_MEASURE_WITH_UNIT(LENGTH_MEASURE(0.01),#1631,
'DISTANCE_ACCURACY_VALUE',
'Maximum model space distance between geometric entities at asserted c
onnectivities');
#1622=UNCERTAINTY_MEASURE_WITH_UNIT(LENGTH_MEASURE(0.01),#1631,
'DISTANCE_ACCURACY_VALUE',
'Maximum model space distance between geometric entities at asserted c
onnectivities');
#1623=(
GEOMETRIC_REPRESENTATION_CONTEXT(3)
GLOBAL_UNCERTAINTY_ASSIGNED_CONTEXT((#1615))
GLOBAL_UNIT_ASSIGNED_CONTEXT((#1631,#1633,#1634))
REPRESENTATION_CONTEXT('','3D')
);
#1624=(
GEOMETRIC_REPRESENTATION_CONTEXT(3)
GLOBAL_UNCERTAINTY_ASSIGNED_CONTEXT((#1616))
GLOBAL_UNIT_ASSIGNED_CONTEXT((#1631,#1633,#1634))
REPRESENTATION_CONTEXT('','3D')
);
#1625=(
GEOMETRIC_REPRESENTATION_CONTEXT(3)
GLOBAL_UNCERTAINTY_ASSIGNED_CONTEXT((#1617))
GLOBAL_UNIT_ASSIGNED_CONTEXT((#1631,#1633,#1634))
REPRESENTATION_CONTEXT('','3D')
);
#1626=(
GEOMETRIC_REPRESENTATION_CONTEXT(3)
GLOBAL_UNCERTAINTY_ASSIGNED_CONTEXT((#1618))
GLOBAL_UNIT_ASSIGNED_CONTEXT((#1631,#1633,#1634))
REPRESENTATION_CONTEXT('','3D')
);
#1627=(
GEOMETRIC_REPRESENTATION_CONTEXT(3)
GLOBAL_UNCERTAINTY_ASSIGNED_CONTEXT((#1619))
GLOBAL_UNIT_ASSIGNED_CONTEXT((#1631,#1633,#1634))
REPRESENTATION_CONTEXT('','3D')
);
#1628=(
GEOMETRIC_REPRESENTATION_CONTEXT(3)
GLOBAL_UNCERTAINTY_ASSIGNED_CONTEXT((#1620))
GLOBAL_UNIT_ASSIGNED_CONTEXT((#1631,#1633,#1634))
REPRESENTATION_CONTEXT('','3D')
);
#1629=(
GEOMETRIC_REPRESENTATION_CONTEXT(3)
GLOBAL_UNCERTAINTY_ASSIGNED_CONTEXT((#1621))
GLOBAL_UNIT_ASSIGNED_CONTEXT((#1631,#1633,#1634))
REPRESENTATION_CONTEXT('','3D')
);
#1630=(
GEOMETRIC_REPRESENTATION_CONTEXT(3)
GLOBAL_UNCERTAINTY_ASSIGNED_CONTEXT((#1622))
GLOBAL_UNIT_ASSIGNED_CONTEXT((#1631,#1633,#1634))
REPRESENTATION_CONTEXT('','3D')
);
#1631=(
LENGTH_UNIT()
NAMED_UNIT(*)
SI_UNIT(.MILLI.,.METRE.)
);
#1632=(
LENGTH_UNIT()
NAMED_UNIT(*)
SI_UNIT($,.METRE.)
);
#1633=(
NAMED_UNIT(*)
PLANE_ANGLE_UNIT()
SI_UNIT($,.RADIAN.)
);
#1634=(
NAMED_UNIT(*)
SI_UNIT($,.STERADIAN.)
SOLID_ANGLE_UNIT()
);
#1635=SHAPE_DEFINITION_REPRESENTATION(#1642,#1657);
#1636=SHAPE_DEFINITION_REPRESENTATION(#1643,#1658);
#1637=SHAPE_DEFINITION_REPRESENTATION(#1644,#1659);
#1638=SHAPE_DEFINITION_REPRESENTATION(#1645,#1660);
#1639=SHAPE_DEFINITION_REPRESENTATION(#1648,#1661);
#1640=SHAPE_DEFINITION_REPRESENTATION(#1649,#1662);
#1641=SHAPE_DEFINITION_REPRESENTATION(#1650,#1663);
#1642=PRODUCT_DEFINITION_SHAPE('',$,#1665);
#1643=PRODUCT_DEFINITION_SHAPE('',$,#1666);
#1644=PRODUCT_DEFINITION_SHAPE('',$,#1667);
#1645=PRODUCT_DEFINITION_SHAPE('',$,#1668);
#1646=PRODUCT_DEFINITION_SHAPE($,$,#35);
#1647=PRODUCT_DEFINITION_SHAPE($,$,#36);
#1648=PRODUCT_DEFINITION_SHAPE('',$,#1669);
#1649=PRODUCT_DEFINITION_SHAPE('',$,#1670);
#1650=PRODUCT_DEFINITION_SHAPE('',$,#1671);
#1651=PRODUCT_DEFINITION_SHAPE($,$,#37);
#1652=PRODUCT_DEFINITION_SHAPE($,$,#38);
#1653=PRODUCT_DEFINITION_SHAPE($,$,#39);
#1654=PRODUCT_DEFINITION_SHAPE($,$,#40);
#1655=PRODUCT_DEFINITION_SHAPE($,$,#41);
#1656=PRODUCT_DEFINITION_SHAPE($,$,#42);
#1657=SHAPE_REPRESENTATION('',(#912,#1043,#1044,#1045,#1046),#1623);
#1658=SHAPE_REPRESENTATION('',(#913,#999,#1000),#1624);
#1659=SHAPE_REPRESENTATION('',(#914),#1625);
#1660=SHAPE_REPRESENTATION('',(#948),#1626);
#1661=SHAPE_REPRESENTATION('',(#1001,#1018),#1627);
#1662=SHAPE_REPRESENTATION('',(#1011,#1028),#1628);
#1663=SHAPE_REPRESENTATION('',(#1012),#1629);
#1664=PRODUCT_DEFINITION_CONTEXT('part definition',#1687,'design');
#1665=PRODUCT_DEFINITION('wheels','wheels v4',#1672,#1664);
#1666=PRODUCT_DEFINITION('Mower wheel 150mm','Mower wheel 150mm v1',#1673,
#1664);
#1667=PRODUCT_DEFINITION('Rim','Rim',#1674,#1664);
#1668=PRODUCT_DEFINITION('Tyre','Tyre',#1675,#1664);
#1669=PRODUCT_DEFINITION('rod','rod v4',#1676,#1664);
#1670=PRODUCT_DEFINITION('rod_1','rod v4',#1677,#1664);
#1671=PRODUCT_DEFINITION('inner','inner v3',#1678,#1664);
#1672=PRODUCT_DEFINITION_FORMATION('',$,#1689);
#1673=PRODUCT_DEFINITION_FORMATION('',$,#1690);
#1674=PRODUCT_DEFINITION_FORMATION('',$,#1691);
#1675=PRODUCT_DEFINITION_FORMATION('',$,#1692);
#1676=PRODUCT_DEFINITION_FORMATION('',$,#1693);
#1677=PRODUCT_DEFINITION_FORMATION('',$,#1694);
#1678=PRODUCT_DEFINITION_FORMATION('',$,#1695);
#1679=PRODUCT_RELATED_PRODUCT_CATEGORY('wheels v4','wheels v4',(#1689));
#1680=PRODUCT_RELATED_PRODUCT_CATEGORY('Mower wheel 150mm v1',
'Mower wheel 150mm v1',(#1690));
#1681=PRODUCT_RELATED_PRODUCT_CATEGORY('Rim','Rim',(#1691));
#1682=PRODUCT_RELATED_PRODUCT_CATEGORY('Tyre','Tyre',(#1692));
#1683=PRODUCT_RELATED_PRODUCT_CATEGORY('rod v4','rod v4',(#1693));
#1684=PRODUCT_RELATED_PRODUCT_CATEGORY('rod v4','rod v4',(#1694));
#1685=PRODUCT_RELATED_PRODUCT_CATEGORY('inner v3','inner v3',(#1695));
#1686=APPLICATION_PROTOCOL_DEFINITION('international standard',
'automotive_design',2009,#1687);
#1687=APPLICATION_CONTEXT(
'Core Data for Automotive Mechanical Design Process');
#1688=PRODUCT_CONTEXT('part definition',#1687,'mechanical');
#1689=PRODUCT('wheels','wheels v4',$,(#1688));
#1690=PRODUCT('Mower wheel 150mm','Mower wheel 150mm v1','STEP AP214',(#1688));
#1691=PRODUCT('Rim','Rim','Rim',(#1688));
#1692=PRODUCT('Tyre','Tyre','Tyre',(#1688));
#1693=PRODUCT('rod','rod v4',$,(#1688));
#1694=PRODUCT('rod_1','rod v4',$,(#1688));
#1695=PRODUCT('inner','inner v3',$,(#1688));
#1696=PRESENTATION_STYLE_ASSIGNMENT((#1699));
#1697=PRESENTATION_STYLE_ASSIGNMENT((#1700));
#1698=PRESENTATION_STYLE_ASSIGNMENT((#1701));
#1699=SURFACE_STYLE_USAGE(.BOTH.,#1702);
#1700=SURFACE_STYLE_USAGE(.BOTH.,#1703);
#1701=SURFACE_STYLE_USAGE(.BOTH.,#1704);
#1702=SURFACE_SIDE_STYLE('',(#1705));
#1703=SURFACE_SIDE_STYLE('',(#1706));
#1704=SURFACE_SIDE_STYLE('',(#1707));
#1705=SURFACE_STYLE_FILL_AREA(#1708);
#1706=SURFACE_STYLE_FILL_AREA(#1709);
#1707=SURFACE_STYLE_FILL_AREA(#1710);
#1708=FILL_AREA_STYLE('Steel - Satin',(#1711));
#1709=FILL_AREA_STYLE('Opaque(234,234,234)',(#1712));
#1710=FILL_AREA_STYLE('Opaque(102,102,102)',(#1713));
#1711=FILL_AREA_STYLE_COLOUR('Steel - Satin',#1714);
#1712=FILL_AREA_STYLE_COLOUR('Opaque(234,234,234)',#1715);
#1713=FILL_AREA_STYLE_COLOUR('Opaque(102,102,102)',#1716);
#1714=COLOUR_RGB('Steel - Satin',0.627450980392157,0.627450980392157,0.627450980392157);
#1715=COLOUR_RGB('Opaque(234,234,234)',0.917647058823529,0.917647058823529,
0.917647058823529);
#1716=COLOUR_RGB('Opaque(102,102,102)',0.4,0.4,0.4);
ENDSEC;
END-ISO-10303-21;
